<svg xmlns="http://www.w3.org/2000/svg" width="46.477" height="39.505" viewBox="0 0 46.477 39.505">
  <g id="Grupo_2606" data-name="Grupo 2606" transform="translate(0 435.199)">
    <path id="Trazado_23271" data-name="Trazado 23271" d="M273.429-263H261.035A5.035,5.035,0,0,1,256-268.031a5.035,5.035,0,0,1,5.035-5.035h12.394a5.035,5.035,0,0,1,5.035,5.035A5.035,5.035,0,0,1,273.429-263Z" transform="translate(-232.762 -147.415)" fill="#e7ecfb"/>
    <path id="Trazado_23272" data-name="Trazado 23272" d="M374.68-266.635c0-2.7-1.734-4.9-3.873-4.9s-3.873,2.192-3.873,4.9,1.734,4.9,3.873,4.9S374.68-263.932,374.68-266.635Z" transform="translate(-333.626 -148.811)" fill="#cad9fb"/>
    <path id="Trazado_23273" data-name="Trazado 23273" d="M278.464-421.629a5.026,5.026,0,0,1-1.472,3.563,5.026,5.026,0,0,1-3.563,1.472H261.035A5.035,5.035,0,0,1,256-421.629a5.035,5.035,0,0,1,5.035-5.035h12.394A5.035,5.035,0,0,1,278.464-421.629Z" transform="translate(-232.762 -7.76)" fill="#cad9fb"/>
    <path id="Trazado_23274" data-name="Trazado 23274" d="M278.464-114.43a5.025,5.025,0,0,1-1.472,3.563,5.026,5.026,0,0,1-3.563,1.472H261.035A5.035,5.035,0,0,1,256-114.43a5.035,5.035,0,0,1,5.035-5.035h12.394A5.035,5.035,0,0,1,278.464-114.43Z" transform="translate(-232.762 -287.073)" fill="#cad9fb"/>
    <path id="Trazado_23275" data-name="Trazado 23275" d="M276.14-421.629a5.025,5.025,0,0,1-1.472,3.563,5.024,5.024,0,0,1-3.563,1.472h-10.07A5.035,5.035,0,0,1,256-421.629a5.035,5.035,0,0,1,5.035-5.035H271.1a5.037,5.037,0,0,1,3.56,1.474A5.036,5.036,0,0,1,276.14-421.629Z" transform="translate(-232.762 -7.76)" fill="#e7ecfb"/>
    <path id="Trazado_23276" data-name="Trazado 23276" d="M276.14-114.43a5.025,5.025,0,0,1-1.472,3.563A5.024,5.024,0,0,1,271.1-109.4h-10.07A5.035,5.035,0,0,1,256-114.43a5.035,5.035,0,0,1,5.035-5.035H271.1a5.035,5.035,0,0,1,3.56,1.475A5.035,5.035,0,0,1,276.14-114.43Z" transform="translate(-232.762 -287.073)" fill="#e7ecfb"/>
    <path id="Trazado_23277" data-name="Trazado 23277" d="M266.063-421.63a5.035,5.035,0,0,1-1.475,3.56,5.036,5.036,0,0,1-3.56,1.474,4.765,4.765,0,0,1-1.162-.139,5.03,5.03,0,0,1-3.874-4.9,5.03,5.03,0,0,1,3.874-4.9,4.765,4.765,0,0,1,1.162-.139,5.037,5.037,0,0,1,3.56,1.474A5.035,5.035,0,0,1,266.063-421.63Z" transform="translate(-232.754 -7.76)" fill="#e7ecfb"/>
    <path id="Trazado_23278" data-name="Trazado 23278" d="M402.6-268.031A5.035,5.035,0,0,1,397.563-263a4.768,4.768,0,0,1-1.162-.139,5.03,5.03,0,0,1-3.874-4.9,5.03,5.03,0,0,1,3.874-4.9,4.771,4.771,0,0,1,1.162-.139,5.035,5.035,0,0,1,3.56,1.475A5.036,5.036,0,0,1,402.6-268.031Z" transform="translate(-356.896 -147.415)" fill="#e7ecfb"/>
    <path id="Trazado_23279" data-name="Trazado 23279" d="M266.063-114.43a5.035,5.035,0,0,1-5.035,5.035,4.785,4.785,0,0,1-1.162-.14,5.03,5.03,0,0,1-3.874-4.9,5.031,5.031,0,0,1,3.874-4.9,4.771,4.771,0,0,1,1.162-.139A5.035,5.035,0,0,1,266.063-114.43Z" transform="translate(-232.754 -287.073)" fill="#e7ecfb"/>
    <path id="Trazado_23280" data-name="Trazado 23280" d="M263.746-420.234c0-2.7-1.734-4.9-3.873-4.9s-3.873,2.192-3.873,4.9,1.734,4.9,3.873,4.9S263.746-417.53,263.746-420.234Z" transform="translate(-232.762 -9.156)" fill="#fff"/>
    <path id="Trazado_23281" data-name="Trazado 23281" d="M400.281-266.635c0-2.7-1.734-4.9-3.873-4.9s-3.873,2.192-3.873,4.9,1.734,4.9,3.873,4.9S400.281-263.932,400.281-266.635Z" transform="translate(-356.903 -148.811)" fill="#fff"/>
    <path id="Trazado_23282" data-name="Trazado 23282" d="M263.746-113.035c0-2.7-1.734-4.9-3.873-4.9s-3.873,2.192-3.873,4.9,1.734,4.9,3.873,4.9S263.746-110.331,263.746-113.035Z" transform="translate(-232.762 -288.469)" fill="#fff"/>
    <path id="Trazado_23283" data-name="Trazado 23283" d="M265.668-423.58H253.275a5.81,5.81,0,0,1-5.81-5.81,5.81,5.81,0,0,1,5.81-5.81h12.394a5.809,5.809,0,0,1,5.81,5.81A5.809,5.809,0,0,1,265.668-423.58Zm-12.394-10.07a4.26,4.26,0,0,0-4.26,4.26,4.26,4.26,0,0,0,4.26,4.26h12.394a4.26,4.26,0,0,0,4.26-4.26,4.26,4.26,0,0,0-4.26-4.26Z" transform="translate(-225.001)" fill="#418cff"/>
    <path id="Trazado_23284" data-name="Trazado 23284" d="M253.275-423.58a5.81,5.81,0,0,1-5.81-5.81,5.81,5.81,0,0,1,5.81-5.81,5.809,5.809,0,0,1,5.81,5.81A5.816,5.816,0,0,1,253.275-423.58Zm0-10.07a4.26,4.26,0,0,0-4.26,4.26,4.26,4.26,0,0,0,4.26,4.26,4.26,4.26,0,0,0,4.26-4.26A4.265,4.265,0,0,0,253.275-433.65Z" transform="translate(-225.001)" fill="#418cff"/>
    <path id="Trazado_23285" data-name="Trazado 23285" d="M405.809-395.549a.773.773,0,0,1-.548-.227l-3.873-3.873a.774.774,0,0,1,.01-1.086.774.774,0,0,1,1.086-.009l3.873,3.873a.775.775,0,0,1,.168.844A.774.774,0,0,1,405.809-395.549Z" transform="translate(-364.755 -31.129)" fill="#418cff"/>
    <path id="Trazado_23286" data-name="Trazado 23286" d="M265.668-269.979H253.275a5.81,5.81,0,0,1-5.81-5.81,5.81,5.81,0,0,1,5.81-5.81h12.394a5.809,5.809,0,0,1,5.81,5.81A5.81,5.81,0,0,1,265.668-269.979Zm-12.394-10.07a4.26,4.26,0,0,0-4.26,4.26,4.26,4.26,0,0,0,4.26,4.26h12.394a4.261,4.261,0,0,0,4.26-4.26,4.26,4.26,0,0,0-4.26-4.26Z" transform="translate(-225.001 -139.658)" fill="#418cff"/>
    <path id="Trazado_23287" data-name="Trazado 23287" d="M389.81-269.979a5.81,5.81,0,0,1-5.81-5.81,5.809,5.809,0,0,1,5.81-5.81,5.809,5.809,0,0,1,5.81,5.81A5.816,5.816,0,0,1,389.81-269.979Zm0-10.07a4.26,4.26,0,0,0-4.26,4.26,4.261,4.261,0,0,0,4.26,4.26,4.261,4.261,0,0,0,4.26-4.26A4.265,4.265,0,0,0,389.81-280.049Z" transform="translate(-349.143 -139.658)" fill="#418cff"/>
    <path id="Trazado_23288" data-name="Trazado 23288" d="M401.844-395.549a.775.775,0,0,1-.716-.478.775.775,0,0,1,.168-.844l3.873-3.873a.774.774,0,0,1,1.086.009.774.774,0,0,1,.01,1.086l-3.873,3.873A.774.774,0,0,1,401.844-395.549Z" transform="translate(-364.662 -31.129)" fill="#418cff"/>
    <path id="Trazado_23289" data-name="Trazado 23289" d="M265.668-116.381H253.275a5.81,5.81,0,0,1-5.81-5.81,5.81,5.81,0,0,1,5.81-5.81h12.394a5.81,5.81,0,0,1,5.81,5.81A5.809,5.809,0,0,1,265.668-116.381Zm-12.394-10.07a4.26,4.26,0,0,0-4.26,4.26,4.26,4.26,0,0,0,4.26,4.26h12.394a4.26,4.26,0,0,0,4.26-4.26,4.261,4.261,0,0,0-4.26-4.26Z" transform="translate(-225.001 -279.313)" fill="#418cff"/>
    <path id="Trazado_23290" data-name="Trazado 23290" d="M253.275-116.381a5.81,5.81,0,0,1-5.81-5.81,5.81,5.81,0,0,1,5.81-5.81,5.81,5.81,0,0,1,5.81,5.81A5.815,5.815,0,0,1,253.275-116.381Zm0-10.07a4.26,4.26,0,0,0-4.26,4.26,4.26,4.26,0,0,0,4.26,4.26,4.26,4.26,0,0,0,4.26-4.26A4.265,4.265,0,0,0,253.275-126.451Z" transform="translate(-225.001 -279.313)" fill="#418cff"/>
    <path id="Trazado_23291" data-name="Trazado 23291" d="M405.809-88.348a.774.774,0,0,1-.548-.227l-3.873-3.873a.774.774,0,0,1,.01-1.086.775.775,0,0,1,1.086-.01l3.873,3.873a.775.775,0,0,1,.168.844A.774.774,0,0,1,405.809-88.348Z" transform="translate(-364.755 -310.444)" fill="#418cff"/>
    <path id="Trazado_23292" data-name="Trazado 23292" d="M401.844-88.348a.774.774,0,0,1-.716-.478.775.775,0,0,1,.168-.844l3.873-3.873a.775.775,0,0,1,1.086.01.774.774,0,0,1,.01,1.086l-3.873,3.873A.774.774,0,0,1,401.844-88.348Z" transform="translate(-364.662 -310.444)" fill="#418cff"/>
    <path id="Trazado_23293" data-name="Trazado 23293" d="M292.552-241.948a.775.775,0,0,1-.548-.227l-1.549-1.549a.774.774,0,0,1,.01-1.086.775.775,0,0,1,1.086-.01l1,1,3.325-3.325a.775.775,0,0,1,1.086.009.775.775,0,0,1,.01,1.086l-3.873,3.873A.774.774,0,0,1,292.552-241.948Z" transform="translate(-263.891 -170.788)" fill="#418cff"/>
    <path id="Trazado_23294" data-name="Trazado 23294" d="M20.14-399.517H.775A.775.775,0,0,1,0-400.291a.775.775,0,0,1,.775-.775H20.14a.775.775,0,0,1,.774.775A.774.774,0,0,1,20.14-399.517Z" transform="translate(0 -31.035)" fill="#418cff"/>
    <path id="Trazado_23295" data-name="Trazado 23295" d="M10.844-365.385H.775A.775.775,0,0,1,0-366.159a.775.775,0,0,1,.775-.775h10.07a.775.775,0,0,1,.775.775A.775.775,0,0,1,10.844-365.385Z" transform="translate(0 -62.068)" fill="#418cff"/>
    <path id="Trazado_23296" data-name="Trazado 23296" d="M148.939-365.385h-3.1a.775.775,0,0,1-.775-.774.775.775,0,0,1,.775-.775h3.1a.775.775,0,0,1,.775.775A.775.775,0,0,1,148.939-365.385Z" transform="translate(-131.898 -62.068)" fill="#418cff"/>
    <path id="Trazado_23297" data-name="Trazado 23297" d="M20.14-245.916H.775A.775.775,0,0,1,0-246.691a.775.775,0,0,1,.775-.774H20.14a.774.774,0,0,1,.774.774A.775.775,0,0,1,20.14-245.916Z" transform="translate(0 -170.693)" fill="#418cff"/>
    <path id="Trazado_23298" data-name="Trazado 23298" d="M10.844-211.783H.775A.775.775,0,0,1,0-212.558a.775.775,0,0,1,.775-.774h10.07a.775.775,0,0,1,.775.774A.775.775,0,0,1,10.844-211.783Z" transform="translate(0 -201.727)" fill="#418cff"/>
    <path id="Trazado_23299" data-name="Trazado 23299" d="M148.939-211.783h-3.1a.775.775,0,0,1-.775-.775.775.775,0,0,1,.775-.774h3.1a.775.775,0,0,1,.775.774A.775.775,0,0,1,148.939-211.783Z" transform="translate(-131.898 -201.727)" fill="#418cff"/>
    <path id="Trazado_23300" data-name="Trazado 23300" d="M20.14-92.318H.775A.775.775,0,0,1,0-93.092a.775.775,0,0,1,.775-.775H20.14a.775.775,0,0,1,.774.775A.774.774,0,0,1,20.14-92.318Z" transform="translate(0 -310.348)" fill="#418cff"/>
    <path id="Trazado_23301" data-name="Trazado 23301" d="M10.844-58.185H.775A.775.775,0,0,1,0-58.96a.775.775,0,0,1,.775-.775h10.07a.775.775,0,0,1,.775.775A.775.775,0,0,1,10.844-58.185Z" transform="translate(0 -341.382)" fill="#418cff"/>
    <path id="Trazado_23302" data-name="Trazado 23302" d="M148.939-58.185h-3.1a.775.775,0,0,1-.775-.775.775.775,0,0,1,.775-.775h3.1a.775.775,0,0,1,.775.775A.775.775,0,0,1,148.939-58.185Z" transform="translate(-131.898 -341.382)" fill="#418cff"/>
    <path id="Trazado_23303" data-name="Trazado 23303" d="M8.535-399.517H27.9v-1.549H8.535Z" transform="translate(-7.76 -31.034)" fill="#fff"/>
    <path id="Trazado_23304" data-name="Trazado 23304" d="M12.408-400.291a.775.775,0,0,0-.774-.775h-3.1v1.549h3.1A.774.774,0,0,0,12.408-400.291Z" transform="translate(-7.76 -31.035)" fill="#418cff"/>
    <path id="Trazado_23305" data-name="Trazado 23305" d="M113.243-399.517v-1.549h-10.07a.775.775,0,0,0-.775.775.775.775,0,0,0,.775.774Z" transform="translate(-93.103 -31.035)" fill="#418cff"/>
    <path id="Trazado_23306" data-name="Trazado 23306" d="M69.04-401.066a.815.815,0,0,0-.55.225l-.093.116a.587.587,0,0,0-.07.14.492.492,0,0,0-.046.139,1.191,1.191,0,0,0-.016.155.816.816,0,0,0,.225.55.8.8,0,0,0,.256.162.791.791,0,0,0,.844-.162.807.807,0,0,0,.163-.256.772.772,0,0,0,.062-.294.767.767,0,0,0-.224-.55A.766.766,0,0,0,69.04-401.066Z" transform="translate(-62.069 -31.034)" fill="#418cff"/>
  </g>
</svg>
