<svg xmlns="http://www.w3.org/2000/svg" width="39.288" height="39.288" viewBox="0 0 39.288 39.288">
  <g id="Grupo_2626" data-name="Grupo 2626" transform="translate(0 512)">
    <path id="Trazado_24174" data-name="Trazado 24174" d="M25.6-341.333v22.263H60.959v-22.263Z" transform="translate(-23.636 -157.571)" fill="#cad9fb"/>
    <path id="Trazado_24175" data-name="Trazado 24175" d="M25.6-341.333v22.263H58.995v-22.263Z" transform="translate(-23.636 -157.571)" fill="#e7ecfb"/>
    <path id="Trazado_24176" data-name="Trazado 24176" d="M78.11-477.867a1.31,1.31,0,0,1,1.31,1.31v1.964H76.8v-1.964A1.31,1.31,0,0,1,78.11-477.867Z" transform="translate(-70.907 -31.514)" fill="#e7ecfb"/>
    <path id="Trazado_24177" data-name="Trazado 24177" d="M402.377-477.867a1.31,1.31,0,0,1,1.31,1.31v1.964h-2.619v-1.964A1.31,1.31,0,0,1,402.377-477.867Z" transform="translate(-370.291 -31.514)" fill="#e7ecfb"/>
    <path id="Trazado_24178" data-name="Trazado 24178" d="M286.838-500.193v4.584h-1.964v-4.584a3.274,3.274,0,0,0-.959-2.315,3.274,3.274,0,0,0-2.315-.959h1.964a3.274,3.274,0,0,1,2.315.959A3.274,3.274,0,0,1,286.838-500.193Z" transform="translate(-259.992 -7.878)" fill="#cad9fb"/>
    <path id="Trazado_24179" data-name="Trazado 24179" d="M174.574-500.193v4.584h-.655v-3.929a1.313,1.313,0,0,0-1.31-1.31h-6.548a1.313,1.313,0,0,0-1.31,1.31v3.929h-2.619v-4.584a3.274,3.274,0,0,1,3.274-3.274H171.3a3.274,3.274,0,0,1,2.315.959A3.274,3.274,0,0,1,174.574-500.193Z" transform="translate(-149.692 -7.878)" fill="#e7ecfb"/>
    <path id="Trazado_24180" data-name="Trazado 24180" d="M60.959-417.478v3.274H25.6v-3.274a.655.655,0,0,1,.655-.655H60.3A.655.655,0,0,1,60.959-417.478Z" transform="translate(-23.636 -86.664)" fill="#7eabfa"/>
    <path id="Trazado_24181" data-name="Trazado 24181" d="M58.995-417.478v3.274H25.6v-3.274a.655.655,0,0,1,.655-.655H58.34A.655.655,0,0,1,58.995-417.478Z" transform="translate(-23.636 -86.664)" fill="#a3c2f6"/>
    <path id="Trazado_24182" data-name="Trazado 24182" d="M72.2-443.078v5.238H68.267v-5.238a.655.655,0,0,1,.655-.655h2.619A.655.655,0,0,1,72.2-443.078Z" transform="translate(-63.028 -63.029)" fill="#7eabfa"/>
    <path id="Trazado_24183" data-name="Trazado 24183" d="M70.231-443.078v5.238H68.267v-5.238a.655.655,0,0,1,.655-.655h.655A.655.655,0,0,1,70.231-443.078Z" transform="translate(-63.028 -63.029)" fill="#a3c2f6"/>
    <path id="Trazado_24184" data-name="Trazado 24184" d="M396.462-443.078v5.238h-3.929v-5.238a.655.655,0,0,1,.655-.655h2.619A.655.655,0,0,1,396.462-443.078Z" transform="translate(-362.412 -63.029)" fill="#7eabfa"/>
    <path id="Trazado_24185" data-name="Trazado 24185" d="M394.5-443.078v5.238h-1.964v-5.238a.655.655,0,0,1,.655-.655h.655A.655.655,0,0,1,394.5-443.078Z" transform="translate(-362.412 -63.029)" fill="#a3c2f6"/>
    <path id="Trazado_24186" data-name="Trazado 24186" d="M46.512-382.69A1.31,1.31,0,0,0,45.2-384H9.843a1.31,1.31,0,0,0-1.31,1.31v1.964a1.31,1.31,0,0,0,1.31,1.31H45.2a1.31,1.31,0,0,0,1.31-1.31Z" transform="translate(-7.879 -118.178)" fill="#cad9fb" fill-rule="evenodd"/>
    <path id="Trazado_24187" data-name="Trazado 24187" d="M46.512-66.957a1.31,1.31,0,0,0-1.31-1.31H9.843a1.31,1.31,0,0,0-1.31,1.31v1.964a1.31,1.31,0,0,0,1.31,1.31H45.2a1.31,1.31,0,0,0,1.31-1.31Z" transform="translate(-7.879 -409.684)" fill="#cad9fb" fill-rule="evenodd"/>
    <path id="Trazado_24188" data-name="Trazado 24188" d="M44.547-382.69a1.31,1.31,0,0,0-1.31-1.31H9.843a1.31,1.31,0,0,0-1.31,1.31v1.964a1.31,1.31,0,0,0,1.31,1.31H43.238a1.31,1.31,0,0,0,1.31-1.31Z" transform="translate(-7.879 -118.178)" fill="#e7ecfb" fill-rule="evenodd"/>
    <path id="Trazado_24189" data-name="Trazado 24189" d="M44.547-66.957a1.31,1.31,0,0,0-1.31-1.31H9.843a1.31,1.31,0,0,0-1.31,1.31v1.964a1.31,1.31,0,0,0,1.31,1.31H43.238a1.31,1.31,0,0,0,1.31-1.31Z" transform="translate(-7.879 -409.684)" fill="#e7ecfb" fill-rule="evenodd"/>
    <path id="Trazado_24190" data-name="Trazado 24190" d="M74.815-278.981v1.31a.655.655,0,0,1-.655.655H72.85v1.31a.655.655,0,0,1-.655.655h-1.31a.632.632,0,0,1-.327-.092.644.644,0,0,1-.327-.563v-1.31h-1.31a.655.655,0,0,1-.655-.655v-1.31a.655.655,0,0,1,.655-.655h1.31v-1.31a.644.644,0,0,1,.327-.563.632.632,0,0,1,.327-.092H72.2a.655.655,0,0,1,.655.655v1.31h1.31A.655.655,0,0,1,74.815-278.981Z" transform="translate(-63.028 -212.72)" fill="#e7ecfb"/>
    <path id="Trazado_24191" data-name="Trazado 24191" d="M364.948-255.345a.655.655,0,0,0-.655-.655h-5.238a.655.655,0,0,0-.655.655v1.31a.655.655,0,0,0,.655.655h5.238a.655.655,0,0,0,.655-.655Z" transform="translate(-330.898 -236.356)" fill="#e7ecfb" fill-rule="evenodd"/>
    <path id="Trazado_24192" data-name="Trazado 24192" d="M215.15-267.409l-5.651,6.784,1.964-5.893h-3.051a.655.655,0,0,1-.523-.266.655.655,0,0,1-.1-.578l1.572-5.238a.646.646,0,0,1,.622-.465h2.567a.655.655,0,0,1,.523.267.655.655,0,0,1,.1.578l-.864,2.894a.655.655,0,0,0,.1.578.655.655,0,0,0,.523.267h1.716a.655.655,0,0,1,.594.376A.655.655,0,0,1,215.15-267.409Z" transform="translate(-191.819 -220.599)" fill="#cad9fb"/>
    <path id="Trazado_24193" data-name="Trazado 24193" d="M72.85-277.878v1.31a.655.655,0,0,1-.655.655v1.31h-1.31a.644.644,0,0,1-.327.563.645.645,0,0,1-.327-.563v-1.31h-1.31a.655.655,0,0,1-.655-.655v-1.31a.655.655,0,0,1,.655-.655h1.31v-1.31a.644.644,0,0,1,.327-.563.644.644,0,0,1,.327.563H72.2v1.31a.655.655,0,0,1,.463.192A.655.655,0,0,1,72.85-277.878Z" transform="translate(-63.028 -213.824)" fill="#f5f5f5"/>
    <path id="Trazado_24194" data-name="Trazado 24194" d="M362.984-255.345a.655.655,0,0,0-.655-.655h-3.274a.655.655,0,0,0-.655.655v1.31a.655.655,0,0,0,.655.655h3.274a.655.655,0,0,0,.655-.655Z" transform="translate(-330.898 -236.356)" fill="#f5f5f5" fill-rule="evenodd"/>
    <path id="Trazado_24195" data-name="Trazado 24195" d="M213.185-267.409l-2.377,2.855.655-1.964h-3.051a.655.655,0,0,1-.523-.266.655.655,0,0,1-.1-.578l1.572-5.238a.646.646,0,0,1,.622-.465h.6a.655.655,0,0,1,.523.267.655.655,0,0,1,.1.578l-.864,2.894a.655.655,0,0,0,.1.578.655.655,0,0,0,.523.267h1.716a.655.655,0,0,1,.594.376A.655.655,0,0,1,213.185-267.409Z" transform="translate(-191.819 -220.599)" fill="#e7ecfb"/>
    <path id="Trazado_24196" data-name="Trazado 24196" d="M53.164-109.623h-1.31a.655.655,0,0,1-.655-.655.655.655,0,0,1,.655-.655h1.31a.655.655,0,0,1,.655.655A.655.655,0,0,1,53.164-109.623Z" transform="translate(-47.271 -370.291)" fill="#2b2e37"/>
    <path id="Trazado_24197" data-name="Trazado 24197" d="M107.638-109.623h-4.584a.655.655,0,0,1-.655-.655.655.655,0,0,1,.655-.655h4.584a.655.655,0,0,1,.655.655A.655.655,0,0,1,107.638-109.623Z" transform="translate(-94.542 -370.291)" fill="#2b2e37"/>
    <path id="Trazado_24198" data-name="Trazado 24198" d="M162.133-500.193v3.274H164.1v-3.274a3.274,3.274,0,0,1,3.274-3.274h-1.964A3.274,3.274,0,0,0,162.133-500.193Z" transform="translate(-149.692 -7.878)" fill="#fff"/>
    <path id="Trazado_24199" data-name="Trazado 24199" d="M68.267-474.6v1.31h1.964v-1.31a.655.655,0,0,1,.655-.655v-1.31a1.3,1.3,0,0,1,.327-.858,1.3,1.3,0,0,0-1.445-.369,1.3,1.3,0,0,0-.847,1.227v1.31A.655.655,0,0,0,68.267-474.6Z" transform="translate(-63.028 -31.51)" fill="#fff"/>
    <path id="Trazado_24200" data-name="Trazado 24200" d="M9.843-63.683h1.964a1.314,1.314,0,0,1-1.31-1.31v-3.274H9.843a1.314,1.314,0,0,0-1.31,1.31v1.964A1.314,1.314,0,0,0,9.843-63.683Z" transform="translate(-7.879 -409.684)" fill="#fff"/>
    <path id="Trazado_24201" data-name="Trazado 24201" d="M25.6-304.623h1.964v-19.644H25.6Z" transform="translate(-23.636 -173.328)" fill="#fff" fill-rule="evenodd"/>
    <path id="Trazado_24202" data-name="Trazado 24202" d="M10.5-410.93V-414.2a1.314,1.314,0,0,1,1.31-1.31v-1.964a.655.655,0,0,1,.655-.655H10.5a.655.655,0,0,0-.655.655v1.964a1.314,1.314,0,0,0-1.31,1.31v1.964a1.313,1.313,0,0,0,1.31,1.31Z" transform="translate(-7.879 -86.664)" fill="#fff"/>
    <path id="Trazado_24203" data-name="Trazado 24203" d="M201.095-268.925l5.449-6.539.142-.17.061-.074h-1.761a1.31,1.31,0,0,1-1.244-1.069,1.363,1.363,0,0,1-.006-.441,1.718,1.718,0,0,1,.046-.2l.031-.106.131-.424.507-1.693.131-.424.066-.212c0-.034.007-.01.012-.017-.016.006-.005,0-.008,0h-2.53c-.071,0-.014-.01-.039.013l-1.526,5.088c-.055.2-.044.121-.049.138.013,0,.009,0,.009,0h3.878c.023.01.107-.024.071.028l-.56,1.68-.562,1.688-1.12,3.359-1.244-.414,1.674-5.034h-2.137l-.166-.01a1.378,1.378,0,0,1-.327-.086,1.315,1.315,0,0,1-.8-1.018,1.235,1.235,0,0,1-.006-.34,1.508,1.508,0,0,1,.061-.28l.1-.327.781-2.6.589-1.953.1-.342a1.31,1.31,0,0,1,.965-.87,1.366,1.366,0,0,1,.308-.03h2.564a1.31,1.31,0,0,1,1.278,1.323,1.329,1.329,0,0,1-.047.335l-.052.176-.1.327-.589,1.953-.1.327-.043.143v0c0,.014,0-.01,0-.005h1.686a1.322,1.322,0,0,1,1.126.593,1.31,1.31,0,0,1,.079,1.3,1.458,1.458,0,0,1-.177.272l-.109.131-.088.106-.02.024-.04.048-.161.2-.643.772-4.584,5.5Z" transform="translate(-183.918 -212.718)" fill="#fff"/>
    <path id="Trazado_24204" data-name="Trazado 24204" d="M25.6-332.823H60.356c.417.009.873-.02,1.259.02v20.832c0,.052.017.123-.059.1H25.6v-1.31H60.3v-18.334H25.6Z" transform="translate(-23.636 -165.427)" fill="#fff"/>
    <path id="Trazado_24205" data-name="Trazado 24205" d="M18.376-324.267v19.644h-1.31v-19.644Z" transform="translate(-15.757 -173.327)" fill="#fff"/>
    <path id="Trazado_24206" data-name="Trazado 24206" d="M199.276-274.843c0,.026.012.051.018.077a1.3,1.3,0,0,0,.056.186c.012.031.026.062.041.092a1.37,1.37,0,0,0,.1.17c.011.015.017.033.028.048l.014.015a1.276,1.276,0,0,0,.164.179s.011.007.015.012c.024.02.049.037.074.056a1.3,1.3,0,0,0,.144.095,1.056,1.056,0,0,0,.1.05,1.255,1.255,0,0,0,.179.066c.024.007.045.016.066.022a1.211,1.211,0,0,0,.223.031h2.211l-1.006,3.019-.671,2.013a.655.655,0,0,0,.3.779.655.655,0,0,0,.822-.153l1.677-2.012,3.979-4.768,0-.007.012-.015a1.46,1.46,0,0,0,.122-.184c.012-.022.021-.047.032-.071s.026-.054.037-.083a1.308,1.308,0,0,0,.078-.282c0-.029,0-.057.007-.086a1.3,1.3,0,0,0,0-.267.217.217,0,0,0,0-.054v-.012a1.234,1.234,0,0,0-.1-.305c0-.009,0-.018-.008-.028s-.011-.013-.014-.021a1.321,1.321,0,0,0-.173-.265.621.621,0,0,0-.065-.065,1.326,1.326,0,0,0-.187-.161c-.021-.014-.039-.031-.061-.045a1.289,1.289,0,0,0-.282-.131l-.058-.018a1.149,1.149,0,0,0-.283-.046h-.039c-.007,0-.014,0-.021,0h-1.717l0-.018.864-2.881a.057.057,0,0,1,0-.025,1.514,1.514,0,0,0,.04-.223c0-.035.006-.07.007-.106,0-.016,0-.034,0-.05a1.182,1.182,0,0,0-.015-.145.221.221,0,0,0-.007-.065,1.264,1.264,0,0,0-.075-.25c-.011-.027-.026-.054-.039-.081a1.3,1.3,0,0,0-.091-.158c-.012-.018-.019-.037-.032-.055s-.02-.02-.029-.031a1.331,1.331,0,0,0-.147-.157c-.029-.026-.06-.049-.09-.073a1.284,1.284,0,0,0-.158-.1c-.028-.015-.056-.028-.085-.041a1.2,1.2,0,0,0-.176-.066c-.029-.009-.057-.018-.087-.024a.139.139,0,0,1-.02-.006,1.236,1.236,0,0,0-.22-.023h-2.612a1.291,1.291,0,0,0-.375.06c-.025.007-.047.018-.071.027a1.122,1.122,0,0,0-.3.157c-.016.011-.029.025-.044.037a1.255,1.255,0,0,0-.236.242c-.008.012-.019.022-.028.035a1.288,1.288,0,0,0-.175.36l0,.01-1.53,5.1a1.149,1.149,0,0,0-.039.128v.022a1.854,1.854,0,0,0-.04.225.887.887,0,0,0-.01.094A.928.928,0,0,0,199.276-274.843Zm3.781-5.447h1.637l-.869,2.9v.009c-.012.043-.029.113-.038.165a.4.4,0,0,1,0,.074.725.725,0,0,0-.007.1,1.433,1.433,0,0,0,.011.2.226.226,0,0,0,.007.066,1.188,1.188,0,0,0,.078.258c.007.017.016.033.024.049a1.254,1.254,0,0,0,.113.2c.009.012.014.026.023.039a.216.216,0,0,0,.019.02,1.39,1.39,0,0,0,.177.189c.025.021.052.037.079.057a1.307,1.307,0,0,0,.144.095c.03.016.06.031.091.046a1.245,1.245,0,0,0,.2.072c.016,0,.031.011.048.014a1.125,1.125,0,0,0,.248.032h1.759l-.059.072-.142.17-2.1,2.514-1.132,1.359.022-.065.2-.583.65-1.951.278-.834c.035-.052-.048-.018-.071-.028h-3.878l0-.016c.007-.016.016-.047.033-.112l1.529-5.1c.009-.008.007-.011,0-.012h.92Z" transform="translate(-183.973 -212.72)" fill="#418cff"/>
    <path id="Trazado_24207" data-name="Trazado 24207" d="M17.765-263.223a.689.689,0,0,0,.465-.19.664.664,0,0,0,0-.93l-.1-.079a.5.5,0,0,0-.118-.059.418.418,0,0,0-.118-.039.967.967,0,0,0-.131-.013.689.689,0,0,0-.465.19.676.676,0,0,0-.138.216.669.669,0,0,0,.138.714.677.677,0,0,0,.216.138A.655.655,0,0,0,17.765-263.223Z" transform="translate(-15.8 -228.478)" fill="#418cff"/>
    <path id="Trazado_24208" data-name="Trazado 24208" d="M37.978-502.712v-1.43a1.31,1.31,0,0,0-1.31-1.31H34.7v-.655a1.305,1.305,0,0,0-.655-1.128v-.837a1.964,1.964,0,0,0-1.964-1.964,1.964,1.964,0,0,0-1.964,1.964v.837a1.3,1.3,0,0,0-.655,1.128v.655H27.5v-2.619A3.933,3.933,0,0,0,23.573-512H15.715a3.933,3.933,0,0,0-3.929,3.929v2.619H9.822v-.655a1.3,1.3,0,0,0-.655-1.128v-.837A1.964,1.964,0,0,0,7.2-510.036a1.964,1.964,0,0,0-1.964,1.964v.837a1.3,1.3,0,0,0-.655,1.128v.655H2.619a1.31,1.31,0,0,0-1.31,1.31v1.43A1.964,1.964,0,0,0,0-500.868v1.964a1.965,1.965,0,0,0,1.31,1.844v2.085a.655.655,0,0,0,.655.655.655.655,0,0,0,.655-.655v-1.964h34.05v18.334H2.619v-11.132a.655.655,0,0,0-.655-.655.655.655,0,0,0-.655.655v11.252A1.964,1.964,0,0,0,0-476.641v1.964a1.964,1.964,0,0,0,1.964,1.964H37.324a1.964,1.964,0,0,0,1.964-1.964v-1.964a1.964,1.964,0,0,0-1.31-1.844V-497.06a1.965,1.965,0,0,0,1.31-1.844v-1.964A1.964,1.964,0,0,0,37.978-502.712Zm-1.31-1.43v1.31H34.7v-1.31Zm-5.893-1.964h2.619v3.274H30.776Zm.655-1.964a.655.655,0,0,1,.655-.655.655.655,0,0,1,.655.655v.655H31.43Zm-18.334,0a2.619,2.619,0,0,1,2.619-2.619h7.858a2.619,2.619,0,0,1,2.619,2.619v2.619h-1.31v-1.964a1.964,1.964,0,0,0-1.964-1.964H16.37a1.964,1.964,0,0,0-1.964,1.964v1.964H13.1Zm10.477,2.619H15.715v-1.964a.655.655,0,0,1,.655-.655h6.548a.655.655,0,0,1,.655.655Zm-13.751,1.31H29.466v1.31H9.822Zm-3.929-1.964H8.512v3.274H5.893Zm.655-1.964a.655.655,0,0,1,.655-.655.655.655,0,0,1,.655.655v.655H6.548Zm-3.929,3.929H4.584v1.31H2.619Zm35.359,29.466a.655.655,0,0,1-.655.655H1.964a.655.655,0,0,1-.655-.655v-1.964a.655.655,0,0,1,.655-.655H37.324a.655.655,0,0,1,.655.655Zm0-24.228a.655.655,0,0,1-.647.655c-.2,0-.413.006-.612,0H1.964a.655.655,0,0,1-.655-.655v-1.964a.655.655,0,0,1,.655-.655H37.324a.655.655,0,0,1,.655.655Z" fill="#418cff"/>
    <path id="Trazado_24209" data-name="Trazado 24209" d="M64.317-290.133h-1.31a1.31,1.31,0,0,0-1.31,1.31v.655h-.655a1.31,1.31,0,0,0-1.31,1.31v1.31a1.31,1.31,0,0,0,1.31,1.31H61.7v.655a1.31,1.31,0,0,0,1.31,1.31h1.31a1.31,1.31,0,0,0,1.31-1.31v-.655h.655a1.31,1.31,0,0,0,1.31-1.31v-1.31a1.31,1.31,0,0,0-1.31-1.31h-.655v-.655A1.31,1.31,0,0,0,64.317-290.133Zm1.964,3.274v1.31h-1.31a.655.655,0,0,0-.655.655v1.31h-1.31v-1.31a.655.655,0,0,0-.655-.655h-1.31v-1.31h1.31a.655.655,0,0,0,.655-.655v-1.31h1.31v1.31a.655.655,0,0,0,.655.655Z" transform="translate(-55.15 -204.842)" fill="#418cff"/>
    <path id="Trazado_24210" data-name="Trazado 24210" d="M356.415-260.6a1.31,1.31,0,0,0,1.31-1.31v-1.31a1.31,1.31,0,0,0-1.31-1.31h-5.238a1.31,1.31,0,0,0-1.31,1.31v1.31a1.31,1.31,0,0,0,1.31,1.31Zm-5.238-2.619h5.238v1.31h-5.238Z" transform="translate(-323.02 -228.478)" fill="#418cff"/>
    <path id="Trazado_24211" data-name="Trazado 24211" d="M51.2-110.278a.655.655,0,0,0,.655.655h1.31a.655.655,0,0,0,.655-.655.655.655,0,0,0-.655-.655h-1.31A.655.655,0,0,0,51.2-110.278Z" transform="translate(-47.271 -370.291)" fill="#418cff"/>
    <path id="Trazado_24212" data-name="Trazado 24212" d="M102.4-110.278a.655.655,0,0,0,.655.655h4.584a.655.655,0,0,0,.655-.655.655.655,0,0,0-.655-.655h-4.584A.655.655,0,0,0,102.4-110.278Z" transform="translate(-94.542 -370.291)" fill="#418cff"/>
  </g>
</svg>
