<svg xmlns="http://www.w3.org/2000/svg" width="39.288" height="37.324" viewBox="0 0 39.288 37.324">
  <g id="Grupo_2714" data-name="Grupo 2714" transform="translate(0 510.036)">
    <path id="Trazado_24174" data-name="Trazado 24174" d="M25.6-341.333v22.263H60.959v-22.263Z" transform="translate(-23.636 -157.571)" fill="#cad9fb"/>
    <path id="Trazado_24175" data-name="Trazado 24175" d="M25.6-341.333v22.263H58.995v-22.263Z" transform="translate(-23.636 -157.571)" fill="#e7ecfb"/>
    <path id="Trazado_24176" data-name="Trazado 24176" d="M78.11-477.867a1.31,1.31,0,0,1,1.31,1.31v1.964H76.8v-1.964A1.31,1.31,0,0,1,78.11-477.867Z" transform="translate(-70.907 -31.514)" fill="#e7ecfb"/>
    <path id="Trazado_24177" data-name="Trazado 24177" d="M402.377-477.867a1.31,1.31,0,0,1,1.31,1.31v1.964h-2.619v-1.964A1.31,1.31,0,0,1,402.377-477.867Z" transform="translate(-370.291 -31.514)" fill="#e7ecfb"/>
    <path id="Trazado_24180" data-name="Trazado 24180" d="M60.959-417.478v3.274H25.6v-3.274a.655.655,0,0,1,.655-.655H60.3A.655.655,0,0,1,60.959-417.478Z" transform="translate(-23.636 -86.664)" fill="#7eabfa"/>
    <path id="Trazado_24181" data-name="Trazado 24181" d="M58.995-417.478v3.274H25.6v-3.274a.655.655,0,0,1,.655-.655H58.34A.655.655,0,0,1,58.995-417.478Z" transform="translate(-23.636 -86.664)" fill="#a3c2f6"/>
    <path id="Trazado_24182" data-name="Trazado 24182" d="M72.2-443.078v5.238H68.267v-5.238a.655.655,0,0,1,.655-.655h2.619A.655.655,0,0,1,72.2-443.078Z" transform="translate(-63.028 -63.029)" fill="#7eabfa"/>
    <path id="Trazado_24183" data-name="Trazado 24183" d="M70.231-443.078v5.238H68.267v-5.238a.655.655,0,0,1,.655-.655h.655A.655.655,0,0,1,70.231-443.078Z" transform="translate(-63.028 -63.029)" fill="#a3c2f6"/>
    <path id="Trazado_24184" data-name="Trazado 24184" d="M396.462-443.078v5.238h-3.929v-5.238a.655.655,0,0,1,.655-.655h2.619A.655.655,0,0,1,396.462-443.078Z" transform="translate(-362.412 -63.029)" fill="#7eabfa"/>
    <path id="Trazado_24185" data-name="Trazado 24185" d="M394.5-443.078v5.238h-1.964v-5.238a.655.655,0,0,1,.655-.655h.655A.655.655,0,0,1,394.5-443.078Z" transform="translate(-362.412 -63.029)" fill="#a3c2f6"/>
    <path id="Trazado_24186" data-name="Trazado 24186" d="M46.512-382.69A1.31,1.31,0,0,0,45.2-384H9.843a1.31,1.31,0,0,0-1.31,1.31v1.964a1.31,1.31,0,0,0,1.31,1.31H45.2a1.31,1.31,0,0,0,1.31-1.31Z" transform="translate(-7.879 -118.178)" fill="#cad9fb" fill-rule="evenodd"/>
    <path id="Trazado_24187" data-name="Trazado 24187" d="M46.512-66.957a1.31,1.31,0,0,0-1.31-1.31H9.843a1.31,1.31,0,0,0-1.31,1.31v1.964a1.31,1.31,0,0,0,1.31,1.31H45.2a1.31,1.31,0,0,0,1.31-1.31Z" transform="translate(-7.879 -409.684)" fill="#cad9fb" fill-rule="evenodd"/>
    <path id="Trazado_24188" data-name="Trazado 24188" d="M44.547-382.69a1.31,1.31,0,0,0-1.31-1.31H9.843a1.31,1.31,0,0,0-1.31,1.31v1.964a1.31,1.31,0,0,0,1.31,1.31H43.238a1.31,1.31,0,0,0,1.31-1.31Z" transform="translate(-7.879 -118.178)" fill="#e7ecfb" fill-rule="evenodd"/>
    <path id="Trazado_24189" data-name="Trazado 24189" d="M44.547-66.957a1.31,1.31,0,0,0-1.31-1.31H9.843a1.31,1.31,0,0,0-1.31,1.31v1.964a1.31,1.31,0,0,0,1.31,1.31H43.238a1.31,1.31,0,0,0,1.31-1.31Z" transform="translate(-7.879 -409.684)" fill="#e7ecfb" fill-rule="evenodd"/>
    <path id="Trazado_24190" data-name="Trazado 24190" d="M74.815-278.981v1.31a.655.655,0,0,1-.655.655H72.85v1.31a.655.655,0,0,1-.655.655h-1.31a.632.632,0,0,1-.327-.092.644.644,0,0,1-.327-.563v-1.31h-1.31a.655.655,0,0,1-.655-.655v-1.31a.655.655,0,0,1,.655-.655h1.31v-1.31a.644.644,0,0,1,.327-.563.632.632,0,0,1,.327-.092H72.2a.655.655,0,0,1,.655.655v1.31h1.31A.655.655,0,0,1,74.815-278.981Z" transform="translate(-63.028 -212.72)" fill="#e7ecfb"/>
    <path id="Trazado_24191" data-name="Trazado 24191" d="M364.948-255.345a.655.655,0,0,0-.655-.655h-5.238a.655.655,0,0,0-.655.655v1.31a.655.655,0,0,0,.655.655h5.238a.655.655,0,0,0,.655-.655Z" transform="translate(-330.898 -236.356)" fill="#e7ecfb" fill-rule="evenodd"/>
    <path id="Trazado_24193" data-name="Trazado 24193" d="M72.85-277.878v1.31a.655.655,0,0,1-.655.655v1.31h-1.31a.644.644,0,0,1-.327.563.645.645,0,0,1-.327-.563v-1.31h-1.31a.655.655,0,0,1-.655-.655v-1.31a.655.655,0,0,1,.655-.655h1.31v-1.31a.644.644,0,0,1,.327-.563.644.644,0,0,1,.327.563H72.2v1.31a.655.655,0,0,1,.463.192A.655.655,0,0,1,72.85-277.878Z" transform="translate(-63.028 -213.824)" fill="#f5f5f5"/>
    <path id="Trazado_24194" data-name="Trazado 24194" d="M362.984-255.345a.655.655,0,0,0-.655-.655h-3.274a.655.655,0,0,0-.655.655v1.31a.655.655,0,0,0,.655.655h3.274a.655.655,0,0,0,.655-.655Z" transform="translate(-330.898 -236.356)" fill="#f5f5f5" fill-rule="evenodd"/>
    <path id="Trazado_24196" data-name="Trazado 24196" d="M53.164-109.623h-1.31a.655.655,0,0,1-.655-.655.655.655,0,0,1,.655-.655h1.31a.655.655,0,0,1,.655.655A.655.655,0,0,1,53.164-109.623Z" transform="translate(-47.271 -370.291)" fill="#2b2e37"/>
    <path id="Trazado_24197" data-name="Trazado 24197" d="M107.638-109.623h-4.584a.655.655,0,0,1-.655-.655.655.655,0,0,1,.655-.655h4.584a.655.655,0,0,1,.655.655A.655.655,0,0,1,107.638-109.623Z" transform="translate(-94.542 -370.291)" fill="#2b2e37"/>
    <path id="Trazado_24199" data-name="Trazado 24199" d="M68.267-474.6v1.31h1.964v-1.31a.655.655,0,0,1,.655-.655v-1.31a1.3,1.3,0,0,1,.327-.858,1.3,1.3,0,0,0-1.445-.369,1.3,1.3,0,0,0-.847,1.227v1.31A.655.655,0,0,0,68.267-474.6Z" transform="translate(-63.028 -31.51)" fill="#fff"/>
    <path id="Trazado_24200" data-name="Trazado 24200" d="M9.843-63.683h1.964a1.314,1.314,0,0,1-1.31-1.31v-3.274H9.843a1.314,1.314,0,0,0-1.31,1.31v1.964A1.314,1.314,0,0,0,9.843-63.683Z" transform="translate(-7.879 -409.684)" fill="#fff"/>
    <path id="Trazado_24201" data-name="Trazado 24201" d="M25.6-304.623h1.964v-19.644H25.6Z" transform="translate(-23.636 -173.328)" fill="#fff" fill-rule="evenodd"/>
    <path id="Trazado_24202" data-name="Trazado 24202" d="M10.5-410.93V-414.2a1.314,1.314,0,0,1,1.31-1.31v-1.964a.655.655,0,0,1,.655-.655H10.5a.655.655,0,0,0-.655.655v1.964a1.314,1.314,0,0,0-1.31,1.31v1.964a1.313,1.313,0,0,0,1.31,1.31Z" transform="translate(-7.879 -86.664)" fill="#fff"/>
    <path id="Trazado_24204" data-name="Trazado 24204" d="M25.6-332.823H60.356c.417.009.873-.02,1.259.02v20.832c0,.052.017.123-.059.1H25.6v-1.31H60.3v-18.334H25.6Z" transform="translate(-23.636 -165.427)" fill="#fff"/>
    <path id="Trazado_24205" data-name="Trazado 24205" d="M18.376-324.267v19.644h-1.31v-19.644Z" transform="translate(-15.757 -173.327)" fill="#fff"/>
    <path id="Trazado_24207" data-name="Trazado 24207" d="M17.765-263.223a.689.689,0,0,0,.465-.19.664.664,0,0,0,0-.93l-.1-.079a.5.5,0,0,0-.118-.059.418.418,0,0,0-.118-.039.967.967,0,0,0-.131-.013.689.689,0,0,0-.465.19.676.676,0,0,0-.138.216.669.669,0,0,0,.138.714.677.677,0,0,0,.216.138A.655.655,0,0,0,17.765-263.223Z" transform="translate(-15.8 -228.478)" fill="#418cff"/>
    <path id="Trazado_24208" data-name="Trazado 24208" d="M37.978-502.712v-1.43a1.31,1.31,0,0,0-1.31-1.31H34.7v-.655a1.305,1.305,0,0,0-.655-1.128v-.837a1.964,1.964,0,0,0-1.964-1.964,1.964,1.964,0,0,0-1.964,1.964v.837a1.3,1.3,0,0,0-.655,1.128v.655H9.822v-.655a1.3,1.3,0,0,0-.655-1.128v-.837A1.964,1.964,0,0,0,7.2-510.036a1.964,1.964,0,0,0-1.964,1.964v.837a1.3,1.3,0,0,0-.655,1.128v.655H2.619a1.31,1.31,0,0,0-1.31,1.31v1.43A1.964,1.964,0,0,0,0-500.868v1.964a1.965,1.965,0,0,0,1.31,1.844v2.085a.655.655,0,0,0,.655.655.655.655,0,0,0,.655-.655v-1.964h34.05v18.334H2.619v-11.132a.655.655,0,0,0-.655-.655.655.655,0,0,0-.655.655v11.252A1.964,1.964,0,0,0,0-476.641v1.964a1.964,1.964,0,0,0,1.964,1.964H37.324a1.964,1.964,0,0,0,1.964-1.964v-1.964a1.964,1.964,0,0,0-1.31-1.844V-497.06a1.965,1.965,0,0,0,1.31-1.844v-1.964A1.964,1.964,0,0,0,37.978-502.712Zm-1.31-1.43v1.31H34.7v-1.31Zm-5.893-1.964h2.619v3.274H30.776Zm.655-1.964a.655.655,0,0,1,.655-.655.655.655,0,0,1,.655.655v.655H31.43ZM9.822-504.142H29.466v1.31H9.822Zm-3.929-1.964H8.512v3.274H5.893Zm.655-1.964a.655.655,0,0,1,.655-.655.655.655,0,0,1,.655.655v.655H6.548Zm-3.929,3.929H4.584v1.31H2.619Zm35.359,29.466a.655.655,0,0,1-.655.655H1.964a.655.655,0,0,1-.655-.655v-1.964a.655.655,0,0,1,.655-.655H37.324a.655.655,0,0,1,.655.655Zm0-24.228a.655.655,0,0,1-.647.655c-.2,0-.413.006-.612,0H1.964a.655.655,0,0,1-.655-.655v-1.964a.655.655,0,0,1,.655-.655H37.324a.655.655,0,0,1,.655.655Z" fill="#418cff"/>
    <path id="Trazado_24209" data-name="Trazado 24209" d="M64.317-290.133h-1.31a1.31,1.31,0,0,0-1.31,1.31v.655h-.655a1.31,1.31,0,0,0-1.31,1.31v1.31a1.31,1.31,0,0,0,1.31,1.31H61.7v.655a1.31,1.31,0,0,0,1.31,1.31h1.31a1.31,1.31,0,0,0,1.31-1.31v-.655h.655a1.31,1.31,0,0,0,1.31-1.31v-1.31a1.31,1.31,0,0,0-1.31-1.31h-.655v-.655A1.31,1.31,0,0,0,64.317-290.133Zm1.964,3.274v1.31h-1.31a.655.655,0,0,0-.655.655v1.31h-1.31v-1.31a.655.655,0,0,0-.655-.655h-1.31v-1.31h1.31a.655.655,0,0,0,.655-.655v-1.31h1.31v1.31a.655.655,0,0,0,.655.655Z" transform="translate(-55.15 -204.842)" fill="#418cff"/>
    <path id="Trazado_24210" data-name="Trazado 24210" d="M356.415-260.6a1.31,1.31,0,0,0,1.31-1.31v-1.31a1.31,1.31,0,0,0-1.31-1.31h-5.238a1.31,1.31,0,0,0-1.31,1.31v1.31a1.31,1.31,0,0,0,1.31,1.31Zm-5.238-2.619h5.238v1.31h-5.238Z" transform="translate(-323.02 -228.478)" fill="#418cff"/>
    <path id="Trazado_24211" data-name="Trazado 24211" d="M51.2-110.278a.655.655,0,0,0,.655.655h1.31a.655.655,0,0,0,.655-.655.655.655,0,0,0-.655-.655h-1.31A.655.655,0,0,0,51.2-110.278Z" transform="translate(-47.271 -370.291)" fill="#418cff"/>
    <path id="Trazado_24212" data-name="Trazado 24212" d="M102.4-110.278a.655.655,0,0,0,.655.655h4.584a.655.655,0,0,0,.655-.655.655.655,0,0,0-.655-.655h-4.584A.655.655,0,0,0,102.4-110.278Z" transform="translate(-94.542 -370.291)" fill="#418cff"/>
  </g>
</svg>
