<svg xmlns="http://www.w3.org/2000/svg" xmlns:xlink="http://www.w3.org/1999/xlink" width="42.885" height="42.884" viewBox="0 0 42.885 42.884">
  <defs>
    <clipPath id="clip-path">
      <path id="Trazado_24497" data-name="Trazado 24497" d="M86.9-438.637H81.013a3.581,3.581,0,0,0-3.438,2.595l-2.116,7.412a2.859,2.859,0,0,0-2.859,2.859v.7a13.58,13.58,0,0,1-12.857-14.036,13.58,13.58,0,0,1,13.807-13.1A13.58,13.58,0,0,1,86.9-438.637Z" transform="translate(-59.735 452.213)" fill="none"/>
    </clipPath>
    <linearGradient id="linear-gradient" x1="0.209" y1="0.5" x2="0.592" y2="0.5" gradientUnits="objectBoundingBox">
      <stop offset="0" stop-color="#d3def1"/>
      <stop offset="0.1" stop-color="#d3def1"/>
      <stop offset="0.2" stop-color="#d9e2f1"/>
      <stop offset="0.3" stop-color="#d3def1"/>
      <stop offset="0.4" stop-color="#d3def1"/>
      <stop offset="0.5" stop-color="#d5dff1"/>
      <stop offset="0.6" stop-color="#d3def1"/>
      <stop offset="0.7" stop-color="#d3def1"/>
      <stop offset="0.8" stop-color="#fff2f1"/>
      <stop offset="0.9" stop-color="#d3def1"/>
      <stop offset="1" stop-color="#d3def1"/>
    </linearGradient>
    <clipPath id="clip-path-2">
      <path id="Trazado_24501" data-name="Trazado 24501" d="M266.053-280.127H247.47l.715-2.5,1.4-4.91a3.581,3.581,0,0,1,3.438-2.595H260.5a3.6,3.6,0,0,1,3.438,2.595l1.4,4.91Z" transform="translate(-247.47 290.133)" fill="none"/>
    </clipPath>
    <linearGradient id="linear-gradient-2" x1="0.506" y1="0.449" x2="0.792" y2="0.449" xlink:href="#linear-gradient"/>
  </defs>
  <g id="Grupo_2661" data-name="Grupo 2661" transform="translate(0 512)">
    <path id="Trazado_24488" data-name="Trazado 24488" d="M237.638-167.808v4.288a1.434,1.434,0,0,1-1.43,1.429H214.766a1.429,1.429,0,0,1-1.244-.729,1.367,1.367,0,0,1-.186-.7v-4.288a2.859,2.859,0,0,1,2.859-2.859h18.583A2.859,2.859,0,0,1,237.638-167.808Z" transform="translate(-195.468 -312.743)" fill="#e7ecfb"/>
    <path id="Trazado_24489" data-name="Trazado 24489" d="M445.881-170.667h-2.144a2.859,2.859,0,0,1,2.859,2.859v4.288a1.434,1.434,0,0,1-1.43,1.429h2.144a1.434,1.434,0,0,0,1.43-1.429v-4.288A2.859,2.859,0,0,0,445.881-170.667Z" transform="translate(-406.57 -312.743)" fill="#cad9fb"/>
    <path id="Trazado_24490" data-name="Trazado 24490" d="M233.977-68.267v3.574a1.434,1.434,0,0,1-1.43,1.429h-.715a1.434,1.434,0,0,1-1.43-1.429v-3.574Z" transform="translate(-211.105 -406.567)" fill="#a3c2f6"/>
    <path id="Trazado_24491" data-name="Trazado 24491" d="M447.311-68.267v3.574a1.434,1.434,0,0,1-1.429,1.429h-.715a1.434,1.434,0,0,1-1.429-1.429v-3.574Z" transform="translate(-406.57 -406.567)" fill="#a3c2f6"/>
    <path id="Trazado_24492" data-name="Trazado 24492" d="M252.473-135.818a.715.715,0,0,0-.715-.715h-3.574a.715.715,0,0,0-.715.715v1.43a.715.715,0,0,0,.715.715h3.574a.715.715,0,0,0,.715-.715Z" transform="translate(-226.742 -344.018)" fill="#e7ecfb" fill-rule="evenodd"/>
    <path id="Trazado_24493" data-name="Trazado 24493" d="M414.606-135.818a.715.715,0,0,0-.715-.715h-3.574a.715.715,0,0,0-.715.715v1.43a.715.715,0,0,0,.715.715h3.574a.715.715,0,0,0,.715-.715Z" transform="translate(-375.295 -344.018)" fill="#e7ecfb" fill-rule="evenodd"/>
    <path id="Trazado_24494" data-name="Trazado 24494" d="M44.273-485.669c0,.4-.014.793-.043,1.186a3.568,3.568,0,0,0-2.652-1.186H39.984A13.58,13.58,0,0,0,26.64-499.243a13.58,13.58,0,0,0-13.807,13.1A13.58,13.58,0,0,0,25.69-472.1v3.588a1.367,1.367,0,0,0,.186.7A17.868,17.868,0,0,1,8.539-486.03a17.869,17.869,0,0,1,18.046-17.513A17.868,17.868,0,0,1,44.273-485.669Z" transform="translate(-7.821 -7.748)" fill="#e7ecfb"/>
    <path id="Trazado_24495" data-name="Trazado 24495" d="M210.142-503.467c-.357,0-.715.014-1.072.035a17.864,17.864,0,0,1,16.8,17.834v.048a3.579,3.579,0,0,1,2.1,1.139c.029-.393.043-.786.043-1.186a17.869,17.869,0,0,0-5.234-12.635A17.868,17.868,0,0,0,210.142-503.467Z" transform="translate(-191.559 -7.818)" fill="#cad9fb"/>
    <g id="Grupo_2658" data-name="Grupo 2658" transform="translate(5.003 -506.992)" clip-path="url(#clip-path)">
      <g id="Grupo_2657" data-name="Grupo 2657" transform="matrix(0.707, 0.707, -0.707, 0.707, 16.439, -26.45)">
        <path id="Trazado_24496" data-name="Trazado 24496" d="M0,30.324,30.324,0,60.648,30.324,30.324,60.648Z" transform="translate(0 0)" fill="url(#linear-gradient)"/>
      </g>
    </g>
    <path id="Trazado_24498" data-name="Trazado 24498" d="M192.712-287.538l-2.116,7.412a2.859,2.859,0,0,0-2.859,2.859v.4a13.488,13.488,0,0,0,2.144.3v-.7a2.859,2.859,0,0,1,2.859-2.859l2.116-7.412a3.581,3.581,0,0,1,3.438-2.595h-2.144A3.581,3.581,0,0,0,192.712-287.538Z" transform="translate(-172.012 -203.284)" fill="#cad9fb"/>
    <path id="Trazado_24499" data-name="Trazado 24499" d="M210.142-452.267c-.362,0-.715.026-1.072.054a13.576,13.576,0,0,1,12.508,13.526h2.144a13.58,13.58,0,0,0-3.977-9.6A13.58,13.58,0,0,0,210.142-452.267Z" transform="translate(-191.559 -54.73)" fill="#a3c2f6"/>
    <g id="Grupo_2660" data-name="Grupo 2660" transform="translate(20.728 -493.417)" clip-path="url(#clip-path-2)">
      <g id="Grupo_2659" data-name="Grupo 2659" transform="translate(0.716 -40.026) rotate(45.002)">
        <path id="Trazado_24500" data-name="Trazado 24500" d="M0,30.325,30.323,0,60.648,30.323,30.325,60.648Z" transform="translate(0 0)" fill="url(#linear-gradient-2)"/>
      </g>
    </g>
    <path id="Trazado_24502" data-name="Trazado 24502" d="M384.416-282.628l-1.4-4.91a3.6,3.6,0,0,0-3.438-2.595h-2.144a3.6,3.6,0,0,1,3.438,2.595l1.4,4.91.715,2.5h2.144Z" transform="translate(-345.82 -203.284)" fill="#a3c2f6"/>
    <path id="Trazado_24503" data-name="Trazado 24503" d="M216.911-204.8v.357l-.715,2.5h-1.43a1.44,1.44,0,0,1-1.429-1.429,1.434,1.434,0,0,1,1.429-1.43Z" transform="translate(-195.468 -281.469)" fill="#a3c2f6"/>
    <path id="Trazado_24504" data-name="Trazado 24504" d="M464.377-203.37a1.44,1.44,0,0,1-1.429,1.429h-1.429l-.715-2.5v-.357h2.144A1.434,1.434,0,0,1,464.377-203.37Z" transform="translate(-422.207 -281.469)" fill="#a3c2f6"/>
    <path id="Trazado_24505" data-name="Trazado 24505" d="M27.693-467.744a1.43,1.43,0,0,0,1.244.729v3.574a1.434,1.434,0,0,0,1.43,1.429h.715a1.412,1.412,0,0,0,.715-.2,1.429,1.429,0,0,1-.715-1.23v-3.574a1.43,1.43,0,0,1-1.244-.729,17.864,17.864,0,0,1-17.344-17.587,17.863,17.863,0,0,1,16.808-18.1c-.357-.021-.716-.034-1.079-.034a17.869,17.869,0,0,0-17.7,17.6A17.869,17.869,0,0,0,27.693-467.744Z" transform="translate(-9.638 -7.818)" fill="#fff"/>
    <path id="Trazado_24506" data-name="Trazado 24506" d="M.955-359.91l1.358.45a18.436,18.436,0,0,0-.88,5.395H0A19.842,19.842,0,0,1,.955-359.91Z" transform="translate(-0.003 -139.351)" fill="#fff"/>
    <path id="Trazado_24507" data-name="Trazado 24507" d="M243.94-145.067h-3.574a1.429,1.429,0,0,0-1.429,1.43v1.43a1.429,1.429,0,0,0,1.429,1.429h3.574a1.429,1.429,0,0,0,1.43-1.429v-1.43A1.43,1.43,0,0,0,243.94-145.067Zm-3.574,2.859v-1.43h3.574v1.43Z" transform="translate(-218.924 -336.199)" fill="#418cff"/>
    <path id="Trazado_24508" data-name="Trazado 24508" d="M406.073-145.067H402.5a1.429,1.429,0,0,0-1.43,1.43v1.43a1.429,1.429,0,0,0,1.43,1.429h3.574a1.429,1.429,0,0,0,1.43-1.429v-1.43A1.43,1.43,0,0,0,406.073-145.067Zm-3.574,2.859v-1.43h3.574v1.43Z" transform="translate(-367.477 -336.199)" fill="#418cff"/>
    <path id="Trazado_24509" data-name="Trazado 24509" d="M336.377-145.067h-2.859a.715.715,0,0,0-.715.715.715.715,0,0,0,.715.715h2.859a.715.715,0,0,0,.715-.715A.715.715,0,0,0,336.377-145.067Z" transform="translate(-304.928 -336.199)" fill="#418cff"/>
    <path id="Trazado_24510" data-name="Trazado 24510" d="M336.377-110.933h-2.859a.715.715,0,0,0-.715.715.715.715,0,0,0,.715.715h2.859a.715.715,0,0,0,.715-.715A.715.715,0,0,0,336.377-110.933Z" transform="translate(-304.928 -367.474)" fill="#418cff"/>
    <path id="Trazado_24511" data-name="Trazado 24511" d="M292.69-264.322a.715.715,0,0,0-1.011,0l-1.43,1.43a.715.715,0,0,0-.195.7.715.715,0,0,0,.51.51.715.715,0,0,0,.7-.195l1.43-1.429A.715.715,0,0,0,292.69-264.322Z" transform="translate(-265.739 -226.741)" fill="#418cff"/>
    <path id="Trazado_24512" data-name="Trazado 24512" d="M311.605-264.228l-4.288,4.288a.714.714,0,0,0-.195.7.714.714,0,0,0,.51.51.715.715,0,0,0,.7-.195l4.288-4.288a.715.715,0,0,0-.009-1A.715.715,0,0,0,311.605-264.228Z" transform="translate(-281.376 -226.835)" fill="#418cff"/>
    <path id="Trazado_24513" data-name="Trazado 24513" d="M42.885-484.84a2.144,2.144,0,0,0-2.144-2.144H39.034l-1.152-4.037a4.234,4.234,0,0,0-.748-1.442c.016-.316.033-.632.033-.953A18.6,18.6,0,0,0,18.584-512a20.185,20.185,0,0,0-5.718.9,18.692,18.692,0,0,0-5.154,2.626,17.67,17.67,0,0,0-4.1,4.074,18.1,18.1,0,0,0-2.661,5.135.694.694,0,0,0,.035.557.694.694,0,0,0,.434.351.738.738,0,0,0,.887-.458,16.671,16.671,0,0,1,2.457-4.738,16.272,16.272,0,0,1,3.788-3.762,17.3,17.3,0,0,1,4.755-2.424,18.773,18.773,0,0,1,5.278-.835,17.172,17.172,0,0,1,17.148,16.928,4.261,4.261,0,0,0-1.975-.489h-.915a14.17,14.17,0,0,0-1.855-6.361.618.618,0,0,0-.024-.072.734.734,0,0,0-.062-.071,14.384,14.384,0,0,0-5.1-5.1.751.751,0,0,0-.072-.062.665.665,0,0,0-.071-.024,14.184,14.184,0,0,0-14.152,0,.622.622,0,0,0-.071.024.731.731,0,0,0-.072.062,14.381,14.381,0,0,0-5.1,5.1.6.6,0,0,0-.063.071.635.635,0,0,0-.024.072,14.2,14.2,0,0,0,.008,14.177c.007.015.007.032.016.047a.568.568,0,0,0,.047.06,14.245,14.245,0,0,0,10.9,7v2.878A17.044,17.044,0,0,1,1.43-493.417a.715.715,0,0,0-.715-.715.715.715,0,0,0-.715.715,18.467,18.467,0,0,0,17.684,18.55,2.136,2.136,0,0,0,.9.616v2.991a2.144,2.144,0,0,0,2.144,2.144h.715a2.144,2.144,0,0,0,2.144-2.144v-2.859H36.452v2.859a2.144,2.144,0,0,0,2.144,2.144h.715a2.144,2.144,0,0,0,2.144-2.144v-2.991a2.144,2.144,0,0,0,1.429-2.013v-4.288a3.557,3.557,0,0,0-1.006-2.476,2.018,2.018,0,0,0,.368-.293A2.1,2.1,0,0,0,42.885-484.84Zm-2.144-.715a.715.715,0,0,1,.715.715.7.7,0,0,1-.219.509.684.684,0,0,1-.5.206h-.89l-.409-1.43Zm-4.236-5.075,1.858,6.5H21.676l1.858-6.5a2.872,2.872,0,0,1,2.748-2.073h7.475A2.87,2.87,0,0,1,36.505-490.629ZM18.584-484.84a.715.715,0,0,1,.715-.715h1.3l-.408,1.43H19.3a.7.7,0,0,1-.509-.219A.684.684,0,0,1,18.584-484.84ZM7.815-486.374l.6-.349a.715.715,0,0,0,.362-.62.715.715,0,0,0-.359-.621.715.715,0,0,0-.717,0l-.6.347A12.816,12.816,0,0,1,5.753-492.7h.68a.715.715,0,0,0,.715-.715.715.715,0,0,0-.715-.715H5.755a12.761,12.761,0,0,1,1.358-5.082l.59.34a.715.715,0,0,0,.717,0,.715.715,0,0,0,.359-.621.715.715,0,0,0-.361-.62l-.592-.342a12.948,12.948,0,0,1,3.722-3.722l.342.592a.715.715,0,0,0,.62.362.715.715,0,0,0,.621-.359.715.715,0,0,0,0-.717l-.34-.59a12.759,12.759,0,0,1,5.083-1.359v.678a.715.715,0,0,0,.715.715.715.715,0,0,0,.715-.715v-.678a12.759,12.759,0,0,1,5.082,1.358l-.34.59a.715.715,0,0,0,0,.717.715.715,0,0,0,.621.359.715.715,0,0,0,.62-.361l.342-.592a12.948,12.948,0,0,1,3.722,3.722l-.592.342a.715.715,0,0,0-.362.62.715.715,0,0,0,.359.621.715.715,0,0,0,.717,0l.59-.34a12.76,12.76,0,0,1,1.358,5.082h-5.13a4.307,4.307,0,0,0-4.125,3.111l-1.152,4.037H19.3a2.144,2.144,0,0,0-2.144,2.144,2.137,2.137,0,0,0,1.008,1.811,3.553,3.553,0,0,0-1,2.389,12.743,12.743,0,0,1-4.382-1.3l.346-.6a.715.715,0,0,0,0-.717.714.714,0,0,0-.621-.359.715.715,0,0,0-.62.361l-.345.6A12.891,12.891,0,0,1,7.815-486.374ZM22.157-471.26a.715.715,0,0,1-.715.715h-.715a.715.715,0,0,1-.715-.715v-2.859h2.144Zm17.869,0a.715.715,0,0,1-.715.715H38.6a.715.715,0,0,1-.715-.715v-2.859h2.144Zm1.43-5a.715.715,0,0,1-.715.715H19.3a.715.715,0,0,1-.715-.715v-4.288a2.144,2.144,0,0,1,2.144-2.144H39.311a2.144,2.144,0,0,1,2.144,2.144Z" fill="#418cff"/>
    <path id="Trazado_24514" data-name="Trazado 24514" d="M137.25-395.305a.715.715,0,0,0,.347-.09l6.433-3.574a.715.715,0,0,0,.368-.625v-9.292a.715.715,0,0,0-.715-.715.715.715,0,0,0-.715.715v8.871l-6.065,3.369a.715.715,0,0,0-.345.8A.715.715,0,0,0,137.25-395.305Z" transform="translate(-125.099 -93.823)" fill="#418cff"/>
    <path id="Trazado_24515" data-name="Trazado 24515" d="M3.794-331.259a.715.715,0,0,1-.718-.711.715.715,0,0,1,.711-.718h.007a.715.715,0,0,1,.715.715A.715.715,0,0,1,3.794-331.259Z" transform="translate(-2.818 -164.292)" fill="#418cff"/>
  </g>
</svg>
