<svg xmlns="http://www.w3.org/2000/svg" width="37.388" height="37.127" viewBox="0 0 37.388 37.127">
  <g id="Grupo_2720" data-name="Grupo 2720" transform="translate(0 421.673)">
    <path id="Trazado_24806" data-name="Trazado 24806" d="M168.585-408.722a.9.9,0,0,0,.9-.9.9.9,0,0,0-.9-.9h-5.054v-3.813h5.054a.9.9,0,0,0,.9-.9.9.9,0,0,0-.9-.9h-5.054v-3.135a2.388,2.388,0,0,0-2.385-2.385,2.388,2.388,0,0,0-2.385,2.385v21.76a3.717,3.717,0,0,0-1.364,2.889,3.753,3.753,0,0,0,3.749,3.748,3.753,3.753,0,0,0,3.749-3.748,3.717,3.717,0,0,0-1.364-2.889V-403.1h5.054a.9.9,0,0,0,.9-.9.9.9,0,0,0-.9-.9h-5.054v-3.813ZM161.146-392.7a1.942,1.942,0,0,1-1.941-1.94,1.927,1.927,0,0,1,.931-1.654.905.905,0,0,0,.432-.771v-22.224a.584.584,0,0,1,.577-.577.584.584,0,0,1,.577.577v22.224a.9.9,0,0,0,.432.771,1.928,1.928,0,0,1,.931,1.654A1.942,1.942,0,0,1,161.146-392.7Z" transform="translate(-143.538 0)" fill="#fff"/>
    <path id="Trazado_24807" data-name="Trazado 24807" d="M185.056-394.185a.9.9,0,0,0,.9-.9.9.9,0,0,0-.9-.9H180v-3.813h5.054a.9.9,0,0,0,.9-.9.9.9,0,0,0-.9-.9H180v-3.135a2.388,2.388,0,0,0-2.385-2.385,2.388,2.388,0,0,0-2.385,2.385v21.759a3.717,3.717,0,0,0-1.363,2.889,3.753,3.753,0,0,0,3.749,3.749,3.753,3.753,0,0,0,3.749-3.749A3.717,3.717,0,0,0,180-382.991v-5.572h5.054a.9.9,0,0,0,.9-.9.9.9,0,0,0-.9-.9H180v-3.813Zm-7.439,16.023a1.942,1.942,0,0,1-1.94-1.94,1.926,1.926,0,0,1,.931-1.654.905.905,0,0,0,.432-.771v-22.224a.584.584,0,0,1,.577-.577.584.584,0,0,1,.577.577v22.224a.9.9,0,0,0,.432.771,1.928,1.928,0,0,1,.931,1.654A1.942,1.942,0,0,1,177.617-378.162Z" transform="translate(-158.559 -13.257)" fill="#a3c2f6"/>
    <path id="Trazado_24808" data-name="Trazado 24808" d="M186.407-380.319a2.52,2.52,0,0,1,1.151,2.116,2.52,2.52,0,0,1-1.151,2.116v.207h-.39a2.51,2.51,0,0,1-.98.2,2.511,2.511,0,0,1-.98-.2h-.416v-.224a2.519,2.519,0,0,1-1.125-2.1,2.519,2.519,0,0,1,1.125-2.1v-23.829h2.766Z" transform="translate(-166.446 -15.997)" fill="#e7ecfb" fill-rule="evenodd"/>
    <path id="Trazado_24809" data-name="Trazado 24809" d="M179.31-405.3a.9.9,0,0,0,.9-.9.9.9,0,0,0-.9-.9h-5.054v-3.813h5.054a.9.9,0,0,0,.9-.9.9.9,0,0,0-.9-.9h-5.054v-3.135a2.388,2.388,0,0,0-2.385-2.385,2.388,2.388,0,0,0-2.385,2.385v21.76a3.717,3.717,0,0,0-1.364,2.889,3.753,3.753,0,0,0,3.749,3.748,3.753,3.753,0,0,0,3.749-3.748,3.717,3.717,0,0,0-1.364-2.889v-5.572h5.054a.9.9,0,0,0,.9-.9.9.9,0,0,0-.9-.9h-5.054V-405.3Zm-7.439,16.023a1.942,1.942,0,0,1-1.94-1.94,1.926,1.926,0,0,1,.931-1.654.905.905,0,0,0,.432-.771v-22.224a.584.584,0,0,1,.577-.577.584.584,0,0,1,.577.577v22.224a.9.9,0,0,0,.432.771,1.928,1.928,0,0,1,.931,1.654A1.942,1.942,0,0,1,171.871-389.28Z" transform="translate(-153.319 -3.118)" fill="#418cff"/>
    <path id="Trazado_24810" data-name="Trazado 24810" d="M55.466-51.532a4.194,4.194,0,0,1-3.008-1.263,2.467,2.467,0,0,0-1.827-.823,2.467,2.467,0,0,0-1.827.823A4.191,4.191,0,0,1,45.8-51.532a4.193,4.193,0,0,1-3.008-1.263,2.465,2.465,0,0,0-1.826-.823,2.463,2.463,0,0,0-1.825.823,4.193,4.193,0,0,1-3.008,1.263,4.193,4.193,0,0,1-3.008-1.263,2.465,2.465,0,0,0-1.826-.823.9.9,0,0,1-.9-.9.9.9,0,0,1,.9-.9A4.193,4.193,0,0,1,34.3-54.164a2.466,2.466,0,0,0,1.826.823,2.463,2.463,0,0,0,1.825-.823,4.19,4.19,0,0,1,3.007-1.263,4.194,4.194,0,0,1,3.008,1.263,2.466,2.466,0,0,0,1.827.823,2.465,2.465,0,0,0,1.826-.823,4.194,4.194,0,0,1,3.008-1.263,4.194,4.194,0,0,1,3.008,1.263,2.467,2.467,0,0,0,1.827.823,2.467,2.467,0,0,0,1.827-.823A4.193,4.193,0,0,1,60.3-55.426a.9.9,0,0,1,.9.9.9.9,0,0,1-.9.9,2.467,2.467,0,0,0-1.827.823A4.192,4.192,0,0,1,55.466-51.532Z" transform="translate(-27.714 -333.999)" fill="#fff"/>
    <path id="Trazado_24811" data-name="Trazado 24811" d="M5.738-121.4a4.193,4.193,0,0,1-3.008-1.263A2.466,2.466,0,0,0,.9-123.484a.9.9,0,0,1-.9-.9.9.9,0,0,1,.9-.9,4.194,4.194,0,0,1,3.008,1.263,2.465,2.465,0,0,0,1.826.823,2.463,2.463,0,0,0,1.825-.823,4.19,4.19,0,0,1,3.007-1.263.9.9,0,0,1,.9.9.9.9,0,0,1-.9.9,2.463,2.463,0,0,0-1.825.823A4.193,4.193,0,0,1,5.738-121.4Z" transform="translate(0 -270.285)" fill="#fff"/>
    <path id="Trazado_24812" data-name="Trazado 24812" d="M286.157-121.4a4.192,4.192,0,0,1-3.008-1.263,2.467,2.467,0,0,0-1.827-.823.9.9,0,0,1-.9-.9.9.9,0,0,1,.9-.9,4.194,4.194,0,0,1,3.008,1.263,2.465,2.465,0,0,0,1.826.823,2.466,2.466,0,0,0,1.827-.823,4.193,4.193,0,0,1,3.008-1.263.9.9,0,0,1,.9.9.9.9,0,0,1-.9.9,2.466,2.466,0,0,0-1.827.823A4.192,4.192,0,0,1,286.157-121.4Z" transform="translate(-255.728 -270.285)" fill="#fff"/>
    <path id="Trazado_24813" data-name="Trazado 24813" d="M69.319-40.334A4.194,4.194,0,0,1,66.311-41.6a2.467,2.467,0,0,0-1.827-.823,2.467,2.467,0,0,0-1.827.823,4.191,4.191,0,0,1-3.008,1.263A4.193,4.193,0,0,1,56.641-41.6a2.465,2.465,0,0,0-1.826-.823,2.463,2.463,0,0,0-1.825.823,4.193,4.193,0,0,1-3.008,1.263A4.193,4.193,0,0,1,46.973-41.6a2.465,2.465,0,0,0-1.826-.823.9.9,0,0,1-.9-.9.9.9,0,0,1,.9-.9,4.193,4.193,0,0,1,3.008,1.263,2.466,2.466,0,0,0,1.827.823,2.463,2.463,0,0,0,1.825-.823,4.19,4.19,0,0,1,3.007-1.263,4.194,4.194,0,0,1,3.008,1.263,2.466,2.466,0,0,0,1.827.823,2.465,2.465,0,0,0,1.826-.823,4.194,4.194,0,0,1,3.008-1.263,4.194,4.194,0,0,1,3.008,1.263,2.467,2.467,0,0,0,1.827.823,2.467,2.467,0,0,0,1.827-.823,4.193,4.193,0,0,1,3.008-1.263.9.9,0,0,1,.9.9.9.9,0,0,1-.9.9,2.467,2.467,0,0,0-1.827.823A4.192,4.192,0,0,1,69.319-40.334Z" transform="translate(-40.347 -344.211)" fill="#a3c2f6"/>
    <path id="Trazado_24814" data-name="Trazado 24814" d="M19.592-110.2a4.193,4.193,0,0,1-3.008-1.263,2.466,2.466,0,0,0-1.826-.823.9.9,0,0,1-.9-.9.9.9,0,0,1,.9-.9,4.194,4.194,0,0,1,3.008,1.263,2.465,2.465,0,0,0,1.826.823,2.463,2.463,0,0,0,1.825-.823,4.191,4.191,0,0,1,3.007-1.263.9.9,0,0,1,.9.9.9.9,0,0,1-.9.9,2.463,2.463,0,0,0-1.825.823A4.194,4.194,0,0,1,19.592-110.2Z" transform="translate(-12.633 -280.497)" fill="#a3c2f6"/>
    <path id="Trazado_24815" data-name="Trazado 24815" d="M300.01-110.2A4.192,4.192,0,0,1,297-111.462a2.466,2.466,0,0,0-1.827-.823.9.9,0,0,1-.9-.9.9.9,0,0,1,.9-.9,4.194,4.194,0,0,1,3.008,1.263,2.465,2.465,0,0,0,1.826.823,2.465,2.465,0,0,0,1.827-.823,4.193,4.193,0,0,1,3.008-1.263.9.9,0,0,1,.9.9.9.9,0,0,1-.9.9,2.466,2.466,0,0,0-1.827.823A4.192,4.192,0,0,1,300.01-110.2Z" transform="translate(-268.361 -280.497)" fill="#a3c2f6"/>
    <path id="Trazado_24816" data-name="Trazado 24816" d="M60.853-47.809a4.194,4.194,0,0,1-3.008-1.263,2.467,2.467,0,0,0-1.827-.823,2.467,2.467,0,0,0-1.827.823,4.192,4.192,0,0,1-3.008,1.263,4.193,4.193,0,0,1-3.008-1.263,2.465,2.465,0,0,0-1.826-.823,2.463,2.463,0,0,0-1.825.823,4.194,4.194,0,0,1-3.008,1.263,4.193,4.193,0,0,1-3.008-1.263,2.465,2.465,0,0,0-1.827-.823.9.9,0,0,1-.9-.9.9.9,0,0,1,.9-.9,4.193,4.193,0,0,1,3.008,1.263,2.466,2.466,0,0,0,1.826.823,2.463,2.463,0,0,0,1.825-.823A4.19,4.19,0,0,1,46.348-51.7a4.194,4.194,0,0,1,3.008,1.263,2.466,2.466,0,0,0,1.826.823,2.465,2.465,0,0,0,1.827-.823A4.194,4.194,0,0,1,56.018-51.7a4.194,4.194,0,0,1,3.008,1.263,2.467,2.467,0,0,0,1.827.823,2.467,2.467,0,0,0,1.827-.823A4.193,4.193,0,0,1,65.689-51.7a.9.9,0,0,1,.9.9.9.9,0,0,1-.9.9,2.467,2.467,0,0,0-1.827.823A4.192,4.192,0,0,1,60.853-47.809Z" transform="translate(-32.627 -337.394)" fill="#418cff"/>
    <path id="Trazado_24817" data-name="Trazado 24817" d="M11.126-117.675a4.193,4.193,0,0,1-3.008-1.263,2.466,2.466,0,0,0-1.827-.823.9.9,0,0,1-.9-.9.9.9,0,0,1,.9-.9A4.194,4.194,0,0,1,9.3-120.306a2.465,2.465,0,0,0,1.826.823,2.463,2.463,0,0,0,1.825-.823,4.19,4.19,0,0,1,3.007-1.263.9.9,0,0,1,.9.9.9.9,0,0,1-.9.9,2.463,2.463,0,0,0-1.825.823A4.193,4.193,0,0,1,11.126-117.675Z" transform="translate(-4.913 -273.68)" fill="#418cff"/>
    <path id="Trazado_24818" data-name="Trazado 24818" d="M291.545-117.675a4.192,4.192,0,0,1-3.008-1.263,2.467,2.467,0,0,0-1.827-.823.9.9,0,0,1-.9-.9.9.9,0,0,1,.9-.9,4.194,4.194,0,0,1,3.008,1.263,2.465,2.465,0,0,0,1.826.823,2.465,2.465,0,0,0,1.826-.823,4.193,4.193,0,0,1,3.008-1.263.9.9,0,0,1,.9.9.9.9,0,0,1-.9.9,2.467,2.467,0,0,0-1.827.823A4.191,4.191,0,0,1,291.545-117.675Z" transform="translate(-260.641 -273.68)" fill="#418cff"/>
  </g>
</svg>
