<svg xmlns="http://www.w3.org/2000/svg" width="36" height="36" viewBox="0 0 36 36">
  <g id="Grupo_2666" data-name="Grupo 2666" transform="translate(0 512)">
    <path id="Trazado_24565" data-name="Trazado 24565" d="M10.934-503.467h30a2.4,2.4,0,0,1,2.4,2.4v30a2.4,2.4,0,0,1-2.4,2.4h-30a2.4,2.4,0,0,1-2.4-2.4v-30A2.4,2.4,0,0,1,10.934-503.467Z" transform="translate(-7.934 -7.933)" fill="#a3c2f6"/>
    <path id="Trazado_24566" data-name="Trazado 24566" d="M10.934-503.467h28.2a2.4,2.4,0,0,1,2.4,2.4v30a2.4,2.4,0,0,1-2.4,2.4h-28.2a2.4,2.4,0,0,1-2.4-2.4v-30A2.4,2.4,0,0,1,10.934-503.467Z" transform="translate(-7.934 -7.933)" fill="#e3e7f1"/>
    <path id="Trazado_24567" data-name="Trazado 24567" d="M72.667-454.334a15,15,0,0,1-4.393,10.607,15,15,0,0,1-10.607,4.393c-.3,0-.6-.006-.9-.03a15,15,0,0,1-14.1-14.97,15,15,0,0,1,14.1-14.97c.3-.024.6-.03.9-.03a15,15,0,0,1,10.607,4.393A15,15,0,0,1,72.667-454.334Z" transform="translate(-39.667 -39.666)" fill="#a3c2f6"/>
    <path id="Trazado_24568" data-name="Trazado 24568" d="M56.767-468.907c7.782,0,14.1,6.708,14.1,14.97s-6.318,14.97-14.1,14.97-14.1-6.708-14.1-14.97S48.985-468.907,56.767-468.907Z" transform="translate(-39.667 -40.063)" fill="#e3e7f1" fill-rule="evenodd"/>
    <path id="Trazado_24569" data-name="Trazado 24569" d="M102-422.6A12.614,12.614,0,0,1,89.4-410q-.459,0-.9-.036A12.6,12.6,0,0,1,76.8-422.6a12.6,12.6,0,0,1,11.7-12.564q.441-.036.9-.036A12.614,12.614,0,0,1,102-422.6Z" transform="translate(-71.4 -71.4)" fill="#a3c2f6"/>
    <path id="Trazado_24570" data-name="Trazado 24570" d="M88.5-434.688c6.457,0,11.7,5.63,11.7,12.564S94.957-409.56,88.5-409.56s-11.7-5.63-11.7-12.564S82.043-434.688,88.5-434.688Z" transform="translate(-71.4 -71.876)" fill="#e3e7f1" fill-rule="evenodd"/>
    <path id="Trazado_24571" data-name="Trazado 24571" d="M125.892-384.034l.006.006-2.958,2.136c-.678-.342-4.158-2.268-4.926-5.856-3.246,1.824-4,5.814-4.1,6.54H113.9l-2.94-2.154c.12-.75.864-4.656,4.05-6.492-2.748-2.526-6.768-2-7.488-1.884h-.006l1.134-3.468c.756-.114,4.692-.606,7.428,1.842,1.554-3.384-.18-7.05-.522-7.7v-.006l3.648.012c.342.678,2.034,4.272.54,7.632,3.7.426,6.654-2.352,7.164-2.874l.006-.006,1.116,3.474c-.534.534-3.444,3.258-7.1,2.874C121.68-386.3,125.238-384.358,125.892-384.034Z" transform="translate(-99.96 -103.132)" fill="#e3e7f1"/>
    <path id="Trazado_24572" data-name="Trazado 24572" d="M216.324-298.667a3,3,0,0,1,3,3,3,3,0,0,1-3,3,3,3,0,0,1-3-3A3,3,0,0,1,216.324-298.667Z" transform="translate(-198.325 -198.333)" fill="#a3c2f6" fill-rule="evenodd"/>
    <path id="Trazado_24573" data-name="Trazado 24573" d="M43.866-469.334a1.2,1.2,0,0,1,1.2,1.2,1.2,1.2,0,0,1-1.2,1.2,1.2,1.2,0,0,1-1.2-1.2A1.2,1.2,0,0,1,43.866-469.334Z" transform="translate(-39.666 -39.666)" fill="#a3c2f6" fill-rule="evenodd"/>
    <path id="Trazado_24574" data-name="Trazado 24574" d="M43.866-76.8a1.2,1.2,0,0,1,1.2,1.2,1.2,1.2,0,0,1-1.2,1.2,1.2,1.2,0,0,1-1.2-1.2A1.2,1.2,0,0,1,43.866-76.8Z" transform="translate(-39.666 -404.6)" fill="#a3c2f6" fill-rule="evenodd"/>
    <path id="Trazado_24575" data-name="Trazado 24575" d="M436.4-469.334a1.2,1.2,0,0,1,1.2,1.2,1.2,1.2,0,0,1-1.2,1.2,1.2,1.2,0,0,1-1.2-1.2A1.2,1.2,0,0,1,436.4-469.334Z" transform="translate(-404.6 -39.666)" fill="#a3c2f6" fill-rule="evenodd"/>
    <path id="Trazado_24576" data-name="Trazado 24576" d="M436.4-76.8a1.2,1.2,0,0,1,1.2,1.2,1.2,1.2,0,0,1-1.2,1.2,1.2,1.2,0,0,1-1.2-1.2A1.2,1.2,0,0,1,436.4-76.8Z" transform="translate(-404.6 -404.6)" fill="#a3c2f6" fill-rule="evenodd"/>
    <path id="Trazado_24577" data-name="Trazado 24577" d="M10.333-471.067v-30a2.4,2.4,0,0,1,.7-1.7,2.4,2.4,0,0,1,1.7-.7h-1.8a2.4,2.4,0,0,0-1.7.7,2.4,2.4,0,0,0-.7,1.7v30a2.4,2.4,0,0,0,.7,1.7,2.4,2.4,0,0,0,1.7.7h1.8a2.4,2.4,0,0,1-1.7-.7A2.4,2.4,0,0,1,10.333-471.067Z" transform="translate(-7.933 -7.933)" fill="#fff"/>
    <path id="Trazado_24578" data-name="Trazado 24578" d="M1.2-469.333v30H0v-30Z" transform="translate(0 -39.667)" fill="#fff"/>
    <path id="Trazado_24579" data-name="Trazado 24579" d="M.653-408.4a.632.632,0,0,0,.426-.174.608.608,0,0,0,0-.852L.99-409.5a.457.457,0,0,0-.108-.054.382.382,0,0,0-.108-.036.881.881,0,0,0-.12-.012.63.63,0,0,0-.426.174.619.619,0,0,0,0,.852.621.621,0,0,0,.2.126A.6.6,0,0,0,.653-408.4Z" transform="translate(-0.053 -95.199)" fill="#418cff"/>
    <path id="Trazado_24580" data-name="Trazado 24580" d="M33-512H3a3,3,0,0,0-3,3v2.4a.6.6,0,0,0,.6.6.6.6,0,0,0,.6-.6V-509A1.8,1.8,0,0,1,3-510.8H33a1.8,1.8,0,0,1,1.8,1.8v30a1.8,1.8,0,0,1-1.8,1.8H3A1.8,1.8,0,0,1,1.2-479v-22.8a.6.6,0,0,0-.6-.6.6.6,0,0,0-.6.6V-479a3,3,0,0,0,3,3H33a3,3,0,0,0,3-3v-30A3,3,0,0,0,33-512Z" fill="#418cff"/>
    <path id="Trazado_24581" data-name="Trazado 24581" d="M49.733-446.667a15.6,15.6,0,0,0,15.6-15.6,15.6,15.6,0,0,0-15.6-15.6,15.6,15.6,0,0,0-15.6,15.6A15.617,15.617,0,0,0,49.733-446.667Zm0-30a14.4,14.4,0,0,1,14.4,14.4,14.4,14.4,0,0,1-14.4,14.4,14.4,14.4,0,0,1-14.4-14.4A14.416,14.416,0,0,1,49.733-476.667Z" transform="translate(-31.733 -31.733)" fill="#418cff"/>
    <path id="Trazado_24582" data-name="Trazado 24582" d="M81.467-417.333a13.2,13.2,0,0,0,13.2-13.2,13.2,13.2,0,0,0-13.2-13.2,13.2,13.2,0,0,0-13.2,13.2A13.215,13.215,0,0,0,81.467-417.333Zm0-25.2a12,12,0,0,1,12,12,12,12,0,0,1-12,12,12,12,0,0,1-12-12A12.014,12.014,0,0,1,81.467-442.533Z" transform="translate(-63.467 -63.467)" fill="#418cff"/>
    <path id="Trazado_24583" data-name="Trazado 24583" d="M37.733-476.067a1.8,1.8,0,0,0-1.8-1.8,1.8,1.8,0,0,0-1.8,1.8,1.8,1.8,0,0,0,1.8,1.8A1.8,1.8,0,0,0,37.733-476.067Zm-2.4,0a.6.6,0,0,1,.6-.6.6.6,0,0,1,.6.6.6.6,0,0,1-.6.6A.6.6,0,0,1,35.333-476.067Z" transform="translate(-31.733 -31.733)" fill="#418cff"/>
    <path id="Trazado_24584" data-name="Trazado 24584" d="M35.933-81.733a1.8,1.8,0,0,0,1.8-1.8,1.8,1.8,0,0,0-1.8-1.8,1.8,1.8,0,0,0-1.8,1.8A1.8,1.8,0,0,0,35.933-81.733Zm0-2.4a.6.6,0,0,1,.6.6.6.6,0,0,1-.6.6.6.6,0,0,1-.6-.6A.6.6,0,0,1,35.933-84.133Z" transform="translate(-31.733 -396.667)" fill="#418cff"/>
    <path id="Trazado_24585" data-name="Trazado 24585" d="M430.267-476.067a1.8,1.8,0,0,0-1.8-1.8,1.8,1.8,0,0,0-1.8,1.8,1.8,1.8,0,0,0,1.8,1.8A1.8,1.8,0,0,0,430.267-476.067Zm-2.4,0a.6.6,0,0,1,.6-.6.6.6,0,0,1,.6.6.6.6,0,0,1-.6.6A.6.6,0,0,1,427.867-476.067Z" transform="translate(-396.667 -31.733)" fill="#418cff"/>
    <path id="Trazado_24586" data-name="Trazado 24586" d="M426.667-83.533a1.8,1.8,0,0,0,1.8,1.8,1.8,1.8,0,0,0,1.8-1.8,1.8,1.8,0,0,0-1.8-1.8A1.8,1.8,0,0,0,426.667-83.533Zm2.4,0a.6.6,0,0,1-.6.6.6.6,0,0,1-.6-.6.6.6,0,0,1,.6-.6A.6.6,0,0,1,429.067-83.533Z" transform="translate(-396.667 -396.667)" fill="#418cff"/>
    <path id="Trazado_24587" data-name="Trazado 24587" d="M99.374-399.1a.611.611,0,0,0,.3.025,9.312,9.312,0,0,1,6.374,1.25,10.535,10.535,0,0,0-3.628,6.441.6.6,0,0,0,.238.578l2.944,2.154a.6.6,0,0,0,.353.113.63.63,0,0,0,.1-.008.609.609,0,0,0,.4-.249.6.6,0,0,0,.1-.258,9.307,9.307,0,0,1,3.158-5.676,10.543,10.543,0,0,0,5,5.441.6.6,0,0,0,.623-.048l2.958-2.134a.606.606,0,0,0,.136-.838.6.6,0,0,0-.224-.191,9.32,9.32,0,0,1-4.421-4.754,10.544,10.544,0,0,0,6.72-3.082.6.6,0,0,0,.148-.608l-1.116-3.473a.6.6,0,0,0-.437-.4.6.6,0,0,0-.568.165,9.342,9.342,0,0,1-5.892,2.736,10.549,10.549,0,0,0-.85-7.343.6.6,0,0,0-.533-.328l-3.648-.012h0a.6.6,0,0,0-.513.293.6.6,0,0,0-.019.591,9.317,9.317,0,0,1,.781,6.449,10.541,10.541,0,0,0-7.247-1.46.6.6,0,0,0-.476.405L99-399.859A.605.605,0,0,0,99.374-399.1Zm12.331-1.394a2.4,2.4,0,0,1,0,3.393h0a2.4,2.4,0,0,1-3.392,0,2.4,2.4,0,0,1,0-3.392A2.4,2.4,0,0,1,111.705-400.5Zm-6.149,10.322-1.887-1.38a8.975,8.975,0,0,1,3.239-5.421,3.561,3.561,0,0,0,1.77,1.521A10.057,10.057,0,0,0,105.556-390.175Zm11.282-1.726-1.9,1.368a8.979,8.979,0,0,1-4.155-4.755,3.571,3.571,0,0,0,1.767-.966c.08-.08.155-.163.226-.249A10.065,10.065,0,0,0,116.837-391.9Zm1.845-11.263.715,2.226a8.993,8.993,0,0,1-5.807,2.482c.011-.114.017-.228.017-.344a3.575,3.575,0,0,0-.56-1.927A10.075,10.075,0,0,0,118.682-403.164Zm-7.8-5.227a8.984,8.984,0,0,1,.566,6.291,3.569,3.569,0,0,0-2.328-.184,10.063,10.063,0,0,0-.576-6.115Zm-9.721,5.8a8.97,8.97,0,0,1,6.159,1.407,3.564,3.564,0,0,0-.9,2.155,10.064,10.064,0,0,0-5.993-1.342Z" transform="translate(-92.009 -95.198)" fill="#418cff"/>
  </g>
</svg>
