<svg xmlns="http://www.w3.org/2000/svg" width="50.543" height="50.543" viewBox="0 0 50.543 50.543">
  <g id="Grupo_2685" data-name="Grupo 2685" transform="translate(0 512)">
    <path id="Trazado_24652" data-name="Trazado 24652" d="M50.167-463.3a.831.831,0,0,0-.617.945l1.085,6.748a.842.842,0,0,1-.446.905.842.842,0,0,1-.994-.172l-7.061-7.875a.842.842,0,0,0-.627-.28H17.8a9.266,9.266,0,0,1-6.552-2.714A9.266,9.266,0,0,1,8.533-472.3v-21.9a9.266,9.266,0,0,1,9.266-9.266H48.125a9.266,9.266,0,0,1,9.266,9.266v21.9A9.356,9.356,0,0,1,50.167-463.3Z" transform="translate(-7.691 -7.691)" fill="#e7ecfb"/>
    <path id="Trazado_24653" data-name="Trazado 24653" d="M386.527-503.467H384a9.266,9.266,0,0,1,9.266,9.266v21.9a9.356,9.356,0,0,1-7.224,8.994.831.831,0,0,0-.616.945l.991,6.165,1.179,1.317a.842.842,0,0,0,.994.172.842.842,0,0,0,.446-.905l-1.083-6.747a.831.831,0,0,1,.616-.945,9.356,9.356,0,0,0,7.224-8.995v-21.9a9.267,9.267,0,0,0-2.714-6.552A9.267,9.267,0,0,0,386.527-503.467Z" transform="translate(-346.093 -7.691)" fill="#cad9fb"/>
    <path id="Trazado_24654" data-name="Trazado 24654" d="M20.327-463.033H17.8a9.261,9.261,0,0,1-6.554-2.713A9.261,9.261,0,0,1,8.533-472.3v-21.9a9.261,9.261,0,0,1,2.713-6.554,9.261,9.261,0,0,1,6.554-2.713h2.527a9.262,9.262,0,0,0-6.554,2.713A9.261,9.261,0,0,0,11.06-494.2v21.9a9.261,9.261,0,0,0,2.713,6.554A9.261,9.261,0,0,0,20.327-463.033Z" transform="translate(-7.691 -7.691)" fill="#fff"/>
    <path id="Trazado_24655" data-name="Trazado 24655" d="M86.231-418.133v8.424H79.787a2.668,2.668,0,0,0,1.061-1.272l2-5.038a3.382,3.382,0,0,1,3.134-2.114Z" transform="translate(-71.91 -84.601)" fill="#a3c2f6"/>
    <path id="Trazado_24656" data-name="Trazado 24656" d="M145.067-409.71h10.109v-8.424H145.067Z" transform="translate(-130.746 -84.6)" fill="#e7ecfb"/>
    <path id="Trazado_24657" data-name="Trazado 24657" d="M221.867-409.71h2.527v-8.424h-2.527Z" transform="translate(-199.965 -84.6)" fill="#cad9fb"/>
    <path id="Trazado_24658" data-name="Trazado 24658" d="M259.968-409.709h-12.5v-8.424h6.141a3.382,3.382,0,0,1,3.134,2.114l1.963,4.928A2.668,2.668,0,0,0,259.968-409.709Z" transform="translate(-223.038 -84.601)" fill="#e7ecfb"/>
    <path id="Trazado_24659" data-name="Trazado 24659" d="M291.7-411.091l-1.963-4.928a3.382,3.382,0,0,0-3.134-2.114h-2.527a3.382,3.382,0,0,1,3.134,2.114l1.963,4.928a2.668,2.668,0,0,0,1.264,1.382h2.527A2.668,2.668,0,0,1,291.7-411.091Z" transform="translate(-256.032 -84.601)" fill="#cad9fb"/>
    <path id="Trazado_24660" data-name="Trazado 24660" d="M268.527-327.746v4.212a1.69,1.69,0,0,1-1.685,1.685H262.63a4.212,4.212,0,0,0-4.212-4.212,4.212,4.212,0,0,0-4.212,4.212h-6.739V-332.8h12.5a2.624,2.624,0,0,0,.758.27l4.431.8v3.142a.842.842,0,0,0,.842.842Z" transform="translate(-223.038 -161.51)" fill="#e7ecfb"/>
    <path id="Trazado_24661" data-name="Trazado 24661" d="M294.345-264.533a4.212,4.212,0,0,0-4.212,4.212h2.527a4.2,4.2,0,0,1,2.948-4A4.156,4.156,0,0,0,294.345-264.533Z" transform="translate(-261.492 -223.038)" fill="#cad9fb"/>
    <path id="Trazado_24662" data-name="Trazado 24662" d="M419.818-281.6v4.212a1.69,1.69,0,0,1-1.685,1.685h2.527a1.69,1.69,0,0,0,1.685-1.685V-281.6Z" transform="translate(-376.856 -207.656)" fill="#cad9fb"/>
    <path id="Trazado_24663" data-name="Trazado 24663" d="M430.036-319.107v1.129h-2.527a.842.842,0,0,1-.842-.842v-3.142l1.162.211A2.69,2.69,0,0,1,430.036-319.107Z" transform="translate(-384.548 -171.277)" fill="#e7ecfb"/>
    <path id="Trazado_24664" data-name="Trazado 24664" d="M70.575-332.8v10.951H62.993a4.212,4.212,0,0,0-4.212-4.212,4.212,4.212,0,0,0-4.212,4.212H52.885a1.69,1.69,0,0,1-1.685-1.685v-6.326a2.7,2.7,0,0,1,2.039-2.6,2.6,2.6,0,0,0,.783-.337Z" transform="translate(-46.146 -161.51)" fill="#e7ecfb"/>
    <path id="Trazado_24665" data-name="Trazado 24665" d="M64.153-264.533a4.2,4.2,0,0,0-4.189,3.989,1.653,1.653,0,0,0,.82.223h1.685a4.2,4.2,0,0,1,2.948-4A4.156,4.156,0,0,0,64.153-264.533Z" transform="translate(-54.044 -223.038)" fill="#cad9fb"/>
    <path id="Trazado_24666" data-name="Trazado 24666" d="M221.867-321.849h2.527V-332.8h-2.527Z" transform="translate(-199.965 -161.51)" fill="#cad9fb"/>
    <path id="Trazado_24667" data-name="Trazado 24667" d="M89.545-264.533a4.214,4.214,0,0,1,4.212,4.212,4.214,4.214,0,0,1-4.212,4.212,4.214,4.214,0,0,1-4.212-4.212A4.214,4.214,0,0,1,89.545-264.533Z" transform="translate(-76.909 -223.038)" fill="#a3c2f6" fill-rule="evenodd"/>
    <path id="Trazado_24668" data-name="Trazado 24668" d="M116.464-264.533a4.156,4.156,0,0,0-1.264.215,4.183,4.183,0,0,1,2.949,4,4.183,4.183,0,0,1-2.949,4,4.156,4.156,0,0,0,1.264.215,4.212,4.212,0,0,0,4.212-4.212A4.212,4.212,0,0,0,116.464-264.533Z" transform="translate(-103.828 -223.038)" fill="#7eabfa"/>
    <path id="Trazado_24669" data-name="Trazado 24669" d="M319.945-264.533a4.214,4.214,0,0,1,4.212,4.212,4.214,4.214,0,0,1-4.212,4.212,4.214,4.214,0,0,1-4.212-4.212A4.214,4.214,0,0,1,319.945-264.533Z" transform="translate(-284.565 -223.038)" fill="#a3c2f6" fill-rule="evenodd"/>
    <path id="Trazado_24670" data-name="Trazado 24670" d="M346.864-264.533a4.156,4.156,0,0,0-1.264.215,4.183,4.183,0,0,1,2.949,4,4.183,4.183,0,0,1-2.949,4,4.157,4.157,0,0,0,1.264.215,4.212,4.212,0,0,0,4.212-4.212A4.212,4.212,0,0,0,346.864-264.533Z" transform="translate(-311.483 -223.038)" fill="#7eabfa"/>
    <path id="Trazado_24671" data-name="Trazado 24671" d="M0-249.261H1.685V-256H0Z" transform="translate(0 -230.729)" fill="#fff"/>
    <path id="Trazado_24672" data-name="Trazado 24672" d="M.842-230.4a.843.843,0,0,1,.842.842.843.843,0,0,1-.842.842A.843.843,0,0,1,0-229.558.843.843,0,0,1,.842-230.4Z" transform="translate(0 -253.801)" fill="#418cff" fill-rule="evenodd"/>
    <path id="Trazado_24673" data-name="Trazado 24673" d="M40.434-512H10.109A10.119,10.119,0,0,0,0-501.891v15.163a.842.842,0,0,0,.842.842.842.842,0,0,0,.842-.842v-15.163a8.433,8.433,0,0,1,8.424-8.424H40.434a8.433,8.433,0,0,1,8.424,8.424v21.9a8.547,8.547,0,0,1-6.577,8.171,1.679,1.679,0,0,0-1.253,1.9l1.1,6.785L35.07-471.01a1.685,1.685,0,0,0-1.254-.556H10.109a8.433,8.433,0,0,1-8.424-8.424.842.842,0,0,0-.842-.843.842.842,0,0,0-.842.843,10.12,10.12,0,0,0,10.109,10.109H33.817l7.076,7.886a1.666,1.666,0,0,0,1.219.537,1.685,1.685,0,0,0,.77-.187,1.658,1.658,0,0,0,.895-1.791l-1.1-6.739a10.246,10.246,0,0,0,7.871-9.815v-21.9A10.119,10.119,0,0,0,40.434-512Z" fill="#418cff"/>
    <path id="Trazado_24674" data-name="Trazado 24674" d="M46.112-405.608a5.048,5.048,0,0,0,4.978,4.211,5.048,5.048,0,0,0,4.978-4.211H68.856a5.048,5.048,0,0,0,4.978,4.211,5.048,5.048,0,0,0,4.978-4.211h3.445a2.527,2.527,0,0,0,2.527-2.527v-5.341a3.538,3.538,0,0,0-2.9-3.474L76.3-417.96a1.878,1.878,0,0,1-1.392-1.134l-1.964-4.932a4.2,4.2,0,0,0-3.915-2.641H52.531a4.205,4.205,0,0,0-3.916,2.645l-2,5.037a1.853,1.853,0,0,1-1.269,1.105,3.538,3.538,0,0,0-2.674,3.419v6.326a2.527,2.527,0,0,0,2.527,2.527Zm4.978,2.527a3.37,3.37,0,0,1-3.37-3.37,3.37,3.37,0,0,1,3.37-3.369,3.369,3.369,0,0,1,3.369,3.369A3.37,3.37,0,0,1,51.091-403.08Zm22.744,0a3.37,3.37,0,0,1-3.369-3.37,3.369,3.369,0,0,1,3.369-3.369,3.369,3.369,0,0,1,3.37,3.369A3.37,3.37,0,0,1,73.835-403.08Zm9.266-10.4v.286H81.416v-2.134l.169.03A1.853,1.853,0,0,1,83.1-413.475Zm-7.107-2.83,3.738.674v2.443a1.685,1.685,0,0,0,1.685,1.685H83.1v3.37a.842.842,0,0,1-.842.842H78.813a5.048,5.048,0,0,0-4.978-4.211,5.048,5.048,0,0,0-4.978,4.211h-5.13v-9.266H75.178A3.591,3.591,0,0,0,75.994-416.306ZM71.376-423.4l1.964,4.93c.031.078.072.15.108.225H63.726v-6.739h5.3A2.527,2.527,0,0,1,71.376-423.4Zm-17.758-1.584h8.424v6.739H53.618ZM50.178-423.4a2.521,2.521,0,0,1,1.755-1.51v6.662H48.119c.018-.04.04-.078.056-.118Zm-5.827,15.261v-5.054h.842a.842.842,0,0,0,.842-.842.842.842,0,0,0-.842-.842H44.4a1.87,1.87,0,0,1,.347-.727,1.819,1.819,0,0,1,1-.646,3.592,3.592,0,0,0,.8-.312H62.041v9.266H56.069a5.048,5.048,0,0,0-4.978-4.211,5.048,5.048,0,0,0-4.978,4.211h-.918A.842.842,0,0,1,44.351-408.135Z" transform="translate(-38.455 -76.909)" fill="#418cff"/>
    <path id="Trazado_24675" data-name="Trazado 24675" d="M274.752-298.667h-.842a.842.842,0,0,0-.842.842.842.842,0,0,0,.842.842h.842a.842.842,0,0,0,.842-.842A.842.842,0,0,0,274.752-298.667Z" transform="translate(-246.111 -192.273)" fill="#418cff"/>
    <path id="Trazado_24676" data-name="Trazado 24676" d="M120.309-230.4a.843.843,0,0,1,.842.842.843.843,0,0,1-.842.842.843.843,0,0,1-.842-.842A.843.843,0,0,1,120.309-230.4Z" transform="translate(-107.674 -253.801)" fill="#418cff" fill-rule="evenodd"/>
    <path id="Trazado_24677" data-name="Trazado 24677" d="M350.709-230.4a.843.843,0,0,1,.842.842.843.843,0,0,1-.842.842.843.843,0,0,1-.842-.842A.843.843,0,0,1,350.709-230.4Z" transform="translate(-315.329 -253.801)" fill="#418cff" fill-rule="evenodd"/>
  </g>
</svg>
