<svg xmlns="http://www.w3.org/2000/svg" width="44" height="43.889" viewBox="0 0 44 43.889">
  <g id="Grupo_2665" data-name="Grupo 2665" transform="translate(0 510.817)">
    <path id="Trazado_24550" data-name="Trazado 24550" d="M29.385-494.154l-.022,3.5-.741.117-3.05.477-3.857-3.219a1.965,1.965,0,0,0-.667-.359l-10.954-3.219a1.859,1.859,0,0,1-1.254-2.31l.337-1.166.183-.623a1.87,1.87,0,0,1,2.31-1.261l11.856,3.49a1.958,1.958,0,0,1,.645.345Z" transform="translate(-8.011 -7.791)" fill="#7eabfa"/>
    <path id="Trazado_24551" data-name="Trazado 24551" d="M28.637-476.788l-.015,2.119-3.05.477-3.857-3.219a1.965,1.965,0,0,0-.667-.359l-10.954-3.219a1.859,1.859,0,0,1-1.254-2.31l.337-1.166a1.825,1.825,0,0,1,1.745-.389l11.856,3.49a1.834,1.834,0,0,1,.645.345Z" transform="translate(-8.011 -23.662)" fill="#a3c2f6"/>
    <path id="Trazado_24552" data-name="Trazado 24552" d="M311.2-375.141l-7.618,3.365a3.413,3.413,0,0,1-.381.147,3.648,3.648,0,0,0,2.588-.154l5.968-2.639A1.661,1.661,0,0,1,311.2-375.141Zm9.091-2.83-6.929-16.907.792-.917a1.859,1.859,0,0,0,.449-1.352,1.859,1.859,0,0,0-.64-1.273l-7.728-6.7a1.866,1.866,0,0,0-2.324-.088c.037.037.081.066.117.1l7.728,6.7a1.849,1.849,0,0,1,.64,1.269,1.85,1.85,0,0,1-.449,1.348l-.8.924,6.936,16.907a1.715,1.715,0,0,1-.939,2.229l-3.167,1.3a1.661,1.661,0,0,0,1.019.345,1.682,1.682,0,0,0,.645-.125l3.71-1.525A1.723,1.723,0,0,0,320.294-377.971Z" transform="translate(-277.153 -96.202)" fill="#cad9fb"/>
    <path id="Trazado_24553" data-name="Trazado 24553" d="M227.762-379.78l-6.936-16.907.8-.924a1.849,1.849,0,0,0,.449-1.348,1.849,1.849,0,0,0-.64-1.269l-7.728-6.7c-.037-.037-.081-.066-.117-.1a2.147,2.147,0,0,0-.3.279l-1.723,1.994-1.276-1.063-2.09-1.745-.975,1.041-2.837,3.05.829.689,5.1,26.483a3.693,3.693,0,0,0,2.566,2.852,3.421,3.421,0,0,0,.381-.147l7.618-3.365a1.661,1.661,0,0,0,.557.718l1.65-.726a1.6,1.6,0,0,0,.572.719l3.167-1.3A1.715,1.715,0,0,0,227.762-379.78ZM214.777-377.3a.925.925,0,0,1-1.2-.425.775.775,0,0,1-.1-.286l-1.716-11.335a2.793,2.793,0,0,1,2.266-3.167l.337-.059.763-.132a2.782,2.782,0,0,1,3.138,1.855l3.519,10.455Z" transform="translate(-186.827 -94.377)" fill="#e7ecfb"/>
    <path id="Trazado_24554" data-name="Trazado 24554" d="M17.322-359.167a4.24,4.24,0,0,1-3.666,4.34,4.784,4.784,0,0,1-.733.059,4.4,4.4,0,0,1-1.085-.132H11.83a4.23,4.23,0,0,1-3.307-4.267c0-1.774,2-5.044,3.3-6.767.205-.264.389-.491.543-.674a.733.733,0,0,1,.557-.257.733.733,0,0,1,.557.257c.059.066.117.139.176.213C14.91-364.863,17.322-361.117,17.322-359.167Z" transform="translate(-7.789 -131.583)" fill="#7eabfa"/>
    <path id="Trazado_24555" data-name="Trazado 24555" d="M15.122-349.26a4.237,4.237,0,0,1-3.285,4.267H11.83a4.23,4.23,0,0,1-3.307-4.267c0-1.774,2-5.044,3.3-6.767C13.121-354.3,15.122-351.034,15.122-349.26Z" transform="translate(-7.789 -141.49)" fill="#a3c2f6"/>
    <path id="Trazado_24556" data-name="Trazado 24556" d="M10.095-496.859l10.954,3.219a1.965,1.965,0,0,1,.667.359l3.857,3.219.829.689,5.1,26.483a3.693,3.693,0,0,0,2.566,2.852,3.63,3.63,0,0,0,2.169-.012,3.69,3.69,0,0,1-2.535-2.84l-5.1-26.483-.829-.689-3.857-3.219a1.965,1.965,0,0,0-.667-.359l-10.954-3.219a1.859,1.859,0,0,1-1.254-2.31l.337-1.166.183-.623a1.858,1.858,0,0,1,.817-1.053l-.708-.208a1.87,1.87,0,0,0-2.31,1.261l-.183.623-.337,1.166A1.859,1.859,0,0,0,10.095-496.859Z" transform="translate(-8.011 -7.791)" fill="#fff"/>
    <path id="Trazado_24557" data-name="Trazado 24557" d="M11.83-354.9h.007a4.4,4.4,0,0,0,1.085.132,4.784,4.784,0,0,0,.733-.059c.119-.018.229-.056.345-.082a4.228,4.228,0,0,1-3.278-4.258c0-1.773,2-5.039,3.3-6.763-.128-.169-.251-.329-.367-.466-.059-.073-.117-.147-.176-.213a.733.733,0,0,0-.557-.257.733.733,0,0,0-.557.257c-.154.183-.337.41-.543.674-1.3,1.723-3.3,4.993-3.3,6.767A4.23,4.23,0,0,0,11.83-354.9Z" transform="translate(-7.789 -131.583)" fill="#fff"/>
    <path id="Trazado_24558" data-name="Trazado 24558" d="M40.63-509.584l9.144,2.692,2.71.8-.414,1.407-2.71-.8-9.144-2.691Z" transform="translate(-36.76 -1.127)" fill="#fff"/>
    <path id="Trazado_24559" data-name="Trazado 24559" d="M283.115-228.123a1.661,1.661,0,0,0,.843,1.21,1.661,1.661,0,0,0,1.473.062l7.013-3.1a.733.733,0,0,0,.4-.905l-3.519-10.456a3.543,3.543,0,0,0-3.959-2.346l-1.1.2a3.5,3.5,0,0,0-2.859,4Zm1.724-.07a.189.189,0,0,1-.174-.007.193.193,0,0,1-.1-.147l-1.714-11.331a2.065,2.065,0,0,1,.025-.733l1.24.979a3.832,3.832,0,0,1,1.283,1.823l2.687,7.986Zm-.32-13.818,1.1-.2a2.047,2.047,0,0,1,.358-.032,2.073,2.073,0,0,1,1.955,1.4l3.307,9.825-1.809.8-2.643-7.855a5.28,5.28,0,0,0-1.767-2.509l-1.344-1.063A2.052,2.052,0,0,1,284.52-242.01Z" transform="translate(-257.187 -244.158)" fill="#418cff"/>
    <path id="Trazado_24560" data-name="Trazado 24560" d="M99.872-489.347a.748.748,0,0,0,.81.078.766.766,0,0,0,.216-.188.733.733,0,0,0,.135-.251.769.769,0,0,0-.057-.559.744.744,0,0,0-1-.293l-.115.081a.556.556,0,0,0-.1.109.483.483,0,0,0-.079.114,1.1,1.1,0,0,0-.055.136.769.769,0,0,0,.056.559A.755.755,0,0,0,99.872-489.347Z" transform="translate(-91.041 -18.435)" fill="#418cff"/>
    <path id="Trazado_24561" data-name="Trazado 24561" d="M2.065-503.947l10.949,3.226a1.133,1.133,0,0,1,.4.216l3.862,3.217.622.521,5.046,26.225a4.45,4.45,0,0,0,2.307,3.107,4.45,4.45,0,0,0,3.868.126l7.035-3.108a2.449,2.449,0,0,0,2.8.686l3.711-1.522A2.445,2.445,0,0,0,44-474.442l-6.758-16.5.5-.579a2.6,2.6,0,0,0-.263-3.658l-7.732-6.7a2.6,2.6,0,0,0-1.885-.626,2.6,2.6,0,0,0-1.776.891l-1.251,1.447-2.81-2.342h0l-5.206-4.234a2.582,2.582,0,0,0-.9-.476l-3.42-1.011a.733.733,0,0,0-.91.5.733.733,0,0,0,.5.91l3.413,1a1.138,1.138,0,0,1,.392.207l4.6,3.739-2.8,3.006-3.329-2.775a2.574,2.574,0,0,0-.928-.5l-10.95-3.224a1.128,1.128,0,0,1-.763-1.4l.523-1.784a1.128,1.128,0,0,1,1.4-.763l2.813.828a.733.733,0,0,0,.911-.5.733.733,0,0,0-.5-.911l-2.813-.829a2.6,2.6,0,0,0-3.22,1.755L.31-507.173A2.594,2.594,0,0,0,.518-505.2,2.594,2.594,0,0,0,2.065-503.947Zm19.557,3.015,2.833,2.356a.733.733,0,0,0,1.026-.084l1.718-1.988a1.128,1.128,0,0,1,.772-.387,1.128,1.128,0,0,1,.82.272l7.732,6.7a1.128,1.128,0,0,1,.114,1.59l-.8.921a.733.733,0,0,0-.125.758l6.929,16.908a.978.978,0,0,1-.535,1.276L38.4-471.093a.978.978,0,0,1-.749,0,.978.978,0,0,1-.527-.532.733.733,0,0,0-.4-.4.733.733,0,0,0-.571.009l-7.619,3.366a2.987,2.987,0,0,1-2.593-.086,2.987,2.987,0,0,1-1.547-2.082l-5.095-26.482a.733.733,0,0,0-.251-.424l-.23-.192Z" transform="translate(-0.186)" fill="#418cff"/>
    <path id="Trazado_24562" data-name="Trazado 24562" d="M5.134-361.575A5.02,5.02,0,0,0,8.8-363.044a5.02,5.02,0,0,0,1.469-3.663c0-2.337-2.84-6.558-4.024-7.924a1.512,1.512,0,0,0-1.108-.483,1.512,1.512,0,0,0-1.108.483C2.842-373.266,0-369.045,0-366.708a5.02,5.02,0,0,0,1.469,3.663A5.02,5.02,0,0,0,5.134-361.575Zm0-12.1C6.427-372.182,8.8-368.4,8.8-366.708a3.545,3.545,0,0,1-1.036,2.629,3.546,3.546,0,0,1-2.63,1.036,3.546,3.546,0,0,1-2.63-1.036,3.546,3.546,0,0,1-1.036-2.629C1.468-368.4,3.841-372.181,5.134-373.673Z" transform="translate(0 -124.042)" fill="#418cff"/>
    <path id="Trazado_24563" data-name="Trazado 24563" d="M238.622-349.572a.733.733,0,0,0,.71.551.7.7,0,0,0,.182-.023.733.733,0,0,0,.529-.892l-.367-1.436a.734.734,0,0,0-.894-.527.734.734,0,0,0-.527.894Z" transform="translate(-217.763 -145.243)" fill="#418cff"/>
    <path id="Trazado_24564" data-name="Trazado 24564" d="M251.761-306.212l1.039,4.4a.733.733,0,0,0,.713.565.7.7,0,0,0,.169-.02.733.733,0,0,0,.546-.88l-1.039-4.4a.734.734,0,0,0-.5-.534.734.734,0,0,0-.714.169.734.734,0,0,0-.211.7Z" transform="translate(-230.112 -186.203)" fill="#418cff"/>
  </g>
</svg>
