<svg xmlns="http://www.w3.org/2000/svg" width="35" height="38.182" viewBox="0 0 35 38.182">
  <g id="Grupo_2715" data-name="Grupo 2715" transform="translate(0 511.025)">
    <path id="Trazado_24735" data-name="Trazado 24735" d="M416.443-391.82l2.549,4,.106,2.164a2.3,2.3,0,0,1-2.324-.592C415.288-388.177,416.443-391.82,416.443-391.82Z" transform="translate(-384.932 -110.298)" fill="#a3c2f6" fill-rule="evenodd"/>
    <path id="Trazado_24736" data-name="Trazado 24736" d="M9.4-48.315H39.292v-2.894H9.4Z" transform="translate(-8.698 -425.46)" fill="#a3c2f6" fill-rule="evenodd"/>
    <path id="Trazado_24737" data-name="Trazado 24737" d="M78.562-462.168H98.447v-32.506H78.562Z" transform="translate(-72.692 -15.129)" fill="#e7ecfb" fill-rule="evenodd"/>
    <path id="Trazado_24738" data-name="Trazado 24738" d="M121.3-442.309h13.689v-8.769H121.3Z" transform="translate(-112.234 -55.468)" fill="#fff" fill-rule="evenodd"/>
    <path id="Trazado_24739" data-name="Trazado 24739" d="M143.659-449.22h12.232v-7.515H143.659Z" transform="translate(-132.925 -50.234)" fill="#a3c2f6" fill-rule="evenodd"/>
    <path id="Trazado_24740" data-name="Trazado 24740" d="M121.578-457.3H107.259a.8.8,0,0,1-.8-.8v-9.545a.8.8,0,0,1,.8-.8h14.318a.8.8,0,0,1,.8.8v9.545A.8.8,0,0,1,121.578-457.3Zm-13.523-1.591h12.727v-7.955H108.055Z" transform="translate(-98.509 -39.404)" fill="#418cff"/>
    <path id="Trazado_24741" data-name="Trazado 24741" d="M4.773-477.616v-32.614a.8.8,0,0,1,.8-.8H26.25a.8.8,0,0,1,.8.8v15.114h.729a2.454,2.454,0,0,1,2.453,2.452v10.374A1.493,1.493,0,0,0,31.72-480.8h.2a1.493,1.493,0,0,0,1.492-1.492v-12.826h0a3.109,3.109,0,0,1-3.182-3.083v-3.284H28.636a.8.8,0,0,1-.8-.8.8.8,0,0,1,.8-.8h3.182a.8.8,0,0,1,.684.387l2.386,3.977A.782.782,0,0,1,35-498.3v16.009a3.086,3.086,0,0,1-3.082,3.085h-.2a3.087,3.087,0,0,1-3.083-3.083v-10.374a.863.863,0,0,0-.862-.861h-.729v15.909h3.977a.8.8,0,0,1,.8.8v3.182a.8.8,0,0,1-.8.8H.8a.8.8,0,0,1-.8-.8v-3.182a.8.8,0,0,1,.8-.8Zm-3.182,3.182H30.227v-1.591H1.591Zm4.773-3.182H25.455v-31.818H6.364Zm25.455-23.119v2.537a1.491,1.491,0,0,0,1.492,1.492.83.83,0,0,1,.1.006v-1.381Z" transform="translate(0 0)" fill="#418cff"/>
    <path id="Trazado_24742" data-name="Trazado 24742" d="M154.03-445.907l-10.208.03,0-1.345,11.557-.034v6.768H154.03Z" transform="translate(-133.072 -59.004)" fill="#7eabfa" fill-rule="evenodd"/>
  </g>
</svg>
