<svg xmlns="http://www.w3.org/2000/svg" width="46.532" height="46.5" viewBox="0 0 46.532 46.5">
  <g id="Grupo_2718" data-name="Grupo 2718" transform="translate(0 512)">
    <path id="Trazado_24763" data-name="Trazado 24763" d="M34.883-453.058v-3.1a1.555,1.555,0,0,0-1.55-1.55l-2.65-4.642a1.55,1.55,0,0,0-1.348-.783h-7.5a1.55,1.55,0,0,0-1.348.783l-2.65,4.642a1.555,1.555,0,0,0-1.55,1.55v3.1a1.555,1.555,0,0,0,1.55,1.55v3.1a.775.775,0,0,0,.775.775h1.55a.775.775,0,0,0,.775-.775v-3.1h9.3v3.1a.775.775,0,0,0,.775.775H31.3l-4.193,5.991-1.418,6.293-.86,3.813a.775.775,0,0,0,.313.807.775.775,0,0,0,.866.014l3.286-2.108,5.433-3.487.876-1.248L42.633-447.6v17.019a3.1,3.1,0,0,1-3.1,3.1h-27.9a3.1,3.1,0,0,1-3.1-3.1v-35.65a3.1,3.1,0,0,1,3.1-3.1v1.55a1.55,1.55,0,0,0,1.55,1.55,1.55,1.55,0,0,0,1.55-1.55v-1.55h3.1v1.55a1.55,1.55,0,0,0,1.55,1.55,1.55,1.55,0,0,0,1.55-1.55v-1.55h3.1v1.55a1.55,1.55,0,0,0,1.55,1.55,1.55,1.55,0,0,0,1.55-1.55v-1.55h3.1v1.55a1.55,1.55,0,0,0,1.55,1.55,1.55,1.55,0,0,0,1.55-1.55v-1.55h3.1v1.55a1.55,1.55,0,0,0,1.55,1.55,1.55,1.55,0,0,0,1.55-1.55v-1.55a3.1,3.1,0,0,1,3.1,3.1v2.41l-.411.589-7.386,10.548A1.445,1.445,0,0,0,34.883-453.058Z" transform="translate(-7.758 -38.792)" fill="#e7ecfb"/>
    <path id="Trazado_24764" data-name="Trazado 24764" d="M223.417-466.233a1.543,1.543,0,0,0,1.162-.537,1.536,1.536,0,0,1-.387-1.013v-1.55h-2.325v1.55A1.555,1.555,0,0,0,223.417-466.233Z" transform="translate(-201.717 -38.792)" fill="#cad9fb"/>
    <path id="Trazado_24765" data-name="Trazado 24765" d="M291.683-466.233a1.543,1.543,0,0,0,1.163-.537,1.537,1.537,0,0,1-.388-1.013v-1.55h-2.325v1.55A1.555,1.555,0,0,0,291.683-466.233Z" transform="translate(-263.783 -38.792)" fill="#cad9fb"/>
    <path id="Trazado_24766" data-name="Trazado 24766" d="M155.15-466.233a1.543,1.543,0,0,0,1.163-.537,1.536,1.536,0,0,1-.388-1.013v-1.55H153.6v1.55A1.555,1.555,0,0,0,155.15-466.233Z" transform="translate(-139.65 -38.792)" fill="#cad9fb"/>
    <path id="Trazado_24767" data-name="Trazado 24767" d="M163.374-252.274l1.14-.731a.721.721,0,0,1,.007-.091l.86-3.813L166.8-263.2l4.193-5.991H170.7a.775.775,0,0,1-.775-.775v-3.1H167.6v3.1a.775.775,0,0,0,.775.775h.295l-4.193,5.991-1.418,6.293-.86,3.813a.775.775,0,0,0,.313.807A.775.775,0,0,0,163.374-252.274Z" transform="translate(-147.448 -217.233)" fill="#cad9fb"/>
    <path id="Trazado_24768" data-name="Trazado 24768" d="M86.883-466.233a1.543,1.543,0,0,0,1.162-.537,1.537,1.537,0,0,1-.388-1.013v-1.55H85.333v1.55A1.555,1.555,0,0,0,86.883-466.233Z" transform="translate(-77.583 -38.792)" fill="#cad9fb"/>
    <path id="Trazado_24769" data-name="Trazado 24769" d="M302.851-469.333v1.069a3.074,3.074,0,0,1,.775,2.031v2.41l-.411.589-5.014,7.161v3.015a1.445,1.445,0,0,1-.046.372l7.386-10.548.411-.589v-2.41A3.1,3.1,0,0,0,302.851-469.333Z" transform="translate(-271.077 -38.792)" fill="#cad9fb"/>
    <path id="Trazado_24770" data-name="Trazado 24770" d="M327.367-213.04a3.1,3.1,0,0,1-3.1,3.1h2.325a3.1,3.1,0,0,0,3.1-3.1v-17.019l-2.325,3.322Z" transform="translate(-294.817 -256.335)" fill="#cad9fb"/>
    <path id="Trazado_24771" data-name="Trazado 24771" d="M17.067-467.783a1.543,1.543,0,0,0,1,1.452,1.543,1.543,0,0,0,1.709-.439,1.537,1.537,0,0,1-.387-1.013v-1.55a3.077,3.077,0,0,0-2.325,1.069Z" transform="translate(-15.517 -38.792)" fill="#cad9fb"/>
    <path id="Trazado_24772" data-name="Trazado 24772" d="M45.767-501.917v3.1a1.55,1.55,0,0,1-1.55,1.55,1.55,1.55,0,0,1-1.55-1.55v-3.1a1.555,1.555,0,0,1,1.55-1.55,1.515,1.515,0,0,1,1.093.457A1.515,1.515,0,0,1,45.767-501.917Z" transform="translate(-38.792 -7.758)" fill="#e7ecfb"/>
    <path id="Trazado_24773" data-name="Trazado 24773" d="M114.033-501.917v3.1a1.55,1.55,0,0,1-1.55,1.55,1.55,1.55,0,0,1-1.55-1.55v-3.1a1.555,1.555,0,0,1,1.55-1.55,1.515,1.515,0,0,1,1.093.457A1.515,1.515,0,0,1,114.033-501.917Z" transform="translate(-100.858 -7.758)" fill="#e7ecfb"/>
    <path id="Trazado_24774" data-name="Trazado 24774" d="M182.3-501.917v3.1a1.55,1.55,0,0,1-1.55,1.55,1.55,1.55,0,0,1-1.55-1.55v-3.1a1.555,1.555,0,0,1,1.55-1.55,1.516,1.516,0,0,1,1.093.457A1.515,1.515,0,0,1,182.3-501.917Z" transform="translate(-162.925 -7.758)" fill="#e7ecfb"/>
    <path id="Trazado_24775" data-name="Trazado 24775" d="M250.567-501.917v3.1a1.55,1.55,0,0,1-1.55,1.55,1.55,1.55,0,0,1-1.55-1.55v-3.1a1.555,1.555,0,0,1,1.55-1.55,1.515,1.515,0,0,1,1.093.457A1.515,1.515,0,0,1,250.567-501.917Z" transform="translate(-224.992 -7.758)" fill="#e7ecfb"/>
    <path id="Trazado_24776" data-name="Trazado 24776" d="M318.833-501.917v3.1a1.55,1.55,0,0,1-1.55,1.55,1.55,1.55,0,0,1-1.55-1.55v-3.1a1.555,1.555,0,0,1,1.55-1.55,1.515,1.515,0,0,1,1.093.457A1.515,1.515,0,0,1,318.833-501.917Z" transform="translate(-287.058 -7.758)" fill="#e7ecfb"/>
    <path id="Trazado_24777" data-name="Trazado 24777" d="M112.467-339.783v3.1a1.444,1.444,0,0,1-.046.372v.008l-.636.907a1.53,1.53,0,0,1-.868.263h-15.5a1.555,1.555,0,0,1-1.55-1.55v-3.1a1.555,1.555,0,0,1,1.55-1.55h15.5A1.555,1.555,0,0,1,112.467-339.783Z" transform="translate(-85.342 -155.167)" fill="#e7ecfb"/>
    <path id="Trazado_24778" data-name="Trazado 24778" d="M258.325-341.333H256a1.555,1.555,0,0,1,1.55,1.55v3.1a1.444,1.444,0,0,1-.046.372v.008l-.636.907a1.53,1.53,0,0,1-.868.264h2.325a1.529,1.529,0,0,0,.868-.263l.636-.907v-.008a1.445,1.445,0,0,0,.046-.372v-3.1A1.555,1.555,0,0,0,258.325-341.333Z" transform="translate(-232.75 -155.167)" fill="#cad9fb"/>
    <path id="Trazado_24779" data-name="Trazado 24779" d="M114.033-273.067v3.1a.775.775,0,0,1-.775.775h-1.55a.775.775,0,0,1-.775-.775v-3.1Z" transform="translate(-100.858 -217.233)" fill="#a3c2f6"/>
    <path id="Trazado_24780" data-name="Trazado 24780" d="M250.567-273.067v.977l-2.03,2.9h-.295a.775.775,0,0,1-.775-.775v-3.1Z" transform="translate(-224.992 -217.233)" fill="#a3c2f6"/>
    <path id="Trazado_24781" data-name="Trazado 24781" d="M126.433-395.642h-15.5l2.65-4.642a1.55,1.55,0,0,1,1.348-.783h7.5a1.55,1.55,0,0,1,1.348.783Z" transform="translate(-100.858 -100.858)" fill="#e7ecfb"/>
    <path id="Trazado_24782" data-name="Trazado 24782" d="M215.641-400.284a1.55,1.55,0,0,0-1.348-.783h-2.325a1.55,1.55,0,0,1,1.348.783l2.65,4.642h2.325Z" transform="translate(-192.717 -100.858)" fill="#cad9fb"/>
    <path id="Trazado_24783" data-name="Trazado 24783" d="M390.211-458.977l-3.116,4.449-7.618-5.34.411-.589,2.7-3.852a3.1,3.1,0,0,1,2-1.275,3.1,3.1,0,0,1,2.316.516l2.534,1.775A3.105,3.105,0,0,1,390.211-458.977Z" transform="translate(-345.013 -42.158)" fill="#e7ecfb"/>
    <path id="Trazado_24784" data-name="Trazado 24784" d="M434.364-463.266l-2.534-1.775a3.093,3.093,0,0,0-2.945-.33,3.1,3.1,0,0,1,.62.33l2.534,1.775a3.105,3.105,0,0,1,.767,4.317l-2.35,3.356,1.559,1.093,3.116-4.449A3.105,3.105,0,0,0,434.364-463.266Z" transform="translate(-389.934 -42.185)" fill="#cad9fb"/>
    <path id="Trazado_24785" data-name="Trazado 24785" d="M192.26-92.62l-3.286,2.108a.775.775,0,0,1-.866-.014.775.775,0,0,1-.313-.807l.86-3.813A4.69,4.69,0,0,1,192.26-92.62Z" transform="translate(-170.723 -378.995)" fill="#a3c2f6"/>
    <path id="Trazado_24786" data-name="Trazado 24786" d="M206.5-165.74l-5.433,3.487a4.69,4.69,0,0,0-3.6-2.526l1.418-6.293a1.55,1.55,0,0,1,1.4-.657,1.55,1.55,0,0,1,1.271.887,1.55,1.55,0,0,1-.133,1.544,1.55,1.55,0,0,1,1.426-.739,1.55,1.55,0,0,1,1.315.921,1.55,1.55,0,0,1-.207,1.592,1.553,1.553,0,0,1,1.407-.655,1.552,1.552,0,0,1,1.271.891A1.552,1.552,0,0,1,206.5-165.74Z" transform="translate(-179.528 -309.362)" fill="#fff"/>
    <path id="Trazado_24787" data-name="Trazado 24787" d="M234.979-132.3a1.555,1.555,0,0,0-2.052.253,1.557,1.557,0,0,1,.107,1.909l-3.829,2.458a4.63,4.63,0,0,1,.721,1.03l5.433-3.487A1.56,1.56,0,0,0,234.979-132.3Z" transform="translate(-208.389 -344.968)" fill="#e7ecfb"/>
    <path id="Trazado_24788" data-name="Trazado 24788" d="M235.808-396.836,228.6-386.544,221.571-376.5l-.876,1.248a1.552,1.552,0,0,0,.136-1.546,1.552,1.552,0,0,0-1.271-.891,1.553,1.553,0,0,0-1.407.655,1.55,1.55,0,0,0,.207-1.592,1.55,1.55,0,0,0-1.315-.921,1.55,1.55,0,0,0-1.426.739,1.55,1.55,0,0,0,.133-1.544,1.55,1.55,0,0,0-1.271-.887,1.55,1.55,0,0,0-1.4.657l4.193-5.991,2.03-2.9.868-1.24.636-.907v-.008l7.386-10.548Z" transform="translate(-193.725 -99.85)" fill="#e7ecfb"/>
    <path id="Trazado_24789" data-name="Trazado 24789" d="M241.152-146.594a1.574,1.574,0,0,1-.085.155,1.405,1.405,0,0,1,.108-.126C241.166-146.575,241.161-146.585,241.152-146.594Z" transform="translate(-219.173 -332.22)" fill="#cad9fb"/>
    <path id="Trazado_24790" data-name="Trazado 24790" d="M213.171-166.033l-.1.145a1.39,1.39,0,0,1,.112-.131Z" transform="translate(-193.718 -314.546)" fill="#cad9fb"/>
    <path id="Trazado_24791" data-name="Trazado 24791" d="M297.511-402.176l-.766,1.093,6.059,4.247L295.6-386.544l-6.274,8.964a1.608,1.608,0,0,1,.314.165,1.56,1.56,0,0,1,.38,2.162l.876-1.248,7.029-10.044,7.207-10.292Z" transform="translate(-263.047 -99.85)" fill="#cad9fb"/>
    <path id="Trazado_24792" data-name="Trazado 24792" d="M269.059-127.061a1.608,1.608,0,0,1-.088.155,1.561,1.561,0,0,1,.11-.126C269.073-127.042,269.067-127.052,269.059-127.061Z" transform="translate(-244.543 -349.979)" fill="#cad9fb"/>
    <path id="Trazado_24793" data-name="Trazado 24793" d="M11.633-469.333a3.135,3.135,0,0,0-.66.074c-.038.009-.073.025-.111.034a3.052,3.052,0,0,0-.515.178c-.019.009-.036.021-.055.03a3.057,3.057,0,0,0-.511.31h0a3.1,3.1,0,0,0-.465.439,3.074,3.074,0,0,0-.779,2.035v35.65a3.1,3.1,0,0,0,3.1,3.1h2.325a3.1,3.1,0,0,1-3.1-3.1v-35.65A3.152,3.152,0,0,1,12.1-468.7h0Z" transform="translate(-7.758 -38.792)" fill="#fff"/>
    <path id="Trazado_24794" data-name="Trazado 24794" d="M0-104.733H1.55v-6.2H0Z" transform="translate(0 -364.642)" fill="#fff"/>
    <path id="Trazado_24795" data-name="Trazado 24795" d="M.775-85.333a.775.775,0,0,1,.775.775.775.775,0,0,1-.775.775A.775.775,0,0,1,0-84.558.775.775,0,0,1,.775-85.333Z" transform="translate(0 -387.917)" fill="#418cff" fill-rule="evenodd"/>
    <path id="Trazado_24796" data-name="Trazado 24796" d="M120.242-315.733a.775.775,0,0,1,.775.775.775.775,0,0,1-.775.775.775.775,0,0,1-.775-.775A.775.775,0,0,1,120.242-315.733Z" transform="translate(-108.617 -178.442)" fill="#418cff" fill-rule="evenodd"/>
    <path id="Trazado_24797" data-name="Trazado 24797" d="M256.775-315.733a.775.775,0,0,1,.775.775.775.775,0,0,1-.775.775.775.775,0,0,1-.775-.775A.775.775,0,0,1,256.775-315.733Z" transform="translate(-232.75 -178.442)" fill="#418cff" fill-rule="evenodd"/>
    <path id="Trazado_24798" data-name="Trazado 24798" d="M162.908-314.183h4.65a.775.775,0,0,0,.775-.775.775.775,0,0,0-.775-.775h-4.65a.775.775,0,0,0-.775.775A.775.775,0,0,0,162.908-314.183Z" transform="translate(-147.408 -178.442)" fill="#418cff"/>
    <path id="Trazado_24799" data-name="Trazado 24799" d="M44.138-192.3a.65.65,0,0,0,.077,0,.775.775,0,0,0,.548-.227l2.325-2.325a.775.775,0,0,0-.009-1.086.775.775,0,0,0-1.086-.009l-1.657,1.656-.25-.376a.775.775,0,0,0-.695-.343.775.775,0,0,0-.645.43.775.775,0,0,0,.05.774l.775,1.162A.775.775,0,0,0,44.138-192.3Z" transform="translate(-38.791 -287.154)" fill="#418cff"/>
    <path id="Trazado_24800" data-name="Trazado 24800" d="M42.8-142.6l.775,1.163a.775.775,0,0,0,.567.345.644.644,0,0,0,.077,0,.775.775,0,0,0,.548-.227l2.325-2.325a.775.775,0,0,0-.009-1.086.775.775,0,0,0-1.086-.009l-1.657,1.656-.25-.376a.775.775,0,0,0-.695-.343.775.775,0,0,0-.645.43A.775.775,0,0,0,42.8-142.6Z" transform="translate(-38.791 -333.704)" fill="#418cff"/>
    <path id="Trazado_24801" data-name="Trazado 24801" d="M42.8-91.4l.775,1.163a.775.775,0,0,0,.567.345.653.653,0,0,0,.077,0,.775.775,0,0,0,.548-.227l2.325-2.325a.775.775,0,0,0-.009-1.086.775.775,0,0,0-1.086-.009l-1.657,1.656-.25-.376a.775.775,0,0,0-.695-.343.775.775,0,0,0-.645.43A.775.775,0,0,0,42.8-91.4Z" transform="translate(-38.791 -380.254)" fill="#418cff"/>
    <path id="Trazado_24802" data-name="Trazado 24802" d="M44.878-506.084l-2.539-1.779a3.875,3.875,0,0,0-2.9-.642,3.875,3.875,0,0,0-2.5,1.594l-1.292,1.851a3.879,3.879,0,0,0-3.1-3.762v-.853A2.325,2.325,0,0,0,30.225-512a2.325,2.325,0,0,0-2.325,2.325v.775H26.35v-.775A2.325,2.325,0,0,0,24.025-512a2.325,2.325,0,0,0-2.325,2.325v.775H20.15v-.775A2.325,2.325,0,0,0,17.825-512a2.325,2.325,0,0,0-2.325,2.325v.775H13.95v-.775A2.325,2.325,0,0,0,11.625-512,2.325,2.325,0,0,0,9.3-509.675v.775H7.75v-.775A2.325,2.325,0,0,0,5.425-512,2.325,2.325,0,0,0,3.1-509.675v.853a3.882,3.882,0,0,0-3.1,3.8v29.45a.775.775,0,0,0,.775.775.775.775,0,0,0,.775-.775v-29.45a2.325,2.325,0,0,1,1.55-2.182v.632a2.325,2.325,0,0,0,2.325,2.325,2.325,2.325,0,0,0,2.325-2.325v-.775H9.3v.775a2.325,2.325,0,0,0,2.325,2.325,2.325,2.325,0,0,0,2.325-2.325v-.775H15.5v.775a2.325,2.325,0,0,0,2.325,2.325,2.325,2.325,0,0,0,2.325-2.325v-.775H21.7v.775a2.325,2.325,0,0,0,2.325,2.325,2.325,2.325,0,0,0,2.325-2.325v-.775H27.9v.775a2.325,2.325,0,0,0,2.325,2.325,2.325,2.325,0,0,0,2.325-2.325v-.632a2.325,2.325,0,0,1,1.55,2.182v2.17l-.27.388L27.9-494v-.953a2.325,2.325,0,0,0-1.846-2.275l-2.46-4.3a2.332,2.332,0,0,0-2.019-1.171h-7.5a2.33,2.33,0,0,0-2.019,1.172l-2.46,4.3A2.325,2.325,0,0,0,7.75-494.95v3.1a2.325,2.325,0,0,0,1.55,2.182v2.468a1.55,1.55,0,0,0,1.55,1.55H12.4a1.55,1.55,0,0,0,1.55-1.55v-2.325H21.7v2.325a1.542,1.542,0,0,0,.593,1.21l-2.951,4.215H10.85a.775.775,0,0,0-.775.775.775.775,0,0,0,.775.775h7.659l-.7,3.1H10.85a.775.775,0,0,0-.775.775.775.775,0,0,0,.775.775h6.611l-.7,3.1H10.85a.775.775,0,0,0-.775.775.775.775,0,0,0,.775.775h5.562l-.095.419a1.55,1.55,0,0,0,.618,1.62,1.55,1.55,0,0,0,1.734.034l3.228-2.073h6a.775.775,0,0,0,.775-.775.775.775,0,0,0-.775-.775H24.311l3.078-1.976a.788.788,0,0,0,.216-.208l.775-1.1a.742.742,0,0,0,.219-.31l5.5-7.863v14.56a2.325,2.325,0,0,1-2.325,2.325H3.875a2.325,2.325,0,0,1-2.325-2.325.775.775,0,0,0-.775-.775.775.775,0,0,0-.775.775A3.88,3.88,0,0,0,3.875-465.5h27.9a3.88,3.88,0,0,0,3.875-3.875v-16.774l4.845-6.919,2.221-3.173,3.115-4.444a3.875,3.875,0,0,0,.643-2.9A3.875,3.875,0,0,0,44.878-506.084ZM6.2-506.575a.775.775,0,0,1-.775.775.775.775,0,0,1-.775-.775v-3.1a.775.775,0,0,1,.775-.775.775.775,0,0,1,.775.775Zm6.2,0a.775.775,0,0,1-.775.775.775.775,0,0,1-.775-.775v-3.1a.775.775,0,0,1,.775-.775.775.775,0,0,1,.775.775Zm6.2,0a.775.775,0,0,1-.775.775.775.775,0,0,1-.775-.775v-3.1a.775.775,0,0,1,.775-.775.775.775,0,0,1,.775.775Zm6.2,0a.775.775,0,0,1-.775.775.775.775,0,0,1-.775-.775v-3.1a.775.775,0,0,1,.775-.775.775.775,0,0,1,.775.775Zm6.2,0a.775.775,0,0,1-.775.775.775.775,0,0,1-.775-.775v-3.1a.775.775,0,0,1,.775-.775.775.775,0,0,1,.775.775Zm-17.6,5.813a.775.775,0,0,1,.674-.387h7.5a.775.775,0,0,1,.674.387l1.991,3.487H11.41ZM9.3-494.95a.775.775,0,0,1,.775-.775h15.5a.775.775,0,0,1,.775.775v3.1a.754.754,0,0,1-.009.077l-.429.612a.757.757,0,0,1-.337.085h-15.5a.775.775,0,0,1-.775-.775Zm3.1,7.75H10.85v-2.325H12.4Zm10.85-2.325h1.518l-1.518,2.17Zm-1.8,11.5a.775.775,0,0,0,.579.129.775.775,0,0,0,.5-.319.775.775,0,0,1,.712-.362.775.775,0,0,1,.654.459.775.775,0,0,1-.1.792.776.776,0,0,0,.19,1.08.775.775,0,0,0,1.08-.19.775.775,0,0,1,1.079-.191.767.767,0,0,1,.233.983l-4.6,2.954a5.317,5.317,0,0,0-2.915-2.041l1.2-5.335a.768.768,0,0,1,1.047-.078.768.768,0,0,1,.146,1.04.775.775,0,0,0,.19,1.079Zm-3.621,7.867.69-3.058a3.762,3.762,0,0,1,1.953,1.362Zm21.846-24.435-2.54-1.778a.775.775,0,0,0-.8-.105.775.775,0,0,0-.461.658.775.775,0,0,0,.37.713l2.539,1.782L27.59-477.335a2.266,2.266,0,0,0-2.162-.965,2.325,2.325,0,0,0-2.54-1.782,2.291,2.291,0,0,0-1.645-1.705l6.489-9.267.012-.016,4.693-6.7,1.269.889a.775.775,0,0,0,.779.078.775.775,0,0,0,.449-.642.775.775,0,0,0-.34-.706l-1.27-.885,1.334-1.9L41-496.5Zm4.892-6.984-2.667,3.81-3.809-2.668.889-1.269a.775.775,0,0,0-.19-1.08.775.775,0,0,0-1.08.19l-.893,1.27-1.269-.89,2.667-3.809a2.325,2.325,0,0,1,3.238-.57l2.54,1.778a2.324,2.324,0,0,1,.958,1.5A2.325,2.325,0,0,1,44.562-501.577Z" fill="#418cff"/>
    <path id="Trazado_24803" data-name="Trazado 24803" d="M433.319-439.695a.775.775,0,0,0-.019.861.775.775,0,0,0,.788.347.775.775,0,0,0,.622-.6.775.775,0,0,0-.313-.8A.775.775,0,0,0,433.319-439.695Z" transform="translate(-393.837 -65.438)" fill="#418cff"/>
    <path id="Trazado_24804" data-name="Trazado 24804" d="M271.519-328.041a.775.775,0,0,0-1.079.19l-8.448,12.062a.775.775,0,0,0,.19,1.08.776.776,0,0,0,1.08-.19l8.447-12.062a.775.775,0,0,0,.128-.579A.775.775,0,0,0,271.519-328.041Z" transform="translate(-238.071 -167.124)" fill="#418cff"/>
    <path id="Trazado_24805" data-name="Trazado 24805" d="M289.966-296.214a.775.775,0,0,0-.068.772.775.775,0,0,0,.635.445.775.775,0,0,0,.7-.327l8.448-12.062a.775.775,0,0,0,.067-.772.775.775,0,0,0-.635-.444.775.775,0,0,0-.7.328Z" transform="translate(-263.503 -184.922)" fill="#418cff"/>
  </g>
</svg>
