<svg xmlns="http://www.w3.org/2000/svg" width="47" height="47.032" viewBox="0 0 47 47.032">
  <g id="Grupo_2615" data-name="Grupo 2615" transform="translate(0 503.95)">
    <path id="Trazado_23533" data-name="Trazado 23533" d="M11.527-384.875a1.567,1.567,0,0,0-1.567-1.567,1.567,1.567,0,0,0-1.567,1.567v17.233a1.567,1.567,0,0,0,1.567,1.567,1.567,1.567,0,0,0,1.567-1.567Z" transform="translate(-7.61 -106.541)" fill="#e7ecfb" fill-rule="evenodd"/>
    <path id="Trazado_23534" data-name="Trazado 23534" d="M41.967-297.807H45.1v-4.7H41.967Z" transform="translate(-38.051 -182.643)" fill="#a3c2f6"/>
    <path id="Trazado_23535" data-name="Trazado 23535" d="M114.707-420.184v16.356a2.019,2.019,0,0,1-1.48,2,1.958,1.958,0,0,1-1.684-.356,1.958,1.958,0,0,1-.753-1.547v-1.175a1.571,1.571,0,0,0-1.567-1.567h-.783a.783.783,0,0,0-.783.783v3.133a2.35,2.35,0,0,1-2.35,2.35H99.166a7.806,7.806,0,0,0-3-3.494,2.285,2.285,0,0,1-1.042-1.95v-13.356a3.133,3.133,0,0,0-2.984-3.133,3.263,3.263,0,0,0-2.338.967,3.263,3.263,0,0,0-.944,2.347v13.16a2.312,2.312,0,0,1-1.042,1.966,7.844,7.844,0,0,0-2.8,3.071,3.885,3.885,0,0,1-1.246-.987L82.2-403.5a3.916,3.916,0,0,0-3.008-1.41h-1.3a2.35,2.35,0,0,1-2.35-2.35v-14.1a2.35,2.35,0,0,1,2.35-2.35h3.6a2.358,2.358,0,0,0,1.81-.846l2.507-3.008a2.358,2.358,0,0,1,1.81-.846h9.345a2.35,2.35,0,0,1,1.99,1.1l2.538,4.058a2.35,2.35,0,0,0,1.99,1.1h1.833a2.35,2.35,0,0,1,2.35,2.35v.783a1.571,1.571,0,0,0,1.567,1.567,1.578,1.578,0,0,0,1.567-1.567v-1.05a2.045,2.045,0,0,1,1.817-2.084,1.958,1.958,0,0,1,1.477.521A1.959,1.959,0,0,1,114.707-420.184Z" transform="translate(-68.491 -68.491)" fill="#e7ecfb"/>
    <path id="Trazado_23536" data-name="Trazado 23536" d="M281.827-427.3l2.538,4.058a2.35,2.35,0,0,0,1.99,1.1h1.833a2.35,2.35,0,0,1,2.35,2.35v.783a1.571,1.571,0,0,0,1.567,1.567,1.531,1.531,0,0,0,1.1-.462c.026-.025.045-.056.07-.082a1.551,1.551,0,0,1-.391-1.022v-.783a2.35,2.35,0,0,0-2.35-2.35H288.7a2.35,2.35,0,0,1-1.99-1.1l-2.538-4.058a2.35,2.35,0,0,0-1.99-1.1h-2.35A2.35,2.35,0,0,1,281.827-427.3Z" transform="translate(-253.721 -68.491)" fill="#cad9fb"/>
    <path id="Trazado_23537" data-name="Trazado 23537" d="M464.2-360.734a1.972,1.972,0,0,0-1.527-.572,1.825,1.825,0,0,0-1.026.407,1.816,1.816,0,0,1,.776,1.552v16.356a2.115,2.115,0,0,1-.783,1.654,1.958,1.958,0,0,0,1.655.343,2.019,2.019,0,0,0,1.478-2v-16.356A1.958,1.958,0,0,0,464.2-360.734Z" transform="translate(-418.556 -129.328)" fill="#cad9fb"/>
    <path id="Trazado_23538" data-name="Trazado 23538" d="M373.228-193.392h-.783a.783.783,0,0,0-.783.783v3.133a2.35,2.35,0,0,1-2.35,2.35h2.35a2.35,2.35,0,0,0,2.35-2.35v-3.133a.766.766,0,0,1,.164-.455A1.548,1.548,0,0,0,373.228-193.392Z" transform="translate(-334.845 -281.575)" fill="#cad9fb"/>
    <path id="Trazado_23539" data-name="Trazado 23539" d="M190.362-493.989a1.567,1.567,0,0,0-1.567-1.567H177.829a1.567,1.567,0,0,0-1.567,1.567,1.567,1.567,0,0,0,1.567,1.567H188.8A1.567,1.567,0,0,0,190.362-493.989Z" transform="translate(-159.812 -7.611)" fill="#e7ecfb" fill-rule="evenodd"/>
    <path id="Trazado_23540" data-name="Trazado 23540" d="M287.727-495.556h-2.35a1.567,1.567,0,0,1,1.567,1.567,1.567,1.567,0,0,1-1.567,1.567h2.35a1.567,1.567,0,0,0,1.567-1.567A1.567,1.567,0,0,0,287.727-495.556Z" transform="translate(-258.744 -7.611)" fill="#cad9fb"/>
    <path id="Trazado_23541" data-name="Trazado 23541" d="M226.623-458.849h4.7v-3.133h-4.7Z" transform="translate(-205.473 -38.051)" fill="#a3c2f6"/>
    <path id="Trazado_23542" data-name="Trazado 23542" d="M183.527-336.2a7.833,7.833,0,0,1-6.374,7.7,7.833,7.833,0,0,1-8.749-4.828,7.833,7.833,0,0,1,3.114-9.5,2.312,2.312,0,0,0,1.042-1.966v-13.16a3.263,3.263,0,0,1,.944-2.347,3.263,3.263,0,0,1,2.338-.967,3.133,3.133,0,0,1,2.984,3.133v13.356a2.285,2.285,0,0,0,1.042,1.95A7.858,7.858,0,0,1,183.527-336.2Z" transform="translate(-152.194 -129.372)" fill="#cad9fb"/>
    <path id="Trazado_23543" data-name="Trazado 23543" d="M247.366-339.357a7.806,7.806,0,0,0-3-3.494,2.285,2.285,0,0,1-1.042-1.95v-13.356a3.133,3.133,0,0,0-2.984-3.133,2.9,2.9,0,0,0-1.3.244,3.207,3.207,0,0,1,1.018.673,3.153,3.153,0,0,1,.919,2.217V-344.8a2.285,2.285,0,0,0,1.042,1.95,7.827,7.827,0,0,1,3.491,8.235,7.827,7.827,0,0,1-6.512,6.132c.1.015.2.035.295.046a7.843,7.843,0,0,0,6.11-1.938,7.843,7.843,0,0,0,2.624-5.848A7.74,7.74,0,0,0,247.366-339.357Z" transform="translate(-216.69 -129.343)" fill="#a3c2f6"/>
    <path id="Trazado_23544" data-name="Trazado 23544" d="M206.143-143.032a4.7,4.7,0,0,1,4.7,4.7,4.7,4.7,0,0,1-4.7,4.7,4.7,4.7,0,0,1-4.7-4.7A4.7,4.7,0,0,1,206.143-143.032Z" transform="translate(-182.643 -327.235)" fill="#a3c2f6" fill-rule="evenodd"/>
    <path id="Trazado_23545" data-name="Trazado 23545" d="M9.96-366.079a1.555,1.555,0,0,0,1.175-.541,1.553,1.553,0,0,1-.392-1.026v-17.233a1.555,1.555,0,0,1,.392-1.026,1.561,1.561,0,0,0-1.728-.442,1.561,1.561,0,0,0-1.013,1.468v17.233A1.567,1.567,0,0,0,9.96-366.079Z" transform="translate(-7.61 -106.537)" fill="#fff"/>
    <path id="Trazado_23546" data-name="Trazado 23546" d="M127.86-175.2l1.567,1.88a3.885,3.885,0,0,0,1.246.987,7.838,7.838,0,0,0,.076,7.259,7.838,7.838,0,0,0,6,4.083,7.949,7.949,0,0,0,2.055-.046,7.833,7.833,0,0,1-5.389-3.5,7.834,7.834,0,0,1-.956-6.355,2.35,2.35,0,0,0-.529-2.253c-.053-.056-.1-.114-.157-.174l-1.567-1.88a3.916,3.916,0,0,0-3.007-1.41h-1.3Z" transform="translate(-114.152 -296.795)" fill="#fff"/>
    <path id="Trazado_23547" data-name="Trazado 23547" d="M180.179-495.556h-2.35a1.567,1.567,0,0,0-1.567,1.567,1.567,1.567,0,0,0,1.567,1.567h2.35a1.567,1.567,0,0,1-1.567-1.567A1.567,1.567,0,0,1,180.179-495.556Z" transform="translate(-159.812 -7.611)" fill="#fff"/>
    <path id="Trazado_23548" data-name="Trazado 23548" d="M143.563-458,141.057-455a2.358,2.358,0,0,1-1.809.846h2.35a2.358,2.358,0,0,0,1.809-.846L145.913-458a2.358,2.358,0,0,1,1.81-.846h2.029v-3.133H147.4v3.133h-2.029A2.358,2.358,0,0,0,143.563-458Z" transform="translate(-126.252 -38.05)" fill="#fff"/>
    <path id="Trazado_23549" data-name="Trazado 23549" d="M0-363.388H1.567v-6.267H0Z" transform="translate(0 -121.762)" fill="#fff"/>
    <path id="Trazado_23550" data-name="Trazado 23550" d="M.783-344.474a.784.784,0,0,1,.783.783.784.784,0,0,1-.783.783A.784.784,0,0,1,0-343.691.784.784,0,0,1,.783-344.474Z" transform="translate(0 -144.593)" fill="#418cff" fill-rule="evenodd"/>
    <path id="Trazado_23551" data-name="Trazado 23551" d="M44.065-491.417a2.82,2.82,0,0,0-2.548,2.867v1.05a.763.763,0,0,1-.24.558.75.75,0,0,1-.544.226.783.783,0,0,1-.783-.783v-.783a3.133,3.133,0,0,0-3.133-3.133H34.983a1.556,1.556,0,0,1-1.325-.736l-2.538-4.058a3.112,3.112,0,0,0-2.654-1.473H26.633v-1.567h2.35a2.35,2.35,0,0,0,2.35-2.35,2.35,2.35,0,0,0-2.35-2.35H18.017a2.35,2.35,0,0,0-2.35,2.35,2.35,2.35,0,0,0,2.35,2.35h2.35v1.567H19.121a3.138,3.138,0,0,0-2.411,1.128L14.2-493.549a1.573,1.573,0,0,1-1.208.566H9.4a3.133,3.133,0,0,0-3.133,3.133v3.917H4.7v-5.483a2.35,2.35,0,0,0-2.35-2.35A2.35,2.35,0,0,0,0-491.417a.783.783,0,0,0,.783.783.783.783,0,0,0,.783-.783.783.783,0,0,1,.783-.783.783.783,0,0,1,.783.783v17.233a.783.783,0,0,1-.783.783.783.783,0,0,1-.783-.783V-485.15a.783.783,0,0,0-.783-.783A.783.783,0,0,0,0-485.15v10.967a2.35,2.35,0,0,0,2.35,2.35,2.35,2.35,0,0,0,2.35-2.35v-5.483H6.267v3.917A3.133,3.133,0,0,0,9.4-472.617h1.3a3.126,3.126,0,0,1,2.406,1.128l1.567,1.88a4.7,4.7,0,0,0,.846.783A8.624,8.624,0,0,0,18-458.9a8.624,8.624,0,0,0,10.218.571,8.624,8.624,0,0,0,3.569-9.591h5.033a3.133,3.133,0,0,0,3.133-3.133v-3.133h.783a.783.783,0,0,1,.783.783v1.175a2.742,2.742,0,0,0,1.051,2.16,2.742,2.742,0,0,0,2.349.5A2.815,2.815,0,0,0,47-472.319v-16.356a2.742,2.742,0,0,0-.87-2.01A2.742,2.742,0,0,0,44.065-491.417ZM17.233-501.6a.783.783,0,0,1,.783-.783H28.983a.783.783,0,0,1,.783.783.783.783,0,0,1-.783.783H18.017A.783.783,0,0,1,17.233-501.6Zm4.7,2.35h3.133v1.567H21.933ZM4.7-481.234v-3.133H6.267v3.133ZM28.2-460.31a7,7,0,0,1-5.512,1.747,7.085,7.085,0,0,1-6.166-6.007,7.008,7.008,0,0,1,3.226-6.958,3.114,3.114,0,0,0,1.405-2.633v-13.16a2.49,2.49,0,0,1,2.362-2.529h.1a2.346,2.346,0,0,1,2.237,2.35v13.36a3.1,3.1,0,0,0,1.41,2.612,7.045,7.045,0,0,1,3.269,5.374A7.044,7.044,0,0,1,28.2-460.31Zm17.237-12.009a1.238,1.238,0,0,1-.877,1.235,1.175,1.175,0,0,1-1.017-.208,1.175,1.175,0,0,1-.455-.933V-473.4a2.35,2.35,0,0,0-2.35-2.35H39.95a1.567,1.567,0,0,0-1.567,1.567v3.133a1.567,1.567,0,0,1-1.567,1.567H31.166a8.6,8.6,0,0,0-3.074-3.368,1.518,1.518,0,0,1-.675-1.289V-487.5a3.917,3.917,0,0,0-3.729-3.917,4.043,4.043,0,0,0-2.917,1.18,4.043,4.043,0,0,0-1.188,2.914v13.16a1.537,1.537,0,0,1-.674,1.307,8.635,8.635,0,0,0-2.656,2.611,3.086,3.086,0,0,1-.377-.367l-1.567-1.88a4.687,4.687,0,0,0-3.61-1.69H9.4a1.567,1.567,0,0,1-1.567-1.567v-14.1A1.567,1.567,0,0,1,9.4-491.417H13a3.138,3.138,0,0,0,2.411-1.128l2.507-3.006a1.573,1.573,0,0,1,1.208-.566h9.345a1.555,1.555,0,0,1,1.325.736l2.538,4.058a3.112,3.112,0,0,0,2.654,1.473h1.833a1.567,1.567,0,0,1,1.567,1.567v.783a2.35,2.35,0,0,0,2.35,2.35,2.362,2.362,0,0,0,2.35-2.35v-1.05a1.264,1.264,0,0,1,1.085-1.3,1.182,1.182,0,0,1,.923.344,1.168,1.168,0,0,1,.342.831Z" fill="#418cff"/>
    <path id="Trazado_23552" data-name="Trazado 23552" d="M199.314-303.565v-14.946a.783.783,0,0,0-.783-.783.783.783,0,0,0-.783.783v14.946a5.483,5.483,0,0,0-4.686,5.82,5.483,5.483,0,0,0,5.469,5.091A5.483,5.483,0,0,0,204-297.745,5.483,5.483,0,0,0,199.314-303.565Zm-.783,9.337a3.917,3.917,0,0,1-3.917-3.917,3.917,3.917,0,0,1,3.917-3.917,3.917,3.917,0,0,1,3.917,3.917A3.921,3.921,0,0,1,198.531-294.228Z" transform="translate(-175.031 -167.423)" fill="#418cff"/>
    <path id="Trazado_23553" data-name="Trazado 23553" d="M315.257-336.081H311.34a.783.783,0,0,0-.783.783.783.783,0,0,0,.783.783h3.917a.783.783,0,0,0,.783-.783A.783.783,0,0,0,315.257-336.081Z" transform="translate(-281.574 -152.202)" fill="#418cff"/>
    <path id="Trazado_23554" data-name="Trazado 23554" d="M311.34-300.94h1.567a.783.783,0,0,0,.783-.783.783.783,0,0,0-.783-.783H311.34a.783.783,0,0,0-.783.783A.783.783,0,0,0,311.34-300.94Z" transform="translate(-281.574 -182.643)" fill="#418cff"/>
    <path id="Trazado_23555" data-name="Trazado 23555" d="M315.257-268.933H311.34a.783.783,0,0,0-.783.783.783.783,0,0,0,.783.783h3.917a.783.783,0,0,0,.783-.783A.783.783,0,0,0,315.257-268.933Z" transform="translate(-281.574 -213.084)" fill="#418cff"/>
    <path id="Trazado_23556" data-name="Trazado 23556" d="M311.34-233.793h1.567a.783.783,0,0,0,.783-.783.783.783,0,0,0-.783-.783H311.34a.783.783,0,0,0-.783.783A.783.783,0,0,0,311.34-233.793Z" transform="translate(-281.574 -243.523)" fill="#418cff"/>
    <path id="Trazado_23557" data-name="Trazado 23557" d="M315.257-201.786H311.34a.783.783,0,0,0-.783.783.783.783,0,0,0,.783.783h3.917a.783.783,0,0,0,.783-.783A.783.783,0,0,0,315.257-201.786Z" transform="translate(-281.574 -273.964)" fill="#418cff"/>
  </g>
</svg>
