<svg xmlns="http://www.w3.org/2000/svg" width="46" height="46.667" viewBox="0 0 46 46.667">
  <g id="Grupo_2602" data-name="Grupo 2602" transform="translate(0 60.005)">
    <path id="Trazado_23215" data-name="Trazado 23215" d="M19.153-22.988,9.688-27.079l.5-1.408A.793.793,0,0,1,10.924-29h4.324a26.215,26.215,0,0,0,1.423,2.574,5.113,5.113,0,0,0,.311.482A31.986,31.986,0,0,0,19.153-22.988Z" transform="translate(-2.153 -6.892)" fill="#e7ecfb"/>
    <path id="Trazado_23216" data-name="Trazado 23216" d="M21.234-19.461l-7.139,3.08L6.528-19.647,8.985-26.53l9.465,4.091A35.946,35.946,0,0,0,21.234-19.461Z" transform="translate(-1.451 -7.441)" fill="#cad9fb"/>
    <path id="Trazado_23217" data-name="Trazado 23217" d="M39.951-4.708H30.774l-15.6-6.735L1-5.322a.743.743,0,0,1,.031-.428l1.5-4.215h.008l5.724-2.473-4.2-1.8L5.3-17.68l7.567,3.266L20-17.493a26.712,26.712,0,0,0,3.126,2.613l-3.375,1.454Z" transform="translate(-0.219 -9.408)" fill="#fff"/>
    <path id="Trazado_23218" data-name="Trazado 23218" d="M50.028-4.908H45.315l-20.2-8.718,3.375-1.454.086.062s.124-.086.35-.249h.008l7.692-3.313,2.061.887L41.8-16.348l3.438,1.485L48-13.673h.008L50.759-5.95a.778.778,0,0,1-.095.711A.778.778,0,0,1,50.028-4.908Z" transform="translate(-5.583 -9.208)" fill="#e7ecfb"/>
    <path id="Trazado_23219" data-name="Trazado 23219" d="M49.09-15.686l-2.761-1.19-3.438-1.485L39.78-19.707l-2.061-.887-7.692,3.313a33.471,33.471,0,0,0,6.805-6.906l5.973-2.582,2.022-.871L46.049-24.2l-2.022.871-1.734.747,2.364,1.019,2.761,1.19Z" transform="translate(-6.675 -7.194)" fill="#fff"/>
    <path id="Trazado_23220" data-name="Trazado 23220" d="M46.773-27.942l-7.995,3.453c.334-.459.677-.949,1-1.454a5.1,5.1,0,0,0,.311-.482A26.182,26.182,0,0,0,41.515-29h4.332a.771.771,0,0,1,.731.513Z" transform="translate(-8.62 -6.892)" fill="#cad9fb"/>
    <path id="Trazado_23221" data-name="Trazado 23221" d="M50.923-19.394,45.8-21.6l3.756-1.618Z" transform="translate(-10.18 -8.177)" fill="#cad9fb"/>
    <path id="Trazado_23222" data-name="Trazado 23222" d="M51.419-19.394l-2.761-1.19-.63-1.765,2.022-.871Z" transform="translate(-10.676 -8.177)" fill="#cad9fb"/>
    <path id="Trazado_23223" data-name="Trazado 23223" d="M48.126-27.942l-2.022.871L45.6-28.487A.771.771,0,0,0,44.868-29H47.2a.771.771,0,0,1,.731.513Z" transform="translate(-9.973 -6.892)" fill="#a3c2f6"/>
    <path id="Trazado_23224" data-name="Trazado 23224" d="M49.7-24.2l-2.022.871-.311-.871-.91-2.566,2.022-.871Z" transform="translate(-10.327 -7.194)" fill="#e7ecfb"/>
    <path id="Trazado_23225" data-name="Trazado 23225" d="M53.271-13.95,50.51-15.14l-1.244-3.5-.428-1.19L51.6-18.64Z" transform="translate(-10.856 -8.93)" fill="#e7ecfb"/>
    <path id="Trazado_23226" data-name="Trazado 23226" d="M55.778-3.845H53.445a.778.778,0,0,0,.636-.331.778.778,0,0,0,.095-.711L51.423-12.61h-.008l-.428-1.19,2.761,1.19h.008l2.753,7.723a.778.778,0,0,1-.095.711A.778.778,0,0,1,55.778-3.845Z" transform="translate(-11.334 -10.271)" fill="#cad9fb"/>
    <path id="Trazado_23227" data-name="Trazado 23227" d="M30.779-2.925H1.77a.778.778,0,0,1-.762-.614L15.178-9.66Z" transform="translate(-0.224 -11.191)" fill="#e7ecfb"/>
    <path id="Trazado_23228" data-name="Trazado 23228" d="M8.712-11.456,2.988-8.983,4.512-13.26Z" transform="translate(-0.664 -10.391)" fill="#e7ecfb"/>
    <path id="Trazado_23229" data-name="Trazado 23229" d="M38.455-46.407a24.415,24.415,0,0,1-2.543,10.771,26.182,26.182,0,0,1-1.423,2.574,5.1,5.1,0,0,1-.311.482c-.327.506-.669,1-1,1.454a33.471,33.471,0,0,1-6.805,6.906h-.008c-.226.163-.35.249-.35.249l-.086-.062A26.712,26.712,0,0,1,22.8-26.645a35.945,35.945,0,0,1-2.784-2.979,31.986,31.986,0,0,1-2.17-2.955,5.112,5.112,0,0,1-.311-.482,26.215,26.215,0,0,1-1.423-2.574,24.416,24.416,0,0,1-2.543-10.771,12.443,12.443,0,0,1,6.222-10.776,12.444,12.444,0,0,1,12.443,0A12.443,12.443,0,0,1,38.455-46.407Z" transform="translate(-3.016 -0.257)" fill="#e7ecfb"/>
    <path id="Trazado_23230" data-name="Trazado 23230" d="M40.573-51.6A12.416,12.416,0,0,0,29.234-59c-.394,0-.778.025-1.167.061a12.559,12.559,0,0,1,11.277,12.5A24.415,24.415,0,0,1,36.8-35.668a26.183,26.183,0,0,1-1.423,2.574,5.1,5.1,0,0,1-.311.482c-.327.506-.669,1-1,1.454a33.969,33.969,0,0,1-6,6.279c.534.429.919.7,1.08.813l.086.062s.124-.086.35-.249h.008A33.471,33.471,0,0,0,36.4-31.158c.334-.459.677-.949,1-1.454a5.1,5.1,0,0,0,.311-.482,26.182,26.182,0,0,0,1.423-2.574A24.415,24.415,0,0,0,41.678-46.44,12.415,12.415,0,0,0,40.573-51.6Z" transform="translate(-6.239 -0.223)" fill="#cad9fb"/>
    <path id="Trazado_23231" data-name="Trazado 23231" d="M20.9-44H33.344a2.333,2.333,0,0,1,2.333,2.333v2.333a1.555,1.555,0,0,1-1.555,1.555h-14a1.555,1.555,0,0,1-1.555-1.555v-2.333A2.333,2.333,0,0,1,20.9-44Z" transform="translate(-4.127 -3.558)" fill="#e7ecfb"/>
    <path id="Trazado_23232" data-name="Trazado 23232" d="M34.366-45.556H20.93l1.525-3.559A3.111,3.111,0,0,1,25.314-51h4.666a3.111,3.111,0,0,1,2.86,1.885Z" transform="translate(-4.652 -2.002)" fill="#fff"/>
    <path id="Trazado_23233" data-name="Trazado 23233" d="M20.568-36h3.111v3.111a.778.778,0,0,1-.778.778H21.345a.778.778,0,0,1-.778-.778Z" transform="translate(-4.572 -5.336)" fill="#7eabfa"/>
    <path id="Trazado_23234" data-name="Trazado 23234" d="M34.568-36h3.111v3.111a.778.778,0,0,1-.778.778H35.345a.778.778,0,0,1-.778-.778Z" transform="translate(-7.684 -5.336)" fill="#7eabfa"/>
    <path id="Trazado_23235" data-name="Trazado 23235" d="M1-7.838a.778.778,0,0,0,.762.614H4.1a.778.778,0,0,1-.762-.614c-.067-.285-.089-.09,1.532-4.643h.008c2.663-7.472,4.715-13.2,5.708-16.005A.793.793,0,0,1,11.322-29H8.988a.793.793,0,0,0-.739.513C7.256-25.678,5.2-19.954,2.541-12.481H2.533C.913-7.929.934-8.124,1-7.838Z" transform="translate(-0.218 -6.892)" fill="#fff"/>
    <path id="Trazado_23236" data-name="Trazado 23236" d="M18.116-56.5l.949,1.233a12.024,12.024,0,0,0-3.574,4.54l-1.424-.63A13.582,13.582,0,0,1,18.116-56.5Z" transform="translate(-3.127 -0.779)" fill="#fff"/>
    <path id="Trazado_23237" data-name="Trazado 23237" d="M.011-14.746a.657.657,0,0,0,.005.068c.005.04,0,.078.009.121a1.555,1.555,0,0,0,1.52,1.22h42.9A1.555,1.555,0,0,0,45.717-14a1.555,1.555,0,0,0,.192-1.421l-2.752-7.718a.862.862,0,0,0-.044-.1l-4.419-12.4a1.555,1.555,0,0,0-1.465-1.034H34.1a24.963,24.963,0,0,0,2.117-9.991,13.2,13.2,0,0,0-7.291-11.95,13.2,13.2,0,0,0-13.936,1.331.769.769,0,0,0-.3.529.77.77,0,0,0,.177.583.788.788,0,0,0,1.074.121,11.7,11.7,0,0,1,12.268-1.106A11.7,11.7,0,0,1,34.661-46.66,24.31,24.31,0,0,1,30.8-33.7c-.065.112-.134.215-.2.318l-.086.13A32.836,32.836,0,0,1,23-25.184a30.318,30.318,0,0,1-2.671-2.276l-.005-.005a32.636,32.636,0,0,1-4.841-5.792l-.084-.127c-.069-.1-.138-.206-.217-.341A24.279,24.279,0,0,1,11.33-46.66,11.654,11.654,0,0,1,12.362-51.5a.778.778,0,0,0-.076-.774.778.778,0,0,0-.708-.321.778.778,0,0,0-.632.453A13.2,13.2,0,0,0,9.774-46.66,24.973,24.973,0,0,0,11.89-36.67H8.771A1.569,1.569,0,0,0,7.3-35.637L1.625-19.731a.79.79,0,0,0-.042.1l-1.5,4.206A1.508,1.508,0,0,0,.011-14.746Zm3.121-.147L14.953-20l11.835,5.106ZM38.924-30.356l.487,1.365-1.827-.788Zm-5.558-4.758h3.481l-4.576,1.976C32.668-33.792,33.028-34.451,33.366-35.114ZM30.657-30.75,37.7-33.79l.7,1.967-3.09,1.331a.778.778,0,0,0-.469.714.778.778,0,0,0,.469.714l4.813,2.074.958,2.687-9.729-4.2a.789.789,0,0,0-.615,0L27.57-27.141A34.53,34.53,0,0,0,30.657-30.75Zm-7.715,7.293c.018,0,.035.008.053.008a.783.783,0,0,0,.433-.131c.026-.017.136-.093.311-.216l7.311-3.145L41.811-22.3l2.634,7.4H39.891L21.5-22.833ZM8.771-35.114h3.853c.374.735.771,1.464,1.217,2.185.082.143.17.275.26.409l.078.112c.145.223.293.436.441.651L8.514-34.395Zm-.778,2.187,8.533,3.689c.642.768,1.278,1.468,1.884,2.084l-5.763,2.489L6.056-27.512ZM4.305-22.608l1.777.764L3.658-20.8ZM2.93-18.789l5.423-2.343a.778.778,0,0,0,.47-.714.778.778,0,0,0-.47-.714L4.829-24.075l.7-1.969,6.8,2.937a.778.778,0,0,0,.617,0l6.663-2.878c.676.622,1.273,1.127,1.755,1.511l-2.143.923a.778.778,0,0,0-.469.714.778.778,0,0,0,.469.714l16.742,7.23H30.713l-15.45-6.671a.778.778,0,0,0-.617,0L1.973-16.091Z" fill="#418cff"/>
    <path id="Trazado_23238" data-name="Trazado 23238" d="M17.616-53.122a.778.778,0,0,0-.778-.778h-.008a.778.778,0,0,0-.77.783.778.778,0,0,0,.78.773A.778.778,0,0,0,17.616-53.122Z" transform="translate(-3.57 -1.357)" fill="#418cff"/>
    <path id="Trazado_23239" data-name="Trazado 23239" d="M31.567-34.89h1.555a1.555,1.555,0,0,0,1.555-1.555v-2.476a2.333,2.333,0,0,0,1.555-2.19v-2.333a3.111,3.111,0,0,0-2.012-2.9l-1.41-3.3A3.883,3.883,0,0,0,29.233-52H24.567a3.883,3.883,0,0,0-3.577,2.357l-1.41,3.3a3.111,3.111,0,0,0-2.012,2.9v2.333a2.333,2.333,0,0,0,1.555,2.19v2.476a1.555,1.555,0,0,0,1.555,1.555h1.555a1.555,1.555,0,0,0,1.555-1.555v-2.333h6.222v2.333A1.555,1.555,0,0,0,31.567-34.89Zm1.555-1.555H31.567v-2.333h1.555Zm-10.7-12.585a2.333,2.333,0,0,1,2.145-1.414h4.666a2.333,2.333,0,0,1,2.145,1.414l1.06,2.475H21.362Zm-.188,12.585H20.679v-2.333h1.555ZM33.9-40.334h-14a.778.778,0,0,1-.778-.778v-.778h3.111a.778.778,0,0,0,.778-.778.778.778,0,0,0-.778-.778H19.123A1.555,1.555,0,0,1,20.679-45H33.122a1.555,1.555,0,0,1,1.555,1.555H31.567a.778.778,0,0,0-.778.778.778.778,0,0,0,.778.778h3.111v.778A.778.778,0,0,1,33.9-40.334Z" transform="translate(-3.905 -1.779)" fill="#418cff"/>
    <path id="Trazado_23240" data-name="Trazado 23240" d="M30.456-41H27.345a.778.778,0,0,0-.778.778.778.778,0,0,0,.778.778h3.111a.778.778,0,0,0,.778-.778A.778.778,0,0,0,30.456-41Z" transform="translate(-5.906 -4.224)" fill="#418cff"/>
  </g>
</svg>
