<svg xmlns="http://www.w3.org/2000/svg" width="42.885" height="37.167" viewBox="0 0 42.885 37.167">
  <g id="Grupo_2656" data-name="Grupo 2656" transform="translate(0 443.734)">
    <path id="Trazado_24458" data-name="Trazado 24458" d="M179.2-226.828h12.866V-230.4H179.2Z" transform="translate(-164.189 -195.464)" fill="#7eabfa"/>
    <path id="Trazado_24459" data-name="Trazado 24459" d="M179.2-226.828H189.92V-230.4H179.2Z" transform="translate(-164.189 -195.464)" fill="#a3c2f6"/>
    <path id="Trazado_24460" data-name="Trazado 24460" d="M42.885-434.013v6.718a2.151,2.151,0,0,1-2.144,2.144H38.6a1.093,1.093,0,0,1-.307-.043,1.4,1.4,0,0,1-1.037-.893.7.7,0,0,1-.086-.343,3.87,3.87,0,0,0-.336-1.58c-.057-.122-.121-.243-.186-.357a3.483,3.483,0,0,0-.936-1.072,3.363,3.363,0,0,0-1.644-.686,3.579,3.579,0,0,0-1.9.272,3.911,3.911,0,0,0-.708.415,3.518,3.518,0,0,0-.95,1.072,3.343,3.343,0,0,0-.186.357,3.464,3.464,0,0,0-.3,1.43,1.434,1.434,0,0,1-1.43,1.429H14.3a1.437,1.437,0,0,1-1.344-.936.7.7,0,0,1-.086-.343,3.87,3.87,0,0,0-.336-1.58c-.057-.122-.121-.243-.186-.357a3.487,3.487,0,0,0-.936-1.072,3.363,3.363,0,0,0-1.644-.686,3.566,3.566,0,0,0-1.9.272,3.908,3.908,0,0,0-.708.415,3.514,3.514,0,0,0-.95,1.072,3.329,3.329,0,0,0-.186.357,3.464,3.464,0,0,0-.3,1.43,1.434,1.434,0,0,1-1.429,1.429H2.144a2.367,2.367,0,0,1-.393-.036A2.154,2.154,0,0,1,0-427.295v-5.789a4.269,4.269,0,0,1,3.252-4.16l1.7-.429a3.5,3.5,0,0,0,1.83-1.115L8.977-441.3a7.141,7.141,0,0,1,5.375-2.437h8.656a6.466,6.466,0,0,1,4.017,1.408l4.367,3.5a5.054,5.054,0,0,0,2.416,1.043l3.817.543,2.8.4A2.874,2.874,0,0,1,42.885-434.013Z" transform="translate(0)" fill="#cad9fb"/>
    <path id="Trazado_24461" data-name="Trazado 24461" d="M40.026-434.013v6.718a2.147,2.147,0,0,1-1.737,2.1,1.4,1.4,0,0,1-1.037-.893.7.7,0,0,1-.086-.343,3.87,3.87,0,0,0-.336-1.58c-.057-.122-.121-.243-.186-.357a3.483,3.483,0,0,0-.936-1.072,3.363,3.363,0,0,0-1.644-.686,3.579,3.579,0,0,0-1.9.272,3.347,3.347,0,0,0-.958-.272c-.944-.122.257.136-.472.686a3.514,3.514,0,0,0-.951,1.072,3.343,3.343,0,0,0-.186.357,3.465,3.465,0,0,0-.3,1.43,1.434,1.434,0,0,1-1.429,1.429H16.432a1.437,1.437,0,0,1-1.343-.936c-.057-.1-1.508-.221-1.508-.343,0-.543.222-1.086,0-1.58-.057-.122.064-.243,0-.357-.243-.429.336-.793-.036-1.072a3.364,3.364,0,0,0-1.644-.686c-.665-.086-1.315-1-1.9-.743-.3-.136-.622.043-.958,0-.943-.122-1.873.879-2.609,1.43a3.519,3.519,0,0,0-.951,1.072,3.452,3.452,0,0,0-.186.357,3.469,3.469,0,0,0-.3,1.43c0,.672-2.609,1.244-3.245,1.394A2.154,2.154,0,0,1,0-427.295v-5.789a4.269,4.269,0,0,1,3.252-4.16l1.7-.429a3.5,3.5,0,0,0,1.83-1.115L8.977-441.3a7.141,7.141,0,0,1,5.375-2.437h5.8a6.466,6.466,0,0,1,4.017,1.408l4.367,3.5a5.054,5.054,0,0,0,2.416,1.043l6.619.944A2.874,2.874,0,0,1,40.026-434.013Z" transform="translate(0)" fill="#e7ecfb"/>
    <path id="Trazado_24462" data-name="Trazado 24462" d="M257.833-421.665h-9.649a.717.717,0,0,1-.715-.715v-3.574a.713.713,0,0,1,.55-.693s.007-.007.007,0a.557.557,0,0,1,.157-.022h1.565a5.005,5.005,0,0,1,3.124,1.093l4.367,3.5A5.561,5.561,0,0,0,257.833-421.665Z" transform="translate(-226.741 -15.636)" fill="#cad9fb"/>
    <path id="Trazado_24463" data-name="Trazado 24463" d="M255.689-421.463h-7.5a.717.717,0,0,1-.715-.715v-3.573a.712.712,0,0,1,.55-.693s.007-.007.007,0a4.954,4.954,0,0,1,2.7,1.072l4.367,3.5A5.52,5.52,0,0,0,255.689-421.463Z" transform="translate(-226.741 -15.838)" fill="#e7ecfb"/>
    <path id="Trazado_24464" data-name="Trazado 24464" d="M97.775-425.953v3.573a.715.715,0,0,1-.715.715H87.211a4.424,4.424,0,0,0,.55-.543l2.194-2.509a5.714,5.714,0,0,1,4.3-1.951h2.8a.715.715,0,0,1,.505.209A.715.715,0,0,1,97.775-425.953Z" transform="translate(-79.906 -15.637)" fill="#e7ecfb"/>
    <path id="Trazado_24465" data-name="Trazado 24465" d="M86.762-68.266h25.731a1.429,1.429,0,0,1,1.429,1.429v2.144a1.429,1.429,0,0,1-1.429,1.429H86.762a1.429,1.429,0,0,1-1.43-1.429v-2.144A1.429,1.429,0,0,1,86.762-68.266Z" transform="translate(-78.185 -344.019)" fill="#7eabfa"/>
    <path id="Trazado_24466" data-name="Trazado 24466" d="M86.762-68.266h23.587a1.429,1.429,0,0,1,1.429,1.429v2.144a1.429,1.429,0,0,1-1.429,1.429H86.762a1.429,1.429,0,0,1-1.43-1.429v-2.144A1.429,1.429,0,0,1,86.762-68.266Z" transform="translate(-78.185 -344.019)" fill="#a3c2f6"/>
    <path id="Trazado_24467" data-name="Trazado 24467" d="M9.6-425.186a2.366,2.366,0,0,0,.393.036H12.14a2.36,2.36,0,0,1-.393-.036A2.155,2.155,0,0,1,10-427.295v-5.789a4.269,4.269,0,0,1,3.252-4.16l2.123-.429a3.5,3.5,0,0,0,1.83-1.115l2.194-2.509a7.142,7.142,0,0,1,5.375-2.437H22.625A7.141,7.141,0,0,0,17.25-441.3l-2.194,2.509a4.788,4.788,0,0,1-2.251,1.115l-1.7.429a4.269,4.269,0,0,0-3.252,4.16v5.789A2.154,2.154,0,0,0,9.6-425.186Z" transform="translate(-7.194)" fill="#fff"/>
    <path id="Trazado_24468" data-name="Trazado 24468" d="M86.762-63.263h2.144a1.434,1.434,0,0,1-1.429-1.429v-2.144a1.434,1.434,0,0,1,1.429-1.429H86.762a1.434,1.434,0,0,0-1.43,1.429v2.144A1.434,1.434,0,0,0,86.762-63.263Z" transform="translate(-78.185 -344.019)" fill="#fff"/>
    <path id="Trazado_24469" data-name="Trazado 24469" d="M258.859-339.906h-2.144a.715.715,0,0,1-.715-.715.715.715,0,0,1,.715-.715h2.144a.715.715,0,0,1,.715.715A.715.715,0,0,1,258.859-339.906Z" transform="translate(-234.558 -93.821)" fill="#418cff"/>
    <path id="Trazado_24470" data-name="Trazado 24470" d="M130.859-339.906h-2.144a.715.715,0,0,1-.715-.715.715.715,0,0,1,.715-.715h2.144a.715.715,0,0,1,.715.715A.715.715,0,0,1,130.859-339.906Z" transform="translate(-117.279 -93.821)" fill="#418cff"/>
    <path id="Trazado_24471" data-name="Trazado 24471" d="M75.8-436.587H63.946a.715.715,0,0,1-.715-.715.715.715,0,0,1,.715-.715H75.089v-5a.715.715,0,0,1,.715-.715.715.715,0,0,1,.715.715v5.718A.715.715,0,0,1,75.8-436.587Z" transform="translate(-57.934)" fill="#418cff"/>
    <path id="Trazado_24472" data-name="Trazado 24472" d="M251.678-436.587H239.649a.715.715,0,0,1-.715-.715v-5.718a.715.715,0,0,1,.715-.715.715.715,0,0,1,.715.715v5h11.314a.715.715,0,0,1,.715.715A.715.715,0,0,1,251.678-436.587Z" transform="translate(-218.921)" fill="#418cff"/>
    <path id="Trazado_24473" data-name="Trazado 24473" d="M464.375-322.836h-2.859a.715.715,0,0,1-.715-.715.715.715,0,0,1,.715-.715h2.859a.715.715,0,0,1,.715.715A.715.715,0,0,1,464.375-322.836Z" transform="translate(-422.205 -109.462)" fill="#418cff"/>
    <path id="Trazado_24474" data-name="Trazado 24474" d="M179.909-130.148a.715.715,0,0,1-.7-.568.715.715,0,0,1,.414-.8l11.436-5a.714.714,0,0,1,.717.073.715.715,0,0,1,.289.661.714.714,0,0,1-.433.576l-11.436,5A.713.713,0,0,1,179.909-130.148Z" transform="translate(-164.184 -281.422)" fill="#418cff"/>
    <path id="Trazado_24475" data-name="Trazado 24475" d="M191.463-130.057a.709.709,0,0,1-.286-.06l-11.436-5a.715.715,0,0,1-.359-.937.715.715,0,0,1,.932-.372l11.436,5a.715.715,0,0,1,.414.8A.714.714,0,0,1,191.463-130.057Z" transform="translate(-164.303 -281.514)" fill="#418cff"/>
    <path id="Trazado_24476" data-name="Trazado 24476" d="M179.909-189.882a.714.714,0,0,1-.7-.568.715.715,0,0,1,.414-.8l11.436-5a.715.715,0,0,1,.717.073.715.715,0,0,1,.289.661.714.714,0,0,1-.433.576l-11.436,5A.713.713,0,0,1,179.909-189.882Z" transform="translate(-164.184 -226.691)" fill="#418cff"/>
    <path id="Trazado_24477" data-name="Trazado 24477" d="M191.463-189.789a.708.708,0,0,1-.286-.06l-11.436-5a.715.715,0,0,1-.359-.937.715.715,0,0,1,.932-.372l11.436,5a.714.714,0,0,1,.414.8A.714.714,0,0,1,191.463-189.789Z" transform="translate(-164.303 -226.784)" fill="#418cff"/>
    <path id="Trazado_24478" data-name="Trazado 24478" d="M442.013-271.637h-4.9a.715.715,0,0,1-.715-.715.715.715,0,0,1,.715-.715h4.9a.715.715,0,0,1,.715.715A.715.715,0,0,1,442.013-271.637Z" transform="translate(-399.843 -156.373)" fill="#418cff"/>
    <path id="Trazado_24479" data-name="Trazado 24479" d="M163.895-271.637H146.977a.715.715,0,0,1-.715-.715.715.715,0,0,1,.715-.715h16.918a.715.715,0,0,1,.715.715A.715.715,0,0,1,163.895-271.637Z" transform="translate(-134.011 -156.373)" fill="#418cff"/>
    <path id="Trazado_24480" data-name="Trazado 24480" d="M5.582-271.637H.715A.715.715,0,0,1,0-272.351a.715.715,0,0,1,.715-.715H5.582a.715.715,0,0,1,.715.715A.715.715,0,0,1,5.582-271.637Z" transform="translate(0 -156.373)" fill="#418cff"/>
    <path id="Trazado_24481" data-name="Trazado 24481" d="M0-356.312v-5.811a4.281,4.281,0,0,1,3.252-4.139l.342,1.388a2.826,2.826,0,0,0-.9.4,2.854,2.854,0,0,0-1.265,2.36v5.8Z" transform="translate(0 -70.983)" fill="#fff"/>
    <path id="Trazado_24482" data-name="Trazado 24482" d="M.715-290.133a.717.717,0,0,0-.715.715v2.859H1.43v-2.859A.716.716,0,0,0,.715-290.133Z" transform="translate(0 -140.735)" fill="#418cff"/>
    <path id="Trazado_24483" data-name="Trazado 24483" d="M14.654-364.87l-.342-1.388a4.245,4.245,0,0,0-2.013,1.145.673.673,0,0,0-.228.542.672.672,0,0,0,.286.514.8.8,0,0,0,.959-.051A2.817,2.817,0,0,1,14.654-364.87Z" transform="translate(-11.06 -70.987)" fill="#418cff"/>
    <path id="Trazado_24484" data-name="Trazado 24484" d="M0-323.627a.753.753,0,0,0,.207.507l.107.086a.543.543,0,0,0,.129.064.461.461,0,0,0,.129.043,1.1,1.1,0,0,0,.143.014.751.751,0,0,0,.507-.207.744.744,0,0,0,.193-.634.705.705,0,0,0-.168-.319.931.931,0,0,0-.217-.166.8.8,0,0,0-.258-.1.64.64,0,0,0-.533.144A.812.812,0,0,0,0-323.627Z" transform="translate(0 -109.386)" fill="#418cff"/>
    <path id="Trazado_24485" data-name="Trazado 24485" d="M40.741-425.151H38.6a1.433,1.433,0,0,1-1.342-.936.71.71,0,0,1-.088-.344,3.871,3.871,0,0,0-.519-1.936,3.512,3.512,0,0,0-2.581-1.758,3.578,3.578,0,0,0-3.565,1.758,3.5,3.5,0,0,0-.483,1.786,1.431,1.431,0,0,1-1.43,1.429H14.3a1.432,1.432,0,0,1-1.342-.936.708.708,0,0,1-.088-.344,3.871,3.871,0,0,0-.519-1.936,3.512,3.512,0,0,0-2.581-1.758A3.578,3.578,0,0,0,6.2-428.366a3.5,3.5,0,0,0-.483,1.786,1.431,1.431,0,0,1-1.429,1.429H2.145A2.147,2.147,0,0,1,0-427.295a.715.715,0,0,1,.715-.715.715.715,0,0,1,.715.715.716.716,0,0,0,.715.715H4.289a4.928,4.928,0,0,1,.679-2.508,5,5,0,0,1,4.982-2.454,4.93,4.93,0,0,1,3.634,2.457,5.307,5.307,0,0,1,.707,2.417.716.716,0,0,1,.005.088H28.59a4.932,4.932,0,0,1,.679-2.508,5,5,0,0,1,4.982-2.454,4.931,4.931,0,0,1,3.635,2.457,5.311,5.311,0,0,1,.707,2.417.788.788,0,0,1,0,.088h2.144a.716.716,0,0,0,.715-.715v-6.718a1.437,1.437,0,0,0-1.23-1.415l-6.619-.943a6.414,6.414,0,0,1-3.105-1.344l-4.367-3.5a5.045,5.045,0,0,0-3.127-1.093H14.352a5.722,5.722,0,0,0-4.3,1.951l-2.193,2.508a4.934,4.934,0,0,1-2.563,1.561l-1.7.428a.715.715,0,0,1-.687-.2.715.715,0,0,1-.175-.693.715.715,0,0,1,.513-.5l1.7-.429a3.516,3.516,0,0,0,1.83-1.113l2.2-2.51a7.153,7.153,0,0,1,5.377-2.438h8.656a6.479,6.479,0,0,1,4.019,1.406l4.369,3.5a4.982,4.982,0,0,0,2.413,1.043l6.619.944a2.873,2.873,0,0,1,2.458,2.831v6.718A2.147,2.147,0,0,1,40.741-425.151Z" transform="translate(0)" fill="#418cff"/>
    <path id="Trazado_24486" data-name="Trazado 24486" d="M184.248-233.93H171.383a.715.715,0,0,1-.715-.715v-3.574a.715.715,0,0,1,.715-.715h12.866a.715.715,0,0,1,.715.715v3.574A.715.715,0,0,1,184.248-233.93Zm-12.151-1.43h11.436V-237.5H172.1Z" transform="translate(-156.373 -187.647)" fill="#418cff"/>
    <path id="Trazado_24487" data-name="Trazado 24487" d="M104.676-70.368H78.945A2.147,2.147,0,0,1,76.8-72.512v-2.144A2.147,2.147,0,0,1,78.945-76.8h25.731a2.147,2.147,0,0,1,2.144,2.144v2.144A2.147,2.147,0,0,1,104.676-70.368Zm-25.731-5a.716.716,0,0,0-.715.715v2.144a.716.716,0,0,0,.715.715h25.731a.716.716,0,0,0,.715-.715v-2.144a.716.716,0,0,0-.715-.715Z" transform="translate(-70.368 -336.199)" fill="#418cff"/>
  </g>
</svg>
