<svg xmlns="http://www.w3.org/2000/svg" width="34.515" height="34.463" viewBox="0 0 34.515 34.463">
  <g id="Grupo_2711" data-name="Grupo 2711" transform="translate(0 511.231)">
    <path id="Trazado_24721" data-name="Trazado 24721" d="M77.557-157.665H49.749l10.429-8.642,2.008-1.66a2.29,2.29,0,0,1,2.934,0l2.008,1.66Z" transform="translate(-46.396 -319.629)" fill="#e7ecfb"/>
    <path id="Trazado_24722" data-name="Trazado 24722" d="M21.741-287.438,11.312-278.8h-.477a2.3,2.3,0,0,1-1.628-.675,2.3,2.3,0,0,1-.673-1.629v-17.285l4.027,3.336Z" transform="translate(-7.958 -198.498)" fill="#cad9fb"/>
    <path id="Trazado_24723" data-name="Trazado 24723" d="M320.749-298.385V-281.1a2.3,2.3,0,0,1-.673,1.629,2.3,2.3,0,0,1-1.628.675h-.477l-10.429-8.642,9.181-7.611Z" transform="translate(-286.809 -198.498)" fill="#cad9fb"/>
    <path id="Trazado_24724" data-name="Trazado 24724" d="M459.563-296.956V-281.1a2.3,2.3,0,0,1-1.323,2.08l.27.225h.477a2.3,2.3,0,0,0,1.628-.675,2.3,2.3,0,0,0,.673-1.629v-17.285Z" transform="translate(-427.349 -198.498)" fill="#a3c2f6"/>
    <path id="Trazado_24725" data-name="Trazado 24725" d="M186.232-498.729H175.36l3.969-3.457a2.321,2.321,0,0,1,2.934,0Z" transform="translate(-163.539 -7.948)" fill="#a3c2f6"/>
    <path id="Trazado_24726" data-name="Trazado 24726" d="M447.76-346.922l-4.027,3.336v-6.844Z" transform="translate(-413.82 -149.961)" fill="#a3c2f6"/>
    <path id="Trazado_24727" data-name="Trazado 24727" d="M12.56-350.43v6.844l-4.027-3.336Z" transform="translate(-7.958 -149.961)" fill="#a3c2f6"/>
    <path id="Trazado_24728" data-name="Trazado 24728" d="M93.578-441.369v10.826L84.4-422.933l-2.008-1.66a2.29,2.29,0,0,0-2.934,0l-2.008,1.66-9.181-7.611v-10.826A2.3,2.3,0,0,1,68.939-443a2.3,2.3,0,0,1,1.628-.675H91.277a2.3,2.3,0,0,1,1.628.675A2.3,2.3,0,0,1,93.578-441.369Z" transform="translate(-63.665 -63.003)" fill="#fff"/>
    <path id="Trazado_24729" data-name="Trazado 24729" d="M302.468-443.674h-1.726a2.3,2.3,0,0,1,1.628.675,2.3,2.3,0,0,1,.673,1.629v10.826l-8.319,6.9.863.714,9.182-7.611v-10.826A2.3,2.3,0,0,0,304.1-443,2.3,2.3,0,0,0,302.468-443.674Z" transform="translate(-274.856 -63.003)" fill="#e7ecfb"/>
    <path id="Trazado_24730" data-name="Trazado 24730" d="M10.834-414.291H12.56a2.3,2.3,0,0,1-1.628-.675,2.3,2.3,0,0,1-.673-1.629V-433.88l4.027-3.509v-3.981A2.3,2.3,0,0,1,14.959-443a2.3,2.3,0,0,1,1.628-.675H14.861a2.3,2.3,0,0,0-1.628.675,2.3,2.3,0,0,0-.673,1.629v3.981l-4.027,3.509V-416.6a2.3,2.3,0,0,0,.673,1.629A2.3,2.3,0,0,0,10.834-414.291Z" transform="translate(-7.958 -63.003)" fill="#fff"/>
    <path id="Trazado_24731" data-name="Trazado 24731" d="M0-106.323H1.151v-4.6H0Z" transform="translate(0 -373.321)" fill="#fff"/>
    <path id="Trazado_24732" data-name="Trazado 24732" d="M.706-84.174a.575.575,0,0,1-.578-.572A.575.575,0,0,1,.7-85.325H.706a.575.575,0,0,1,.575.575A.575.575,0,0,1,.706-84.174Z" transform="translate(-0.119 -397.195)" fill="#418cff"/>
    <path id="Trazado_24733" data-name="Trazado 24733" d="M34.317-497.336l-3.829-3.331v-3.713a2.88,2.88,0,0,0-2.876-2.876h-4.7l-3.819-3.32a2.89,2.89,0,0,0-3.677.009l-3.808,3.311H6.9a2.88,2.88,0,0,0-2.876,2.876v3.713L.2-497.336a.647.647,0,0,0-.18.332.558.558,0,0,0-.012.1H0v12.655a.575.575,0,0,0,.575.575.575.575,0,0,0,.575-.575v-11.433l11.729,9.706-9.733,8.053h-.27a1.726,1.726,0,0,1-1.726-1.726.575.575,0,0,0-.575-.575.575.575,0,0,0-.575.575,2.88,2.88,0,0,0,2.876,2.876H31.639a2.88,2.88,0,0,0,2.876-2.876V-496.9A.67.67,0,0,0,34.317-497.336Zm-1.266.423-2.563,2.12v-4.349Zm-16.9-12.776a1.73,1.73,0,0,1,2.191-.01l2.808,2.442h-7.8Zm-12.13,14.9L1.465-496.91l2.562-2.231Zm1.151.952v-10.54A1.726,1.726,0,0,1,6.9-506.105H27.612a1.726,1.726,0,0,1,1.726,1.726v10.54l-8.605,7.121-1.641-1.358a2.88,2.88,0,0,0-3.668,0l-1.641,1.358Zm10.98,6.652a1.726,1.726,0,0,1,2.2,0l11.206,9.272H4.951Zm15.482,9.27h-.27l-9.733-8.054,11.729-9.707v16.035A1.726,1.726,0,0,1,31.639-477.918Z" transform="translate(0 0)" fill="#418cff"/>
    <path id="Trazado_24734" data-name="Trazado 24734" d="M157.5-398.613A1.257,1.257,0,0,0,156.4-398l-6.1,10.232a1.217,1.217,0,0,0,0,1.255,1.257,1.257,0,0,0,1.082.617H163.6a1.256,1.256,0,0,0,1.082-.617,1.217,1.217,0,0,0,0-1.255L158.588-398A1.257,1.257,0,0,0,157.5-398.613Zm0,1a.317.317,0,0,1,.23.12l6.1,10.232a.266.266,0,0,1,0,.23.277.277,0,0,1-.22.126H151.389a.277.277,0,0,1-.22-.126.266.266,0,0,1,0-.23l6.1-10.232A.317.317,0,0,1,157.5-397.609Zm0,3.179a.5.5,0,0,0-.5.5v4.015a.5.5,0,0,0,.5.5.5.5,0,0,0,.5-.5v-4.015A.5.5,0,0,0,157.5-394.43Zm0,5.354a.669.669,0,0,0-.669.669.669.669,0,0,0,.669.669.669.669,0,0,0,.669-.669A.669.669,0,0,0,157.5-389.077Z" transform="translate(-140.012 -105.027)" fill="#418cff"/>
  </g>
</svg>
