<svg xmlns="http://www.w3.org/2000/svg" width="39.636" height="47.028" viewBox="0 0 39.636 47.028">
  <g id="Grupo_2679" data-name="Grupo 2679" transform="translate(-64.134 -544.972)">
    <g id="Grupo_2662" data-name="Grupo 2662" transform="translate(64.134 1057.254)">
      <path id="Trazado_24516" data-name="Trazado 24516" d="M40.8-466.129H10.108a1.567,1.567,0,0,1-1.432-.918,1.567,1.567,0,0,1,.249-1.683l2.052-2.334a4.738,4.738,0,0,0,1.159-3.094V-486.5a10.972,10.972,0,0,1,9.009-10.795A2.359,2.359,0,0,0,23.1-499.6v-1.778a2.35,2.35,0,0,1,.732-1.708,2.35,2.35,0,0,1,1.743-.642,2.45,2.45,0,0,1,2.225,2.483v1.645a2.359,2.359,0,0,0,1.958,2.311,10.99,10.99,0,0,1,8.288,6.878H32.5a1.571,1.571,0,0,0-1.567,1.567v10.967a1.572,1.572,0,0,0,1.567,1.567h6.267v2.154a4.738,4.738,0,0,0,1.159,3.094l2.052,2.334a1.567,1.567,0,0,1,.249,1.683A1.567,1.567,0,0,1,40.8-466.129Z" transform="translate(-7.752 -7.764)" fill="#e7ecfb"/>
      <path id="Trazado_24517" data-name="Trazado 24517" d="M180.985-501.244v1.645a2.359,2.359,0,0,0,1.958,2.311,10.99,10.99,0,0,1,8.288,6.878h2.35a10.99,10.99,0,0,0-8.288-6.878,2.359,2.359,0,0,1-1.958-2.311v-1.645a2.45,2.45,0,0,0-2.225-2.483,2.334,2.334,0,0,0-1.323.331A2.539,2.539,0,0,1,180.985-501.244Z" transform="translate(-163.283 -7.766)" fill="#cad9fb"/>
      <path id="Trazado_24518" data-name="Trazado 24518" d="M229.317-346.1v-10.967a1.571,1.571,0,0,1,1.567-1.567h-2.35a1.571,1.571,0,0,0-1.567,1.567V-346.1a1.572,1.572,0,0,0,1.567,1.567h2.35A1.572,1.572,0,0,1,229.317-346.1Z" transform="translate(-206.131 -139.546)" fill="#cad9fb"/>
      <path id="Trazado_24519" data-name="Trazado 24519" d="M317.863-197.447l-2.052-2.334a4.738,4.738,0,0,1-1.159-3.094v-2.154H312.3v2.154a4.738,4.738,0,0,0,1.159,3.094l2.052,2.334a1.567,1.567,0,0,1,.249,1.683,1.567,1.567,0,0,1-1.432.918h2.35a1.567,1.567,0,0,0,1.432-.918A1.567,1.567,0,0,0,317.863-197.447Z" transform="translate(-283.632 -279.046)" fill="#cad9fb"/>
      <path id="Trazado_24520" data-name="Trazado 24520" d="M164.184-91.449V-94.1h-4.7v2.648a3.133,3.133,0,0,0,.181,4.334,3.133,3.133,0,0,0,4.338,0A3.133,3.133,0,0,0,164.184-91.449Z" transform="translate(-144.132 -379.795)" fill="#a3c2f6"/>
      <path id="Trazado_24521" data-name="Trazado 24521" d="M268.234-357.063a1.567,1.567,0,0,0-1.567-1.567H254.134a1.567,1.567,0,0,0-1.567,1.567V-346.1a1.568,1.568,0,0,0,1.567,1.567h12.534a1.568,1.568,0,0,0,1.567-1.567Z" transform="translate(-229.381 -139.546)" fill="#ff8925" fill-rule="evenodd"/>
      <path id="Trazado_24522" data-name="Trazado 24522" d="M382.917-358.63h-2.35a1.571,1.571,0,0,1,1.567,1.567V-346.1a1.572,1.572,0,0,1-1.567,1.567h2.35a1.572,1.572,0,0,0,1.567-1.567v-10.967A1.571,1.571,0,0,0,382.917-358.63Z" transform="translate(-345.631 -139.546)" fill="#db5f18"/>
      <path id="Trazado_24523" data-name="Trazado 24523" d="M10.108-466.122h2.35a1.567,1.567,0,0,1-1.432-.918,1.567,1.567,0,0,1,.249-1.683l2.052-2.334a4.738,4.738,0,0,0,1.159-3.094v-12.338A10.972,10.972,0,0,1,23.5-497.284a2.359,2.359,0,0,0,1.958-2.311v-1.778a2.35,2.35,0,0,1,1.156-2.016,2.2,2.2,0,0,0-1.031-.334,2.363,2.363,0,0,0-1.739.647,2.363,2.363,0,0,0-.736,1.7v1.778a2.359,2.359,0,0,1-1.958,2.311,10.972,10.972,0,0,0-9.009,10.795v12.338a4.738,4.738,0,0,1-1.159,3.094l-2.052,2.334a1.567,1.567,0,0,0-.249,1.683A1.567,1.567,0,0,0,10.108-466.122Z" transform="translate(-7.752 -7.77)" fill="#fff"/>
      <path id="Trazado_24524" data-name="Trazado 24524" d="M161.9-86.263a3.126,3.126,0,0,0,1.175-.23,3.123,3.123,0,0,1-1.867-2.174,3.123,3.123,0,0,1,.692-2.781V-94.1h-2.35v2.648a3.124,3.124,0,0,0-.5,3.351A3.124,3.124,0,0,0,161.9-86.263Z" transform="translate(-144.194 -379.795)" fill="#fff"/>
      <path id="Trazado_24525" data-name="Trazado 24525" d="M39.234-243.564H40.8v-6.267H39.234Z" transform="translate(-35.632 -238.358)" fill="#fff"/>
      <path id="Trazado_24526" data-name="Trazado 24526" d="M40.018-224.23a.784.784,0,0,1,.783.783.784.784,0,0,1-.783.783.784.784,0,0,1-.783-.783A.784.784,0,0,1,40.018-224.23Z" transform="translate(-35.632 -261.609)" fill="#418cff" fill-rule="evenodd"/>
      <path id="Trazado_24527" data-name="Trazado 24527" d="M2.637-479.345.582-477.007a2.35,2.35,0,0,0-.371,2.522,2.35,2.35,0,0,0,2.145,1.376H14.569v1.588a3.917,3.917,0,0,0,.5,5.248,3.917,3.917,0,0,0,5.271,0,3.917,3.917,0,0,0,.5-5.248v-1.588H33.048a2.35,2.35,0,0,0,2.146-1.379,2.35,2.35,0,0,0-.374-2.523l-2.048-2.33a3.952,3.952,0,0,1-.969-2.582v-1.371h5.483a2.35,2.35,0,0,0,2.35-2.35V-496.61a2.35,2.35,0,0,0-2.35-2.35H30.819a11.809,11.809,0,0,0-8.669-6.865,1.579,1.579,0,0,1-1.314-1.54v-1.645a3.252,3.252,0,0,0-2.967-3.267,3.1,3.1,0,0,0-2.322.862,3.152,3.152,0,0,0-.978,2.272v1.778a1.578,1.578,0,0,1-1.314,1.54A11.737,11.737,0,0,0,3.6-494.26v6.071a.783.783,0,0,0,.783.783.783.783,0,0,0,.783-.783v-6.071a10.172,10.172,0,0,1,8.365-10.027,3.144,3.144,0,0,0,2.6-3.079v-1.778a1.567,1.567,0,0,1,.488-1.138,1.567,1.567,0,0,1,1.161-.429,1.666,1.666,0,0,1,1.484,1.7v1.645a3.144,3.144,0,0,0,2.6,3.079,10.234,10.234,0,0,1,7.207,5.327H24.752a2.35,2.35,0,0,0-2.35,2.35v10.967a2.35,2.35,0,0,0,2.35,2.35h5.483v1.371a5.527,5.527,0,0,0,1.355,3.611l2.049,2.331a.783.783,0,0,1,.128.844.783.783,0,0,1-.719.46H2.356a.783.783,0,0,1-.719-.458.783.783,0,0,1,.124-.843l2.057-2.339a5.525,5.525,0,0,0,1.35-3.607.783.783,0,0,0-.783-.783.783.783,0,0,0-.783.783A3.95,3.95,0,0,1,2.637-479.345Zm21.332-6.3V-496.61a.783.783,0,0,1,.783-.783H37.286a.783.783,0,0,1,.783.783v10.967a.783.783,0,0,1-.783.783H24.752A.783.783,0,0,1,23.969-485.643Zm-4.7,12.534v1.864a.783.783,0,0,0,.194.515,2.324,2.324,0,0,1,.59,1.538,2.35,2.35,0,0,1-2.35,2.35,2.35,2.35,0,0,1-2.35-2.35,2.324,2.324,0,0,1,.59-1.538.783.783,0,0,0,.193-.515v-1.864Z" transform="translate(0)" fill="#418cff"/>
      <path id="Trazado_24528" data-name="Trazado 24528" d="M57.084-135.2h1.567a.783.783,0,0,0,.783-.783.783.783,0,0,0-.783-.783H57.084a.783.783,0,0,0-.783.783A.783.783,0,0,0,57.084-135.2Z" transform="translate(-51.132 -341.045)" fill="#418cff"/>
      <path id="Trazado_24529" data-name="Trazado 24529" d="M122.385-135.2a.783.783,0,0,0,.783-.783.783.783,0,0,0-.783-.783h-14.1a.783.783,0,0,0-.783.783.783.783,0,0,0,.783.783Z" transform="translate(-97.632 -341.045)" fill="#418cff"/>
      <path id="Trazado_24530" data-name="Trazado 24530" d="M297.584-135.2a.783.783,0,0,0,.783-.783.783.783,0,0,0-.783-.783h-1.567a.783.783,0,0,0-.783.783.783.783,0,0,0,.783.783Z" transform="translate(-268.131 -341.045)" fill="#418cff"/>
    </g>
    <text id="_4" data-name="4" transform="translate(92 570)" fill="#fff" font-size="12" font-family="GTWalsheimPro-Medium, GT Walsheim Pro" font-weight="500"><tspan x="0" y="0">4</tspan></text>
  </g>
</svg>
