<svg xmlns="http://www.w3.org/2000/svg" width="42.866" height="42.857" viewBox="0 0 42.866 42.857">
  <g id="Grupo_2697" data-name="Grupo 2697" transform="translate(0 511.976)">
    <path id="Trazado_24681" data-name="Trazado 24681" d="M106.79-437.242V-425.1h-30v-12.143a15,15,0,0,1,7.5-12.991,15,15,0,0,1,15,0A15,15,0,0,1,106.79-437.242Z" transform="translate(-70.361 -54.733)" fill="#e7ecfb"/>
    <path id="Trazado_24682" data-name="Trazado 24682" d="M254.868-447.85a14.966,14.966,0,0,0-10.608-4.393c-.357,0-.714.017-1.071.042a14.991,14.991,0,0,1,13.929,14.959V-425.1h2.143v-12.143A14.953,14.953,0,0,0,254.868-447.85Z" transform="translate(-222.832 -54.733)" fill="#cad9fb"/>
    <path id="Trazado_24683" data-name="Trazado 24683" d="M78.372-125.119a2.853,2.853,0,0,1-.836,2.021,2.854,2.854,0,0,1-2.021.836h-30a2.857,2.857,0,0,1-2.857-2.857,2.857,2.857,0,0,1,2.857-2.857h30A2.857,2.857,0,0,1,78.372-125.119Z" transform="translate(-39.085 -351.856)" fill="#e7ecfb"/>
    <path id="Trazado_24684" data-name="Trazado 24684" d="M411.732-127.976h-2.143a2.857,2.857,0,0,1,2.857,2.857,2.857,2.857,0,0,1-2.857,2.857h2.143a2.857,2.857,0,0,0,2.857-2.857A2.857,2.857,0,0,0,411.732-127.976Z" transform="translate(-375.303 -351.856)" fill="#cad9fb"/>
    <path id="Trazado_24685" data-name="Trazado 24685" d="M213.361-59.709a4.286,4.286,0,0,1-4.286,4.286,4.286,4.286,0,0,1-4.286-4.286Z" transform="translate(-187.646 -414.408)" fill="#a3c2f6"/>
    <path id="Trazado_24686" data-name="Trazado 24686" d="M220.465-499.871v1.143a15.1,15.1,0,0,0-7.143,0v-1.143a3.572,3.572,0,0,1,3.572-3.572A3.572,3.572,0,0,1,220.465-499.871Z" transform="translate(-195.465 -7.819)" fill="#a3c2f6"/>
    <path id="Trazado_24687" data-name="Trazado 24687" d="M45.513-466.3h2.143a2.857,2.857,0,0,1-2.857-2.857,2.857,2.857,0,0,1,2.857-2.857v-12.143a15,15,0,0,1,11.429-14.572v-1.143a3.561,3.561,0,0,1,2.5-3.39,3.527,3.527,0,0,0-3.2.5,3.528,3.528,0,0,0-1.447,2.893v1.143a15,15,0,0,0-11.429,14.572v12.143a2.857,2.857,0,0,0-2.857,2.857A2.857,2.857,0,0,0,45.513-466.3Z" transform="translate(-39.085 -7.821)" fill="#fff"/>
    <path id="Trazado_24688" data-name="Trazado 24688" d="M68.256-190.528h1.429v-5.715H68.256Z" transform="translate(-62.542 -289.303)" fill="#fff"/>
    <path id="Trazado_24689" data-name="Trazado 24689" d="M54.726-483.694a.714.714,0,0,0,.517-.221,20.254,20.254,0,0,1,2.149-1.952.714.714,0,0,0,.282-.668.714.714,0,0,0-.448-.571.714.714,0,0,0-.716.115,21.719,21.719,0,0,0-2.3,2.089.714.714,0,0,0-.14.774A.714.714,0,0,0,54.726-483.694Z" transform="translate(-49.49 -22.744)" fill="#418cff"/>
    <path id="Trazado_24690" data-name="Trazado 24690" d="M.473-430.722a.714.714,0,0,0,.913-.429,19.943,19.943,0,0,1,2.643-5,.715.715,0,0,0-.159-1,.715.715,0,0,0-1,.159,21.389,21.389,0,0,0-2.83,5.357A.714.714,0,0,0,.473-430.722Z" transform="translate(0 -68.438)" fill="#418cff"/>
    <path id="Trazado_24691" data-name="Trazado 24691" d="M37.47-448.537a.715.715,0,0,0,.369.941.715.715,0,0,0,.941-.369,17.317,17.317,0,0,1,4.684-6.276.714.714,0,0,0,.261-.678.714.714,0,0,0-.469-.556.714.714,0,0,0-.713.143A18.759,18.759,0,0,0,37.47-448.537Z" transform="translate(-34.279 -51.734)" fill="#418cff"/>
    <path id="Trazado_24692" data-name="Trazado 24692" d="M416.565-483.914a.715.715,0,0,0,1.01.024.715.715,0,0,0,.024-1.01,21.717,21.717,0,0,0-2.3-2.089.714.714,0,0,0-.716-.115.714.714,0,0,0-.448.571.714.714,0,0,0,.282.668A20.251,20.251,0,0,1,416.565-483.914Z" transform="translate(-379.46 -22.744)" fill="#418cff"/>
    <path id="Trazado_24693" data-name="Trazado 24693" d="M465-431.177a.714.714,0,0,0,.545.482.714.714,0,0,0,.684-.245.714.714,0,0,0,.115-.718,21.39,21.39,0,0,0-2.83-5.357.715.715,0,0,0-1-.159.715.715,0,0,0-.159,1A19.946,19.946,0,0,1,465-431.177Z" transform="translate(-423.533 -68.415)" fill="#418cff"/>
    <path id="Trazado_24694" data-name="Trazado 24694" d="M404.176-447.8a.715.715,0,0,0,.575.424.715.715,0,0,0,.655-.286.715.715,0,0,0,.08-.71,18.758,18.758,0,0,0-5.072-6.794.714.714,0,0,0-.7-.128.714.714,0,0,0-.462.545.714.714,0,0,0,.241.673A17.317,17.317,0,0,1,404.176-447.8Z" transform="translate(-365.818 -51.899)" fill="#418cff"/>
    <path id="Trazado_24695" data-name="Trazado 24695" d="M68.97-170.643a.715.715,0,0,1,.714.714.715.715,0,0,1-.714.714.715.715,0,0,1-.714-.714A.715.715,0,0,1,68.97-170.643Z" transform="translate(-62.542 -312.76)" fill="#418cff" fill-rule="evenodd"/>
    <path id="Trazado_24696" data-name="Trazado 24696" d="M36.98-491.975v6.429a.714.714,0,0,0,.714.714.714.714,0,0,0,.714-.714v-6.429a14.286,14.286,0,0,1,14.286-14.286,14.286,14.286,0,0,1,14.286,14.286v11.429H63.41a.714.714,0,0,0-.714.714.714.714,0,0,0,.714.714H67.7a2.143,2.143,0,0,1,2.143,2.143,2.143,2.143,0,0,1-2.143,2.143h-30a2.143,2.143,0,0,1-2.143-2.143,2.143,2.143,0,0,1,2.143-2.143H59.838a.714.714,0,0,0,.714-.714.714.714,0,0,0-.714-.714H37.694a3.572,3.572,0,0,0-3.572,3.572,3.572,3.572,0,0,0,3.572,3.572H47.752a4.994,4.994,0,0,0,4.943,4.284,4.994,4.994,0,0,0,4.943-4.284H67.7a3.572,3.572,0,0,0,3.557-3.213,3.572,3.572,0,0,0-2.843-3.859v-11.5a15.738,15.738,0,0,0-11.429-15.116v-.6a4.286,4.286,0,0,0-4.286-4.286,4.286,4.286,0,0,0-4.286,4.286v.6A15.738,15.738,0,0,0,36.98-491.975Zm15.715,21.43a3.578,3.578,0,0,1-3.5-2.857h7A3.578,3.578,0,0,1,52.695-470.545ZM49.837-507.69a2.857,2.857,0,0,1,2.857-2.857,2.857,2.857,0,0,1,2.857,2.857v.265a15.536,15.536,0,0,0-5.715,0Z" transform="translate(-31.266 0)" fill="#418cff"/>
    <path id="Trazado_24697" data-name="Trazado 24697" d="M198.121-422.347a12.739,12.739,0,0,0-1.42.444.714.714,0,0,0-.451.8.714.714,0,0,0,.7.586.7.7,0,0,0,.253-.047,11.459,11.459,0,0,1,1.26-.394.714.714,0,0,0,.528-.495.714.714,0,0,0-.175-.7A.714.714,0,0,0,198.121-422.347Z" transform="translate(-179.811 -82.103)" fill="#418cff"/>
    <path id="Trazado_24698" data-name="Trazado 24698" d="M103.818-382.511a11.412,11.412,0,0,1,4.072-8.74.715.715,0,0,0,.086-1.007.715.715,0,0,0-1.007-.086,12.84,12.84,0,0,0-4.579,9.833.714.714,0,0,0,.714.714A.714.714,0,0,0,103.818-382.511Z" transform="translate(-93.818 -109.464)" fill="#418cff"/>
    <path id="Trazado_24699" data-name="Trazado 24699" d="M376.17-169.214H377.6a.714.714,0,0,0,.714-.714.714.714,0,0,0-.714-.714H376.17a.714.714,0,0,0-.714.714A.714.714,0,0,0,376.17-169.214Z" transform="translate(-344.027 -312.76)" fill="#418cff"/>
    <path id="Trazado_24700" data-name="Trazado 24700" d="M213.322-169.929a.714.714,0,0,0,.714.714h10a.714.714,0,0,0,.714-.714.714.714,0,0,0-.714-.714h-10A.714.714,0,0,0,213.322-169.929Z" transform="translate(-195.465 -312.76)" fill="#418cff"/>
  </g>
</svg>
