<svg xmlns="http://www.w3.org/2000/svg" width="46" height="29.134" viewBox="0 0 46 29.134">
  <g id="Grupo_2617" data-name="Grupo 2617" transform="translate(0 324.282)">
    <path id="Trazado_23585" data-name="Trazado 23585" d="M273.082-289.446h3.067v-6.565h-3.067Z" transform="translate(-248.548 -25.731)" fill="#cad9fb" fill-rule="evenodd"/>
    <path id="Trazado_23586" data-name="Trazado 23586" d="M255.148-314.215a1.545,1.545,0,0,1-1.533,1.533h-4.6a1.538,1.538,0,0,1-1.533-1.533,1.545,1.545,0,0,1,1.533-1.533h4.6A1.538,1.538,0,0,1,255.148-314.215Z" transform="translate(-225.248 -7.767)" fill="#cad9fb"/>
    <path id="Trazado_23587" data-name="Trazado 23587" d="M252.848-314.215a1.545,1.545,0,0,1-1.533,1.533h-2.3a1.538,1.538,0,0,1-1.533-1.533,1.545,1.545,0,0,1,1.533-1.533h2.3A1.538,1.538,0,0,1,252.848-314.215Z" transform="translate(-225.248 -7.767)" fill="#e7ecfb"/>
    <path id="Trazado_23588" data-name="Trazado 23588" d="M48.136-283.622a4.453,4.453,0,0,0-2.553-.3l12.006,5.144v-.437a1.624,1.624,0,0,1,.038-.337Zm38.485,6.447-2.3-6.133a1.533,1.533,0,0,0-.9-.9,1.533,1.533,0,0,0-1.268.092l-.866.368,2.269,6.041a1.547,1.547,0,0,1-.276,1.556l-9.2,10.212a1.568,1.568,0,0,1-1.158.521H57.5a3.056,3.056,0,0,0,1.71.521H75.988a1.54,1.54,0,0,0,1.158-.521l9.2-10.212A1.533,1.533,0,0,0,86.621-277.175Z" transform="translate(-41.488 -36.39)" fill="#cad9fb"/>
    <path id="Trazado_23589" data-name="Trazado 23589" d="M49.845-273.862,47.575-279.9l-8.3,3.519H28.478a1.538,1.538,0,0,0-1.533,1.533v.437l-3.028-1.3a1.625,1.625,0,0,0-.038.337v.437l-12.006-5.144a4.5,4.5,0,0,0-2.461,1.219l-.445.429a1.365,1.365,0,0,0-.414.951.1.1,0,0,0-.008.046,1.38,1.38,0,0,0,.763,1.234,1.38,1.38,0,0,0,1.445-.13,1.109,1.109,0,0,0,.207-.169l.107-.107a1.533,1.533,0,0,1,1.227-.447,1.533,1.533,0,0,1,1.126.661l9.545,14a2.984,2.984,0,0,0,.82.82H39.211a1.568,1.568,0,0,0,1.158-.521l9.2-10.212A1.547,1.547,0,0,0,49.845-273.862Zm-.276.928-6.624,7.321a.383.383,0,0,1-.423.1.383.383,0,0,1-.244-.36v-8.172a.383.383,0,0,1,.238-.36l3.35-1.334L48-276.591a.383.383,0,0,1,.3.007.384.384,0,0,1,.2.215l1.135,3.044A.383.383,0,0,1,49.569-272.934Z" transform="translate(-7.778 -40.232)" fill="#e7ecfb"/>
    <path id="Trazado_23590" data-name="Trazado 23590" d="M17.724-137.416a4.472,4.472,0,0,1-1.308,3.292,4.472,4.472,0,0,1-3.292,1.308,4.723,4.723,0,0,1-1.15-.138,4.424,4.424,0,0,1-3.45-4.462c0-1.855,2.085-4.976,3.45-6.708.215-.268.406-.5.567-.69a.767.767,0,0,1,.583-.268.767.767,0,0,1,.583.268C14.941-143.388,17.724-139.555,17.724-137.416Z" transform="translate(-7.756 -163.101)" fill="#7eabfa"/>
    <path id="Trazado_23591" data-name="Trazado 23591" d="M15.424-127.707a4.424,4.424,0,0,1-3.45,4.462,4.424,4.424,0,0,1-3.45-4.462c0-1.855,2.085-4.976,3.45-6.708C13.338-132.682,15.424-129.562,15.424-127.707Z" transform="translate(-7.756 -172.809)" fill="#a3c2f6"/>
    <path id="Trazado_23592" data-name="Trazado 23592" d="M11.974-132.946a4.724,4.724,0,0,0,1.15.138,4.973,4.973,0,0,0,1.15-.138,4.424,4.424,0,0,1-3.45-4.462c0-1.855,2.084-4.975,3.45-6.707-.209-.266-.4-.5-.567-.69a.767.767,0,0,0-.583-.268.767.767,0,0,0-.583.268c-.161.192-.353.422-.567.69-1.365,1.732-3.451,4.852-3.451,6.707A4.424,4.424,0,0,0,11.974-132.946Z" transform="translate(-7.756 -163.108)" fill="#fff"/>
    <path id="Trazado_23593" data-name="Trazado 23593" d="M9.259-276.925a1.38,1.38,0,0,0,1.495-.107,1.112,1.112,0,0,0,.207-.169l.107-.107c.013-.013.029-.021.043-.034a1.39,1.39,0,0,1-.265-.794.1.1,0,0,1,.008-.046,1.365,1.365,0,0,1,.414-.951l.445-.429a4.479,4.479,0,0,1,2.094-1.135,4.414,4.414,0,0,0-1.933-.084,4.5,4.5,0,0,0-2.461,1.219l-.445.429a1.365,1.365,0,0,0-.414.951.1.1,0,0,0-.008.046A1.391,1.391,0,0,0,9.259-276.925Z" transform="translate(-7.778 -39.53)" fill="#fff"/>
    <path id="Trazado_23594" data-name="Trazado 23594" d="M74.335-230.457,63.878-245.8a1.533,1.533,0,0,0-1.126-.661,1.533,1.533,0,0,0-1.227.447l-.069.069a1.5,1.5,0,0,1,.125.143l9.542,14a2.985,2.985,0,0,0,.82.82" transform="translate(-55.934 -70.826)" fill="#fff"/>
    <path id="Trazado_23595" data-name="Trazado 23595" d="M57.038-243.838l5.614,8.235,3.93,5.766-1.266.863-3.931-5.766-5.613-8.235Z" transform="translate(-50.761 -73.217)" fill="#fff"/>
    <path id="Trazado_23596" data-name="Trazado 23596" d="M93.489-191.162a.6.6,0,0,0-.153.021.476.476,0,0,0-.14.04,1.1,1.1,0,0,0-.135.077.736.736,0,0,0-.316.79.784.784,0,0,0,.6.6.809.809,0,0,0,.3-.009.774.774,0,0,0,.275-.113.766.766,0,0,0,.323-.792.767.767,0,0,0-.611-.6Z" transform="translate(-84.395 -121.16)" fill="#418cff"/>
    <path id="Trazado_23597" data-name="Trazado 23597" d="M376.636-237.426a1.142,1.142,0,0,0,.849-.383l6.62-7.321a1.15,1.15,0,0,0,.224-1.175l-1.138-3.041a1.15,1.15,0,0,0-.611-.645,1.15,1.15,0,0,0-.889-.017l-5.482,2.188a1.145,1.145,0,0,0-.728,1.069v8.174a1.155,1.155,0,0,0,1.154,1.15Zm.379-9.066,4.877-1.947.92,2.453-5.8,6.413Z" transform="translate(-341.748 -67.527)" fill="#418cff"/>
    <path id="Trazado_23598" data-name="Trazado 23598" d="M20.714-317.382a2.3,2.3,0,0,0-2.186,1.623L6.962-320.717a5.367,5.367,0,0,0-5.847,1.073l-.447.432a2.14,2.14,0,0,0-.653,1.546,2.177,2.177,0,0,0,1.094,1.879,2.19,2.19,0,0,0,2.63-.4l.107-.107a.767.767,0,0,1,.613-.224.773.773,0,0,1,.566.332l1.725,2.53a.767.767,0,0,0,1.053.184.767.767,0,0,0,.213-1.048l-1.727-2.53v0a2.3,2.3,0,0,0-1.688-.99,2.3,2.3,0,0,0-1.839.668l-.107.107a.669.669,0,0,1-.781.153.641.641,0,0,1-.326-.55.619.619,0,0,1,.188-.445l.445-.429a3.843,3.843,0,0,1,4.179-.767l12.519,5.366a.759.759,0,0,0,.214.044.878.878,0,0,0,.088.018.767.767,0,0,0,.266-.054c.025-.01.048-.021.071-.033a.734.734,0,0,0,.163-.11.56.56,0,0,0,.055-.048.755.755,0,0,0,.149-.219.727.727,0,0,0,.035-.165.821.821,0,0,0,.028-.136v-.439a.767.767,0,0,1,.767-.767H31.509a.768.768,0,0,0,.3-.061l9.169-3.887c.024-.011.048-.021.071-.034a.763.763,0,0,1,.633-.047.763.763,0,0,1,.449.449l2.3,6.133a.767.767,0,0,1-.128.767l-9.2,10.216a.772.772,0,0,1-.584.264H17.735a2.3,2.3,0,0,1-1.9-1l-4.362-6.4a.767.767,0,0,0-.693-.341.767.767,0,0,0-.638.435.767.767,0,0,0,.065.77l4.362,6.4a3.833,3.833,0,0,0,3.167,1.674H34.514a2.314,2.314,0,0,0,1.727-.775l9.207-10.22a2.3,2.3,0,0,0,.417-2.322l-2.3-6.133a2.286,2.286,0,0,0-1.354-1.351,2.317,2.317,0,0,0-1.866.12l-8.993,3.815H28.381v-2.3a2.3,2.3,0,0,0,2.3-2.3,2.3,2.3,0,0,0-2.3-2.3h-4.6a2.3,2.3,0,0,0-2.3,2.3,2.3,2.3,0,0,0,2.3,2.3v2.3Zm2.3-4.6a.767.767,0,0,1,.767-.767h4.6a.767.767,0,0,1,.767.767.767.767,0,0,1-.767.767h-4.6A.767.767,0,0,1,23.014-321.982Zm2.3,2.3h1.533v2.3H25.314Z" transform="translate(-0.014 0)" fill="#418cff"/>
    <path id="Trazado_23599" data-name="Trazado 23599" d="M5.368-139.562A5.248,5.248,0,0,0,9.2-141.1a5.248,5.248,0,0,0,1.536-3.831c0-2.5-3.037-6.552-4.208-7.9a1.581,1.581,0,0,0-1.158-.5,1.581,1.581,0,0,0-1.158.5C3.039-151.481,0-147.43,0-144.929A5.248,5.248,0,0,0,1.537-141.1,5.249,5.249,0,0,0,5.368-139.562Zm0-12.266c1.546,1.784,3.833,5.213,3.833,6.9a3.707,3.707,0,0,1-1.084,2.75,3.707,3.707,0,0,1-2.75,1.084,3.707,3.707,0,0,1-2.75-1.084,3.707,3.707,0,0,1-1.084-2.75C1.535-146.616,3.822-150.044,5.368-151.829Z" transform="translate(0 -155.587)" fill="#418cff"/>
    <path id="Trazado_23600" data-name="Trazado 23600" d="M240.481-211.815a.767.767,0,0,0,.767-.767.767.767,0,0,0-.767-.767h-.767a.767.767,0,0,0-.767.767.767.767,0,0,0,.767.767Z" transform="translate(-217.481 -100.968)" fill="#418cff"/>
    <path id="Trazado_23601" data-name="Trazado 23601" d="M285.448-211.815a.767.767,0,0,0,.767-.767.767.767,0,0,0-.767-.767h-3.067a.767.767,0,0,0-.767.767.767.767,0,0,0,.767.767Z" transform="translate(-256.315 -100.968)" fill="#418cff"/>
    <path id="Trazado_23602" data-name="Trazado 23602" d="M30.679-80.824a.768.768,0,0,0,.752-.154.768.768,0,0,0,.242-.728.768.768,0,0,0-.51-.574c-.583-.194-.673-.454-.7-.537a1.966,1.966,0,0,1,.333-1.38.767.767,0,0,0-.214-1.063.767.767,0,0,0-1.063.214,3.428,3.428,0,0,0-.508,2.721A2.435,2.435,0,0,0,30.679-80.824Z" transform="translate(-26.32 -217.431)" fill="#418cff"/>
  </g>
</svg>
