<svg xmlns="http://www.w3.org/2000/svg" width="46" height="29.134" viewBox="0 0 46 29.134">
  <g id="Grupo_2617" data-name="Grupo 2617" transform="translate(0 0)">
    <path id="Trazado_23585" data-name="Trazado 23585" d="M276.149-289.446h-3.067v-6.565h3.067Z" transform="translate(-254.682 298.551)" fill="#cad9fb" fill-rule="evenodd"/>
    <path id="Trazado_23586" data-name="Trazado 23586" d="M247.482-314.215a1.545,1.545,0,0,0,1.533,1.533h4.6a1.538,1.538,0,0,0,1.533-1.533,1.545,1.545,0,0,0-1.533-1.533h-4.6A1.538,1.538,0,0,0,247.482-314.215Z" transform="translate(-231.382 316.515)" fill="#cad9fb"/>
    <path id="Trazado_23587" data-name="Trazado 23587" d="M247.482-314.215a1.545,1.545,0,0,0,1.533,1.533h2.3a1.538,1.538,0,0,0,1.533-1.533,1.545,1.545,0,0,0-1.533-1.533h-2.3A1.538,1.538,0,0,0,247.482-314.215Z" transform="translate(-229.082 316.515)" fill="#e7ecfb"/>
    <path id="Trazado_23588" data-name="Trazado 23588" d="M84.168-283.622a4.453,4.453,0,0,1,2.553-.3l-12.006,5.144v-.437a1.625,1.625,0,0,0-.038-.337Zm-38.485,6.447,2.3-6.133a1.533,1.533,0,0,1,.9-.9,1.533,1.533,0,0,1,1.268.092l.866.368L48.749-277.7a1.547,1.547,0,0,0,.276,1.556l9.2,10.212a1.568,1.568,0,0,0,1.158.521H74.807a3.056,3.056,0,0,1-1.71.521H56.316a1.54,1.54,0,0,1-1.158-.521l-9.2-10.212A1.533,1.533,0,0,1,45.683-277.175Z" transform="translate(-44.816 287.892)" fill="#cad9fb"/>
    <path id="Trazado_23589" data-name="Trazado 23589" d="M8.645-273.862l2.269-6.041,8.3,3.519H30.011a1.538,1.538,0,0,1,1.533,1.533v.437l3.028-1.3a1.626,1.626,0,0,1,.038.337v.437l12.006-5.144a4.5,4.5,0,0,1,2.461,1.219l.445.429a1.365,1.365,0,0,1,.414.951.1.1,0,0,1,.008.046,1.38,1.38,0,0,1-.763,1.234,1.38,1.38,0,0,1-1.445-.13,1.109,1.109,0,0,1-.207-.169l-.107-.107a1.533,1.533,0,0,0-1.227-.447,1.533,1.533,0,0,0-1.126.661l-9.545,14a2.985,2.985,0,0,1-.82.82H19.278a1.568,1.568,0,0,1-1.158-.521l-9.2-10.212A1.547,1.547,0,0,1,8.645-273.862Zm.276.928,6.624,7.321a.383.383,0,0,0,.423.1.383.383,0,0,0,.244-.36v-8.173a.383.383,0,0,0-.238-.36l-3.35-1.334-2.139-.851a.383.383,0,0,0-.3.007.384.384,0,0,0-.2.215l-1.135,3.044A.383.383,0,0,0,8.921-272.934Z" transform="translate(-4.712 284.05)" fill="#e7ecfb"/>
    <path id="Trazado_23590" data-name="Trazado 23590" d="M8.523-137.416a4.472,4.472,0,0,0,1.308,3.292,4.472,4.472,0,0,0,3.292,1.308,4.723,4.723,0,0,0,1.15-.138,4.424,4.424,0,0,0,3.45-4.462c0-1.855-2.085-4.976-3.45-6.708-.215-.268-.406-.5-.567-.69a.767.767,0,0,0-.583-.268.767.767,0,0,0-.583.268C11.306-143.388,8.523-139.555,8.523-137.416Z" transform="translate(27.509 161.181)" fill="#7eabfa"/>
    <path id="Trazado_23591" data-name="Trazado 23591" d="M8.524-127.707a4.424,4.424,0,0,0,3.45,4.462,4.424,4.424,0,0,0,3.45-4.462c0-1.855-2.085-4.976-3.45-6.708C10.609-132.682,8.524-129.562,8.524-127.707Z" transform="translate(29.808 151.473)" fill="#a3c2f6"/>
    <path id="Trazado_23592" data-name="Trazado 23592" d="M10.821-132.946a4.724,4.724,0,0,1-1.15.138,4.973,4.973,0,0,1-1.15-.138,4.424,4.424,0,0,0,3.45-4.462c0-1.855-2.084-4.975-3.45-6.707.209-.266.4-.5.567-.69a.767.767,0,0,1,.583-.268.767.767,0,0,1,.583.268c.161.192.353.422.567.69,1.365,1.732,3.451,4.852,3.451,6.707A4.424,4.424,0,0,1,10.821-132.946Z" transform="translate(30.961 161.174)" fill="#fff"/>
    <path id="Trazado_23593" data-name="Trazado 23593" d="M13.093-276.925a1.38,1.38,0,0,1-1.495-.107,1.112,1.112,0,0,1-.207-.169l-.107-.107c-.013-.013-.029-.021-.043-.034a1.39,1.39,0,0,0,.265-.794.1.1,0,0,0-.008-.046,1.365,1.365,0,0,0-.414-.951l-.445-.429A4.479,4.479,0,0,0,8.545-280.7a4.414,4.414,0,0,1,1.933-.084,4.5,4.5,0,0,1,2.461,1.219l.445.429a1.365,1.365,0,0,1,.414.951.1.1,0,0,1,.008.046A1.391,1.391,0,0,1,13.093-276.925Z" transform="translate(31.426 284.752)" fill="#fff"/>
    <path id="Trazado_23594" data-name="Trazado 23594" d="M61.455-230.457,71.912-245.8a1.533,1.533,0,0,1,1.126-.661,1.533,1.533,0,0,1,1.227.447l.069.069a1.5,1.5,0,0,0-.125.143l-9.542,14a2.985,2.985,0,0,1-.82.82" transform="translate(-33.856 253.456)" fill="#fff"/>
    <path id="Trazado_23595" data-name="Trazado 23595" d="M65.316-243.838,59.7-235.6l-3.93,5.766,1.266.863,3.931-5.766,5.613-8.235Z" transform="translate(-25.593 251.065)" fill="#fff"/>
    <path id="Trazado_23596" data-name="Trazado 23596" d="M93.5-191.162a.6.6,0,0,1,.153.021.476.476,0,0,1,.14.04,1.1,1.1,0,0,1,.135.077.736.736,0,0,1,.316.79.784.784,0,0,1-.6.6.809.809,0,0,1-.3-.009.774.774,0,0,1-.275-.113.766.766,0,0,1-.323-.792.767.767,0,0,1,.611-.6Z" transform="translate(-56.594 203.122)" fill="#418cff"/>
    <path id="Trazado_23597" data-name="Trazado 23597" d="M383.249-237.426a1.142,1.142,0,0,1-.849-.383l-6.62-7.321a1.15,1.15,0,0,1-.224-1.175l1.138-3.041a1.15,1.15,0,0,1,.611-.645,1.15,1.15,0,0,1,.889-.017l5.482,2.188a1.145,1.145,0,0,1,.728,1.069v8.174a1.155,1.155,0,0,1-1.154,1.15Zm-.379-9.066-4.877-1.947-.92,2.453,5.8,6.413Z" transform="translate(-372.136 256.755)" fill="#418cff"/>
    <path id="Trazado_23598" data-name="Trazado 23598" d="M25.314-317.382a2.3,2.3,0,0,1,2.186,1.623l11.566-4.958a5.367,5.367,0,0,1,5.847,1.073l.447.432a2.14,2.14,0,0,1,.653,1.546,2.177,2.177,0,0,1-1.094,1.879,2.19,2.19,0,0,1-2.63-.4l-.107-.107a.767.767,0,0,0-.613-.224.773.773,0,0,0-.566.332l-1.725,2.53a.767.767,0,0,1-1.053.184.767.767,0,0,1-.213-1.048l1.727-2.53v0a2.3,2.3,0,0,1,1.688-.99,2.3,2.3,0,0,1,1.839.668l.107.107a.669.669,0,0,0,.781.153.641.641,0,0,0,.326-.55.619.619,0,0,0-.188-.445l-.445-.429a3.843,3.843,0,0,0-4.179-.767L27.15-313.941a.759.759,0,0,1-.214.044.878.878,0,0,1-.088.018.767.767,0,0,1-.266-.054c-.025-.01-.048-.021-.071-.033a.734.734,0,0,1-.163-.11.56.56,0,0,1-.055-.048.755.755,0,0,1-.149-.219.727.727,0,0,1-.035-.165.821.821,0,0,1-.028-.136v-.439a.767.767,0,0,0-.767-.767H14.52a.768.768,0,0,1-.3-.061L5.052-319.8c-.024-.011-.048-.021-.071-.034a.763.763,0,0,0-.633-.047.763.763,0,0,0-.449.449L1.6-313.3a.767.767,0,0,0,.128.767l9.2,10.216a.772.772,0,0,0,.584.264H28.293a2.3,2.3,0,0,0,1.9-1l4.362-6.4a.767.767,0,0,1,.693-.341.767.767,0,0,1,.638.435.767.767,0,0,1-.065.77l-4.362,6.4a3.833,3.833,0,0,1-3.167,1.674H11.515a2.314,2.314,0,0,1-1.727-.775L.58-311.511a2.3,2.3,0,0,1-.417-2.322l2.3-6.133a2.286,2.286,0,0,1,1.354-1.351,2.317,2.317,0,0,1,1.866.12l8.993,3.815h2.972v-2.3a2.3,2.3,0,0,1-2.3-2.3,2.3,2.3,0,0,1,2.3-2.3h4.6a2.3,2.3,0,0,1,2.3,2.3,2.3,2.3,0,0,1-2.3,2.3v2.3Zm-2.3-4.6a.767.767,0,0,0-.767-.767h-4.6a.767.767,0,0,0-.767.767.767.767,0,0,0,.767.767h4.6A.767.767,0,0,0,23.014-321.982Zm-2.3,2.3H19.181v2.3h1.533Z" transform="translate(-0.015 324.282)" fill="#418cff"/>
    <path id="Trazado_23599" data-name="Trazado 23599" d="M5.368-139.562A5.248,5.248,0,0,1,1.537-141.1,5.248,5.248,0,0,1,0-144.929c0-2.5,3.037-6.553,4.208-7.9a1.581,1.581,0,0,1,1.158-.5,1.581,1.581,0,0,1,1.158.5c1.171,1.351,4.209,5.4,4.209,7.9A5.248,5.248,0,0,1,9.2-141.1,5.249,5.249,0,0,1,5.368-139.562Zm0-12.266c-1.546,1.784-3.833,5.213-3.833,6.9a3.707,3.707,0,0,0,1.084,2.75,3.707,3.707,0,0,0,2.75,1.084,3.707,3.707,0,0,0,2.75-1.084,3.707,3.707,0,0,0,1.084-2.75C9.2-146.616,6.913-150.044,5.368-151.829Z" transform="translate(35.264 168.695)" fill="#418cff"/>
    <path id="Trazado_23600" data-name="Trazado 23600" d="M239.715-211.815a.767.767,0,0,1-.767-.767.767.767,0,0,1,.767-.767h.767a.767.767,0,0,1,.767.767.767.767,0,0,1-.767.767Z" transform="translate(-216.715 223.314)" fill="#418cff"/>
    <path id="Trazado_23601" data-name="Trazado 23601" d="M282.382-211.815a.767.767,0,0,1-.767-.767.767.767,0,0,1,.767-.767h3.067a.767.767,0,0,1,.767.767.767.767,0,0,1-.767.767Z" transform="translate(-265.515 223.314)" fill="#418cff"/>
    <path id="Trazado_23602" data-name="Trazado 23602" d="M29.928-80.824a.768.768,0,0,1-.752-.154.768.768,0,0,1-.242-.728.768.768,0,0,1,.51-.574c.583-.194.673-.454.7-.537a1.966,1.966,0,0,0-.333-1.38.767.767,0,0,1,.214-1.063.767.767,0,0,1,1.063.214,3.428,3.428,0,0,1,.508,2.721A2.435,2.435,0,0,1,29.928-80.824Z" transform="translate(11.713 106.851)" fill="#418cff"/>
  </g>
</svg>
