<svg xmlns="http://www.w3.org/2000/svg" xmlns:xlink="http://www.w3.org/1999/xlink" width="51.5" height="49.799" viewBox="0 0 51.5 49.799">
  <defs>
    <clipPath id="clip-path">
      <path id="Trazado_23244" data-name="Trazado 23244" d="M164.875-389.084H145.136l2.575-8.9A4.291,4.291,0,0,1,151.8-401.1h6.4a4.291,4.291,0,0,1,4.094,3.115Z" transform="translate(-145.136 401.099)" fill="none"/>
    </clipPath>
    <linearGradient id="linear-gradient" x1="0.286" y1="0.444" x2="0.551" y2="0.444" gradientUnits="objectBoundingBox">
      <stop offset="0" stop-color="#d3def1"/>
      <stop offset="0.1" stop-color="#d3def1"/>
      <stop offset="0.2" stop-color="#fdf1f1"/>
      <stop offset="0.3" stop-color="#d3def1"/>
      <stop offset="0.4" stop-color="#d3def1"/>
      <stop offset="0.5" stop-color="#d5dff1"/>
      <stop offset="0.6" stop-color="#d3def1"/>
      <stop offset="0.7" stop-color="#d3def1"/>
      <stop offset="0.8" stop-color="#fff2f1"/>
      <stop offset="0.9" stop-color="#d3def1"/>
      <stop offset="1" stop-color="#d3def1"/>
    </linearGradient>
  </defs>
  <g id="Grupo_2605" data-name="Grupo 2605" transform="translate(0 495.165)">
    <path id="Trazado_23241" data-name="Trazado 23241" d="M112.574-315.765a1.716,1.716,0,0,0-1.552,1.076,1.716,1.716,0,0,0,.376,1.85,1.613,1.613,0,0,0,1.227.506h25.746a1.716,1.716,0,0,0,1.716-1.716,1.716,1.716,0,0,0-1.716-1.716Z" transform="translate(-99.746 -161.357)" fill="#cad9fb"/>
    <path id="Trazado_23242" data-name="Trazado 23242" d="M167.449-389.084H145.136l2.575-8.9A4.291,4.291,0,0,1,151.8-401.1h8.977a4.291,4.291,0,0,1,4.094,3.115Z" transform="translate(-130.54 -84.605)" fill="#cad9fb"/>
    <g id="Grupo_2604" data-name="Grupo 2604" transform="translate(14.596 -485.704)" clip-path="url(#clip-path)">
      <g id="Grupo_2603" data-name="Grupo 2603" transform="matrix(0.707, 0.707, -0.707, 0.707, 11.17, -35.21)">
        <path id="Trazado_23243" data-name="Trazado 23243" d="M0,36.428,36.4,0,71.629,35.2,35.225,71.63Z" transform="translate(0 0)" fill="url(#linear-gradient)"/>
      </g>
    </g>
    <path id="Trazado_23245" data-name="Trazado 23245" d="M140.182-278.2v5.149a1.716,1.716,0,0,1-1.716,1.716H112.719A1.716,1.716,0,0,1,111-273.05V-278.2a3.433,3.433,0,0,1,3.433-3.433h22.313A3.433,3.433,0,0,1,140.182-278.2Z" transform="translate(-99.839 -192.057)" fill="#cad9fb"/>
    <path id="Trazado_23246" data-name="Trazado 23246" d="M137.607-278.2v5.149a1.716,1.716,0,0,1-1.716,1.716H112.719A1.716,1.716,0,0,1,111-273.05V-278.2a3.433,3.433,0,0,1,3.433-3.433h19.739A3.433,3.433,0,0,1,137.607-278.2Z" transform="translate(-99.839 -192.057)" fill="#e7ecfb"/>
    <path id="Trazado_23247" data-name="Trazado 23247" d="M128.07-179.232h4.291v4.291a1.716,1.716,0,0,1-1.716,1.716h-.858a1.716,1.716,0,0,1-1.716-1.716Z" transform="translate(-115.19 -284.159)" fill="#7eabfa"/>
    <path id="Trazado_23248" data-name="Trazado 23248" d="M341.4-179.232h4.291v4.291a1.716,1.716,0,0,1-1.716,1.716h-.858a1.716,1.716,0,0,1-1.716-1.716Z" transform="translate(-307.068 -284.159)" fill="#7eabfa"/>
    <path id="Trazado_23249" data-name="Trazado 23249" d="M150.285-242.99h-4.291a.858.858,0,0,1-.858-.858v-1.588a.858.858,0,0,1,.292-.654.858.858,0,0,1,.686-.2l4.291.618a.858.858,0,0,1,.738.858v.97A.858.858,0,0,1,150.285-242.99Z" transform="translate(-130.539 -223.833)" fill="#cad9fb"/>
    <path id="Trazado_23250" data-name="Trazado 23250" d="M308.128-242.99h4.291a.858.858,0,0,0,.858-.858v-1.588a.857.857,0,0,0-.292-.654.858.858,0,0,0-.686-.2l-4.291.618a.858.858,0,0,0-.738.858v.97A.858.858,0,0,0,308.128-242.99Z" transform="translate(-276.367 -223.833)" fill="#cad9fb"/>
    <path id="Trazado_23251" data-name="Trazado 23251" d="M159.035-397.984a4.291,4.291,0,0,1,4.094-3.115h-2.575a4.291,4.291,0,0,0-4.094,3.115l-1.6,5.467h2.455Z" transform="translate(-139.289 -84.605)" fill="#fff"/>
    <path id="Trazado_23252" data-name="Trazado 23252" d="M112.259-302.034v4.291a1.716,1.716,0,0,0,1.716,1.716,2.935,2.935,0,0,0,1.716-.24,1.716,1.716,0,0,1-.858-1.476v-4.291a1.716,1.716,0,0,1-1.716-1.716V-308.9a3.433,3.433,0,0,1,3.433-3.433c-1.9,0-2.36.112-2.944-.506a1.716,1.716,0,0,1-.376-1.85,1.716,1.716,0,0,1,1.552-1.076h-2.575a1.716,1.716,0,0,0-1.716,1.716,1.716,1.716,0,0,0,1.716,1.716h1.768a3.433,3.433,0,0,0-3.433,3.433v5.149A1.716,1.716,0,0,0,112.259-302.034Z" transform="translate(-99.379 -161.357)" fill="#fff"/>
    <path id="Trazado_23253" data-name="Trazado 23253" d="M232.432-407.915H239.3v-1.716h-6.866Z" transform="translate(-209.056 -76.931)" fill="#fff"/>
    <path id="Trazado_23254" data-name="Trazado 23254" d="M142.85-254.115l-4.291-.618a1.716,1.716,0,0,0-1.372.409,1.716,1.716,0,0,0-.585,1.307v1.571a1.716,1.716,0,0,0,1.716,1.716h4.291a1.716,1.716,0,0,0,1.716-1.716v-.97A1.716,1.716,0,0,0,142.85-254.115Zm-4.531,2.669v-1.588l4.291.618v.97Z" transform="translate(-122.864 -216.236)" fill="#418cff"/>
    <path id="Trazado_23255" data-name="Trazado 23255" d="M304.5-254.732l-4.291.618a1.716,1.716,0,0,0-1.476,1.716v.953a1.717,1.717,0,0,0,1.716,1.716h4.291a1.716,1.716,0,0,0,1.716-1.716v-1.588a1.716,1.716,0,0,0-.591-1.3A1.716,1.716,0,0,0,304.5-254.732Zm.24,3.287h-4.291v-.97l4.291-.618Z" transform="translate(-268.691 -216.237)" fill="#418cff"/>
    <path id="Trazado_23256" data-name="Trazado 23256" d="M234.761-256.032h-3.433a.858.858,0,0,0-.858.858.858.858,0,0,0,.858.858h3.433a.858.858,0,0,0,.858-.858A.858.858,0,0,0,234.761-256.032Z" transform="translate(-207.291 -215.083)" fill="#418cff"/>
    <path id="Trazado_23257" data-name="Trazado 23257" d="M234.761-221.9h-3.433a.858.858,0,0,0-.858.858.858.858,0,0,0,.858.858h3.433a.858.858,0,0,0,.858-.858A.858.858,0,0,0,234.761-221.9Z" transform="translate(-207.291 -245.783)" fill="#418cff"/>
    <path id="Trazado_23258" data-name="Trazado 23258" d="M259.061-407.916a.858.858,0,0,1-.858-.858.858.858,0,0,1,.858-.858.858.858,0,0,1,.858.858A.858.858,0,0,1,259.061-407.916Z" transform="translate(-232.235 -76.931)" fill="#418cff"/>
    <path id="Trazado_23259" data-name="Trazado 23259" d="M190.942-375.294a.859.859,0,0,0-.609-.254.859.859,0,0,0-.609.254l-1.716,1.716a.858.858,0,0,0-.188.938.858.858,0,0,0,.8.529c.463,0,.489-.129,2.326-1.965a.858.858,0,0,0,.254-.609A.858.858,0,0,0,190.942-375.294Z" transform="translate(-168.871 -107.587)" fill="#418cff"/>
    <path id="Trazado_23260" data-name="Trazado 23260" d="M205.683-368.665a.858.858,0,0,0,.609-.249l5.149-5.149a.862.862,0,0,0,.223-.832.862.862,0,0,0-.609-.609.862.862,0,0,0-.832.223l-5.149,5.149a.858.858,0,0,0-.188.938A.858.858,0,0,0,205.683-368.665Z" transform="translate(-184.221 -107.599)" fill="#418cff"/>
    <path id="Trazado_23261" data-name="Trazado 23261" d="M1.226-482.383a.858.858,0,0,0,.711-.329.858.858,0,0,0,.147-.769,7.724,7.724,0,0,1,2.514-8.17,7.724,7.724,0,0,1,8.506-.85.868.868,0,0,0,1.184-.326.869.869,0,0,0-.326-1.184,9.44,9.44,0,0,0-10.472.959A9.44,9.44,0,0,0,.4-483,.858.858,0,0,0,1.226-482.383Z" transform="translate(0 0)" fill="#418cff"/>
    <path id="Trazado_23262" data-name="Trazado 23262" d="M43.373-459.038a.858.858,0,0,0-.352-1.159,6.007,6.007,0,0,0-6.647.629,6.007,6.007,0,0,0-1.96,6.383.858.858,0,0,0,1.064.584.858.858,0,0,0,.584-1.064,4.291,4.291,0,0,1,1.392-4.575,4.291,4.291,0,0,1,4.761-.446A.858.858,0,0,0,43.373-459.038Z" transform="translate(-30.724 -30.803)" fill="#418cff"/>
    <path id="Trazado_23263" data-name="Trazado 23263" d="M71.375-424.831a.858.858,0,0,0,.892.011.858.858,0,0,0,.42-.787.858.858,0,0,0-.505-.735,2.575,2.575,0,0,0-2.851.285,2.575,2.575,0,0,0-.822,2.745.858.858,0,0,0,.433.5.858.858,0,0,0,.657.044.858.858,0,0,0,.506-1.09.858.858,0,0,1,.3-.918A.858.858,0,0,1,71.375-424.831Z" transform="translate(-61.516 -61.629)" fill="#418cff"/>
    <path id="Trazado_23264" data-name="Trazado 23264" d="M374.207-494.965a9.439,9.439,0,0,0-4.48,1.133.869.869,0,0,0-.326,1.184.869.869,0,0,0,1.184.326,7.724,7.724,0,0,1,8.506.85,7.724,7.724,0,0,1,2.514,8.17.858.858,0,0,0,.584,1.064.858.858,0,0,0,1.064-.584,9.44,9.44,0,0,0-1.474-8.343A9.44,9.44,0,0,0,374.207-494.965Z" transform="translate(-332.148 -0.18)" fill="#418cff"/>
    <path id="Trazado_23265" data-name="Trazado 23265" d="M393.114-452.455a.859.859,0,0,0,.653-.071.858.858,0,0,0,.411-.512,6.007,6.007,0,0,0-1.959-6.361,6.007,6.007,0,0,0-6.624-.651.858.858,0,0,0-.505.735.858.858,0,0,0,.42.787.858.858,0,0,0,.892-.011,4.291,4.291,0,0,1,4.761.446,4.291,4.291,0,0,1,1.392,4.575A.858.858,0,0,0,393.114-452.455Z" transform="translate(-346.361 -30.95)" fill="#418cff"/>
    <path id="Trazado_23266" data-name="Trazado 23266" d="M404.137-422.771a.858.858,0,0,0,.657-.044.858.858,0,0,0,.433-.5,2.574,2.574,0,0,0-.822-2.745,2.575,2.575,0,0,0-2.851-.285.858.858,0,0,0-.505.735.859.859,0,0,0,.42.787.858.858,0,0,0,.892-.011.858.858,0,0,1,.966.052.858.858,0,0,1,.3.918A.858.858,0,0,0,404.137-422.771Z" transform="translate(-360.713 -61.629)" fill="#418cff"/>
    <path id="Trazado_23267" data-name="Trazado 23267" d="M50.7-381.345H39.393c.206-.592.154-.523.154-4.446a2.575,2.575,0,0,0,1.716-2.42v-5.149a4.291,4.291,0,0,0-1.21-2.969,2.574,2.574,0,0,0,1.1-2.89,2.575,2.575,0,0,0-2.469-1.864H36.638l-1.382-4.849a5.149,5.149,0,0,0-4.952-3.733.858.858,0,0,0-.858.858.858.858,0,0,0,.858.858,3.433,3.433,0,0,1,3.3,2.489l2.231,7.81H15.8c2.5-8.762,2.231-7.724,2.231-7.81a3.433,3.433,0,0,1,3.493-2.489h1.914a.858.858,0,0,0,.858-.858.858.858,0,0,0-.858-.858H21.525a5.149,5.149,0,0,0-5.149,3.733l-1.382,4.849H12.943a2.575,2.575,0,0,0-2.455,1.863,2.575,2.575,0,0,0,1.091,2.883,4.29,4.29,0,0,0-1.21,2.978v5.149a2.574,2.574,0,0,0,1.716,2.42c0,3.948-.051,3.853.154,4.446H.928a.858.858,0,0,0-.858.858.858.858,0,0,0,.858.858H50.7a.858.858,0,0,0,.858-.858A.858.858,0,0,0,50.7-381.345Zm-11.157-6.866a.858.858,0,0,1-.858.858H12.943a.858.858,0,0,1-.858-.858v-5.149a2.575,2.575,0,0,1,2.575-2.575H36.973a2.575,2.575,0,0,1,2.575,2.575Zm-21.455,2.575H33.54c0,3.725-.051,3.7.154,4.291H17.938C18.144-381.938,18.092-381.869,18.092-385.636Zm20.6-13.731a.858.858,0,0,1,.784.537.858.858,0,0,1-.192.931c-.326.335-.669.249-1.665.249l-.489-1.716Zm-25.746,0H14.5l-.489,1.716c-1.073,0-1.356.077-1.716-.266a.858.858,0,0,1-.164-.941A.858.858,0,0,1,12.943-399.368Zm1.716,18.022a.858.858,0,0,1-.858-.858v-3.433h2.575v3.433a.858.858,0,0,1-.858.858Zm21.455,0a.858.858,0,0,1-.858-.858v-3.433h2.575v3.433a.858.858,0,0,1-.858.858Z" transform="translate(-0.063 -76.896)" fill="#418cff"/>
    <path id="Trazado_23268" data-name="Trazado 23268" d="M76.937-51.623a.858.858,0,0,0-.041.657.858.858,0,0,0,.436.493c9.758,4.806,25.326,4.815,35.083,0a.86.86,0,0,0,.48-.713.86.86,0,0,0-.378-.772.86.86,0,0,0-.858-.059c-9.286,4.583-24.287,4.583-33.573,0a.858.858,0,0,0-.657-.041A.858.858,0,0,0,76.937-51.623Z" transform="translate(-69.12 -398.5)" fill="#418cff"/>
    <path id="Trazado_23269" data-name="Trazado 23269" d="M125.638-75.59a.858.858,0,0,0-.057.67.858.858,0,0,0,.444.506c7.02,3.433,18.263,3.433,25.283,0a.862.862,0,0,0,.39-1.154.862.862,0,0,0-1.154-.39c-6.531,3.235-17.207,3.244-23.755,0A.858.858,0,0,0,125.638-75.59Z" transform="translate(-112.913 -376.962)" fill="#418cff"/>
    <path id="Trazado_23270" data-name="Trazado 23270" d="M190.339-98.736a.858.858,0,0,0,.386-1.15.858.858,0,0,0-1.15-.378,17.818,17.818,0,0,1-13.937,0,.858.858,0,0,0-1.15.378.858.858,0,0,0-.038.659.858.858,0,0,0,.441.491A19.413,19.413,0,0,0,190.339-98.736Z" transform="translate(-156.862 -355.104)" fill="#418cff"/>
  </g>
</svg>
