<svg xmlns="http://www.w3.org/2000/svg" xmlns:xlink="http://www.w3.org/1999/xlink" width="39.636" height="39.641" viewBox="0 0 39.636 39.641">
  <defs>
    <clipPath id="clip-path">
      <path id="Trazado_24397" data-name="Trazado 24397" d="M71.737-396.386H42.667l4.03-11.45a2.643,2.643,0,0,1,2.491-1.764H61.827Z" transform="translate(-42.667 409.6)" fill="none"/>
    </clipPath>
    <linearGradient id="linear-gradient" x1="0.21" y1="0.521" x2="0.675" y2="0.521" gradientUnits="objectBoundingBox">
      <stop offset="0" stop-color="#d3def1"/>
      <stop offset="0.1" stop-color="#d3def1"/>
      <stop offset="0.2" stop-color="#d9e2f1"/>
      <stop offset="0.3" stop-color="#d3def1"/>
      <stop offset="0.4" stop-color="#d3def1"/>
      <stop offset="0.5" stop-color="#d5dff1"/>
      <stop offset="0.6" stop-color="#d3def1"/>
      <stop offset="0.7" stop-color="#d3def1"/>
      <stop offset="0.8" stop-color="#fff2f1"/>
      <stop offset="0.9" stop-color="#d3def1"/>
      <stop offset="1" stop-color="#d3def1"/>
    </linearGradient>
  </defs>
  <g id="Grupo_2652" data-name="Grupo 2652" transform="translate(0 511.997)">
    <g id="Grupo_2651" data-name="Grupo 2651" transform="translate(3.303 -504.069)" clip-path="url(#clip-path)">
      <g id="Grupo_2650" data-name="Grupo 2650" transform="translate(16.515 -27.746) rotate(45)">
        <path id="Trazado_24396" data-name="Trazado 24396" d="M0,28.027,28.027,0,56.058,28.031,28.031,56.058Z" transform="translate(0 0)" fill="url(#linear-gradient)"/>
      </g>
    </g>
    <path id="Trazado_24398" data-name="Trazado 24398" d="M63.867-403.6H34.8a.661.661,0,0,1-.539-.279.661.661,0,0,1-.084-.6l4.03-11.45a3.3,3.3,0,0,1,3.114-2.205H53.956a.661.661,0,0,1,.529.264l9.91,13.214a.661.661,0,0,1,.062.692A.661.661,0,0,1,63.867-403.6Zm-28.138-1.321H62.545l-8.919-11.892H41.317a1.982,1.982,0,0,0-1.868,1.321Z" transform="translate(-31.493 -86.597)" fill="#3b97d3"/>
    <path id="Trazado_24399" data-name="Trazado 24399" d="M193.679-372.824h-5.285a.661.661,0,0,1-.661-.661v-1.321a.661.661,0,0,1,.661-.661h5.285" transform="translate(-173.198 -125.96)" fill="#7eabfa"/>
    <path id="Trazado_24400" data-name="Trazado 24400" d="M34.133-85.333H40.74v4.625a1.321,1.321,0,0,1-1.321,1.321H35.455a1.321,1.321,0,0,1-1.321-1.321Z" transform="translate(-31.491 -393.63)" fill="#e7ecfb"/>
    <path id="Trazado_24401" data-name="Trazado 24401" d="M347.94-85.333v4.625a1.325,1.325,0,0,1-1.321,1.321h-3.964a1.325,1.325,0,0,1-1.321-1.321v-4.625Z" transform="translate(-314.905 -393.63)" fill="#cad9fb"/>
    <path id="Trazado_24402" data-name="Trazado 24402" d="M345.958-85.333v4.625a1.325,1.325,0,0,1-1.321,1.321h-1.982a1.325,1.325,0,0,1-1.321-1.321v-4.625Z" transform="translate(-314.905 -393.63)" fill="#e7ecfb"/>
    <path id="Trazado_24403" data-name="Trazado 24403" d="M42.889-236.29v9.91a.661.661,0,0,1-.661.661H9.194a.661.661,0,0,1-.661-.661v-9.91a2.643,2.643,0,0,1,2.643-2.643H33.725l7.492.192A2.622,2.622,0,0,1,42.889-236.29Z" transform="translate(-7.873 -251.923)" fill="#cad9fb"/>
    <path id="Trazado_24404" data-name="Trazado 24404" d="M40.907-236.29v9.91a.661.661,0,0,1-.661.661H9.194a.661.661,0,0,1-.661-.661v-9.91a2.643,2.643,0,0,1,2.643-2.643H31.743l7.492.192A2.622,2.622,0,0,1,40.907-236.29Z" transform="translate(-7.873 -251.923)" fill="#e7ecfb"/>
    <path id="Trazado_24405" data-name="Trazado 24405" d="M43.988-204.8h2.643a2.643,2.643,0,0,1,2.643,2.643,1.321,1.321,0,0,1-1.321,1.321H43.988a1.321,1.321,0,0,1-1.321-1.321v-1.321A1.321,1.321,0,0,1,43.988-204.8Z" transform="translate(-39.363 -283.413)" fill="#e7ecfb"/>
    <path id="Trazado_24406" data-name="Trazado 24406" d="M335.443-204.8h2.643a1.321,1.321,0,0,1,1.321,1.321v1.321a1.321,1.321,0,0,1-1.321,1.321h-3.964a1.321,1.321,0,0,1-1.321-1.321A2.643,2.643,0,0,1,335.443-204.8Z" transform="translate(-307.033 -283.413)" fill="#e7ecfb"/>
    <path id="Trazado_24407" data-name="Trazado 24407" d="M51.861-102.4h1.321a.661.661,0,0,1,.661.661v1.982H51.2v-1.982A.661.661,0,0,1,51.861-102.4Z" transform="translate(-47.236 -377.884)" fill="#e7ecfb"/>
    <path id="Trazado_24408" data-name="Trazado 24408" d="M376.128-102.4h1.321a.661.661,0,0,1,.661.661v1.982h-2.643v-1.982A.661.661,0,0,1,376.128-102.4Z" transform="translate(-346.397 -377.884)" fill="#e7ecfb"/>
    <path id="Trazado_24409" data-name="Trazado 24409" d="M172.7-152.939a.661.661,0,0,0-.661-.661h-9.25a.661.661,0,0,0-.661.661v2.643a.661.661,0,0,0,.661.661h9.25a.661.661,0,0,0,.661-.661Z" transform="translate(-149.58 -330.649)" fill="#fff" fill-rule="evenodd"/>
    <path id="Trazado_24410" data-name="Trazado 24410" d="M283.032-499.265v9.336A6.049,6.049,0,0,1,280.476-485l-6.5,4.632a.339.339,0,0,1-.383,0l-.8-.568L267.09-485a6.049,6.049,0,0,1-2.557-4.929v-9.336a.334.334,0,0,1,.2-.3l8.06-3.482.859-.37a.365.365,0,0,1,.264,0l8.919,3.852A.334.334,0,0,1,283.032-499.265Z" transform="translate(-244.052 -7.89)" fill="#e7ecfb"/>
    <path id="Trazado_24411" data-name="Trazado 24411" d="M281.05-494.561v9.336a6.049,6.049,0,0,1-2.557,4.929l-5.7,4.063-5.7-4.063a6.049,6.049,0,0,1-2.557-4.929v-9.336a.334.334,0,0,1,.2-.3l8.06-3.482,8.06,3.482A.334.334,0,0,1,281.05-494.561Z" transform="translate(-244.052 -12.594)" fill="#fff"/>
    <path id="Trazado_24412" data-name="Trazado 24412" d="M300.113-453.216a3.421,3.421,0,0,1-1.446-2.774v-7.817l6.607-2.854,6.607,2.854v7.817a3.421,3.421,0,0,1-1.446,2.775l-5.161,3.673Z" transform="translate(-275.543 -41.825)" fill="#945ba5"/>
    <path id="Trazado_24413" data-name="Trazado 24413" d="M300.113-453.216a3.421,3.421,0,0,1-1.446-2.774v-7.817l6.607-2.854,6.607,2.854v7.817a3.421,3.421,0,0,1-1.446,2.775l-5.161,3.673Z" transform="translate(-275.543 -41.825)" fill="#a3c2f6"/>
    <path id="Trazado_24414" data-name="Trazado 24414" d="M9.194-391.045h1.321v3.3a1.321,1.321,0,0,0,1.321,1.321h1.982a1.321,1.321,0,0,1-1.321-1.321v-3.3H11.176a.661.661,0,0,1-.661-.661v-9.91c0-1.233,1.508-2.259,2.649-2.552a.657.657,0,0,1,.031-.311l4.03-11.45a3.3,3.3,0,0,1,3.114-2.205H18.358a3.3,3.3,0,0,0-3.114,2.205l-4.03,11.45a.657.657,0,0,0-.031.311c-1.141.293-2.649,1.319-2.649,2.552v9.91A.661.661,0,0,0,9.194-391.045Z" transform="translate(-7.873 -86.597)" fill="#fff"/>
    <path id="Trazado_24415" data-name="Trazado 24415" d="M265.91-487.552a1.179,1.179,0,0,1-.684-.218l-6.393-4.551A6.731,6.731,0,0,1,256-497.787v-9.554a.661.661,0,0,1,.4-.607l9.25-4a.661.661,0,0,1,.523,0l9.25,4a.661.661,0,0,1,.4.607v9.554a6.731,6.731,0,0,1-2.834,5.466l-6.393,4.55A1.18,1.18,0,0,1,265.91-487.552Zm-8.589-19.355v9.118a5.406,5.406,0,0,0,2.279,4.39l6.31,4.495,6.31-4.493a5.406,5.406,0,0,0,2.279-4.389v-9.12l-8.589-3.71Z" transform="translate(-236.179)" fill="#418cff"/>
    <path id="Trazado_24416" data-name="Trazado 24416" d="M297.4-456.377a.661.661,0,0,1-.383-.123l-5.161-3.674a4.084,4.084,0,0,1-1.723-3.313V-471.3a.661.661,0,0,1,.4-.607l6.607-2.854a.661.661,0,0,1,.523,0l6.607,2.854a.661.661,0,0,1,.4.607v7.817a4.083,4.083,0,0,1-1.723,3.313l-5.156,3.674A.661.661,0,0,1,297.4-456.377Zm-4.777-4.873,4.777,3.4,4.777-3.4a2.76,2.76,0,0,0,1.169-2.24v-7.383l-5.946-2.568-5.946,2.568v7.383A2.759,2.759,0,0,0,292.623-461.25Z" transform="translate(-267.669 -34.3)" fill="#418cff"/>
    <path id="Trazado_24417" data-name="Trazado 24417" d="M327.57-401.674a.657.657,0,0,1-.4-.132l-2.643-1.982a.661.661,0,0,1-.132-.925.661.661,0,0,1,.925-.132l2.13,1.6,4.889-6.107a.661.661,0,0,1,.929-.1.661.661,0,0,1,.1.929l-5.285,6.607A.661.661,0,0,1,327.57-401.674Z" transform="translate(-299.16 -94.467)" fill="#418cff"/>
    <path id="Trazado_24418" data-name="Trazado 24418" d="M34.356-232.932H1.321A1.321,1.321,0,0,1,0-234.253v-9.91a3.308,3.308,0,0,1,3.3-3.3H25.853a.661.661,0,0,1,.661.661.661.661,0,0,1-.661.661H3.3a1.982,1.982,0,0,0-1.982,1.982v9.91H34.356v-9.91A1.955,1.955,0,0,0,33.105-246a.661.661,0,0,1-.376-.855.661.661,0,0,1,.855-.376,3.268,3.268,0,0,1,2.093,3.067v9.91A1.321,1.321,0,0,1,34.356-232.932Z" transform="translate(0 -244.049)" fill="#418cff"/>
    <path id="Trazado_24419" data-name="Trazado 24419" d="M31.546-70.854H27.582A1.982,1.982,0,0,1,25.6-72.836v-3.3a.661.661,0,0,1,.661-.661h6.607a.661.661,0,0,1,.661.661v3.3A1.982,1.982,0,0,1,31.546-70.854Zm-4.625-4.625v2.643a.661.661,0,0,0,.661.661h3.964a.661.661,0,0,0,.661-.661v-2.643Z" transform="translate(-23.618 -401.502)" fill="#418cff"/>
    <path id="Trazado_24420" data-name="Trazado 24420" d="M338.746-70.854h-3.964a1.982,1.982,0,0,1-1.982-1.982v-3.3a.661.661,0,0,1,.661-.661h6.607a.661.661,0,0,1,.661.661v3.3A1.982,1.982,0,0,1,338.746-70.854Zm-4.625-4.625v2.643a.661.661,0,0,0,.661.661h3.964a.661.661,0,0,0,.661-.661v-2.643Z" transform="translate(-307.033 -401.502)" fill="#418cff"/>
    <path id="Trazado_24421" data-name="Trazado 24421" d="M34.62-378.2l2.852-8.1,1.179-3.348,1.246.439-1.178,3.348-2.852,8.1Z" transform="translate(-31.939 -112.876)" fill="#fff"/>
    <path id="Trazado_24422" data-name="Trazado 24422" d="M36.339-279.625a.661.661,0,0,0-.842.4l-.877,2.493,1.246.439.877-2.493A.661.661,0,0,0,36.339-279.625Z" transform="translate(-31.939 -214.346)" fill="#418cff"/>
    <path id="Trazado_24423" data-name="Trazado 24423" d="M70.812-389.227l-1.246-.439-1.4,3.973a.661.661,0,0,0,.4.843.661.661,0,0,0,.843-.4Z" transform="translate(-62.855 -112.86)" fill="#418cff"/>
    <path id="Trazado_24424" data-name="Trazado 24424" d="M56.855-311.45a.7.7,0,0,0,.025.506l.066.108a.514.514,0,0,0,.092.1.427.427,0,0,0,.1.077,1.008,1.008,0,0,0,.12.056.691.691,0,0,0,.506-.025.682.682,0,0,0,.2-.159.675.675,0,0,0,.108-.727.7.7,0,0,0-.16-.2.66.66,0,0,0-.219-.132.653.653,0,0,0-.506.024.653.653,0,0,0-.336.379Z" transform="translate(-52.419 -184.611)" fill="#418cff"/>
    <path id="Trazado_24425" data-name="Trazado 24425" d="M57.343-246.146H34.794a.661.661,0,0,1-.661-.661.661.661,0,0,1,.661-.661H57.343a.661.661,0,0,1,.661.661A.661.661,0,0,1,57.343-246.146Z" transform="translate(-31.491 -244.049)" fill="#418cff"/>
    <path id="Trazado_24426" data-name="Trazado 24426" d="M86.844-415.048a.661.661,0,0,1-.539-.278.661.661,0,0,1-.085-.6,3.3,3.3,0,0,1,3.115-2.206H99.992a.661.661,0,0,1,.661.661.661.661,0,0,1-.661.661H89.335a1.982,1.982,0,0,0-1.868,1.321A.661.661,0,0,1,86.844-415.048Z" transform="translate(-79.511 -86.597)" fill="#418cff"/>
    <path id="Trazado_24427" data-name="Trazado 24427" d="M82.992-374.75a.661.661,0,0,1-.539-.279.661.661,0,0,1-.084-.6l2.48-7.048A1.987,1.987,0,0,1,86.719-384h1.13a.661.661,0,0,1,.661.661.661.661,0,0,1-.661.661h-1.13a.661.661,0,0,0-.623.441l-2.48,7.046A.661.661,0,0,1,82.992-374.75Z" transform="translate(-75.957 -118.087)" fill="#418cff"/>
    <path id="Trazado_24428" data-name="Trazado 24428" d="M222.528-414.169a.661.661,0,0,1-.661-.661v-2.643a.661.661,0,0,1,.661-.661.661.661,0,0,1,.661.661v2.643A.661.661,0,0,1,222.528-414.169Z" transform="translate(-204.689 -86.597)" fill="#418cff"/>
    <path id="Trazado_24429" data-name="Trazado 24429" d="M185.807-380.036h-5.285a1.321,1.321,0,0,1-1.321-1.321v-1.321A1.321,1.321,0,0,1,180.521-384h5.285a.661.661,0,0,1,.661.661.661.661,0,0,1-.661.661h-5.285v1.321h5.285a.661.661,0,0,1,.661.661A.661.661,0,0,1,185.807-380.036Z" transform="translate(-165.325 -118.087)" fill="#418cff"/>
    <path id="Trazado_24430" data-name="Trazado 24430" d="M40.08-208.048H36.115a1.982,1.982,0,0,1-1.982-1.982v-1.321a1.982,1.982,0,0,1,1.982-1.982h2.643a3.307,3.307,0,0,1,3.3,3.3A1.982,1.982,0,0,1,40.08-208.048Zm-3.964-3.964a.661.661,0,0,0-.661.661v1.321a.661.661,0,0,0,.661.661H40.08a.661.661,0,0,0,.661-.661,1.982,1.982,0,0,0-1.982-1.982Z" transform="translate(-31.491 -275.54)" fill="#418cff"/>
    <path id="Trazado_24431" data-name="Trazado 24431" d="M330.213-208.048h-3.964a1.982,1.982,0,0,1-1.982-1.982,3.307,3.307,0,0,1,3.3-3.3h2.643a1.982,1.982,0,0,1,1.982,1.982v1.321A1.982,1.982,0,0,1,330.213-208.048Zm-2.643-3.964a1.982,1.982,0,0,0-1.982,1.982.661.661,0,0,0,.661.661h3.964a.661.661,0,0,0,.661-.661v-1.321a.661.661,0,0,0-.661-.661Z" transform="translate(-299.161 -275.54)" fill="#418cff"/>
    <path id="Trazado_24432" data-name="Trazado 24432" d="M45.97-106.969H43.327a.661.661,0,0,1-.661-.661v-1.982a1.321,1.321,0,0,1,1.321-1.321h1.321a1.321,1.321,0,0,1,1.321,1.321v1.982A.661.661,0,0,1,45.97-106.969Zm-1.982-1.321h1.321v-1.321H43.988Z" transform="translate(-39.363 -370.012)" fill="#418cff"/>
    <path id="Trazado_24433" data-name="Trazado 24433" d="M370.237-106.969h-2.643a.661.661,0,0,1-.661-.661v-1.982a1.321,1.321,0,0,1,1.321-1.321h1.321a1.321,1.321,0,0,1,1.321,1.321v1.982A.661.661,0,0,1,370.237-106.969Zm-1.982-1.321h1.321v-1.321h-1.321Z" transform="translate(-338.523 -370.012)" fill="#418cff"/>
    <path id="Trazado_24434" data-name="Trazado 24434" d="M164.171-156.847h-9.25a1.321,1.321,0,0,1-1.321-1.321v-2.643a1.321,1.321,0,0,1,1.321-1.321h9.25a1.321,1.321,0,0,1,1.321,1.321v2.643A1.321,1.321,0,0,1,164.171-156.847Zm-9.25-1.321h9.25v-2.643h-9.25Z" transform="translate(-141.708 -322.776)" fill="#418cff"/>
  </g>
</svg>
