<svg xmlns="http://www.w3.org/2000/svg" width="39.636" height="39.636" viewBox="0 0 39.636 39.636">
  <g id="Grupo_2639" data-name="Grupo 2639" transform="translate(0 512)">
    <path id="Trazado_24376" data-name="Trazado 24376" d="M46.848-500.824a2.644,2.644,0,0,0-2.642-2.642H11.176a2.644,2.644,0,0,0-2.642,2.642v25.1a2.644,2.644,0,0,0,2.642,2.642h33.03a2.644,2.644,0,0,0,2.642-2.642Z" transform="translate(-7.873 -7.872)" fill="#e7ecfb" fill-rule="evenodd"/>
    <path id="Trazado_24377" data-name="Trazado 24377" d="M445.715-503.467h-1.982a2.642,2.642,0,0,1,2.642,2.642v25.1a2.642,2.642,0,0,1-2.642,2.642h1.982a2.642,2.642,0,0,0,2.642-2.642v-25.1A2.642,2.642,0,0,0,445.715-503.467Z" transform="translate(-409.382 -7.872)" fill="#cad9fb"/>
    <path id="Trazado_24378" data-name="Trazado 24378" d="M75.036-444.23a.661.661,0,0,0,.661-.661v-23.782a.661.661,0,0,0-.661-.661H43.327a.661.661,0,0,0-.661.661v23.782a.661.661,0,0,0,.661.661Z" transform="translate(-39.364 -39.364)" fill="#e7ecfb" fill-rule="evenodd"/>
    <path id="Trazado_24379" data-name="Trazado 24379" d="M437.182-469.333H435.2a.661.661,0,0,1,.661.661v23.782a.661.661,0,0,1-.661.661h1.982a.661.661,0,0,0,.661-.661v-23.782A.661.661,0,0,0,437.182-469.333Z" transform="translate(-401.509 -39.364)" fill="#cad9fb"/>
    <path id="Trazado_24380" data-name="Trazado 24380" d="M119.467-106.97h21.139v-3.964H119.467Z" transform="translate(-110.219 -370.018)" fill="#a3c2f6"/>
    <path id="Trazado_24381" data-name="Trazado 24381" d="M366.933-106.97h1.982v-3.964h-1.982Z" transform="translate(-338.527 -370.018)" fill="#7eabfa"/>
    <path id="Trazado_24382" data-name="Trazado 24382" d="M69.588-59.733H96.012a1.321,1.321,0,0,1,1.321,1.321v1.982a.661.661,0,0,1-.661.661H68.927a.661.661,0,0,1-.661-.661v-1.982A1.321,1.321,0,0,1,69.588-59.733Z" transform="translate(-62.982 -417.255)" fill="#e7ecfb"/>
    <path id="Trazado_24383" data-name="Trazado 24383" d="M403.049-59.733h-1.982a1.321,1.321,0,0,1,1.321,1.321v1.982a.661.661,0,0,1-.661.661h1.982a.661.661,0,0,0,.661-.661v-1.982A1.321,1.321,0,0,0,403.049-59.733Z" transform="translate(-370.019 -417.255)" fill="#cad9fb"/>
    <path id="Trazado_24384" data-name="Trazado 24384" d="M402.388-324.267a1.322,1.322,0,0,1,1.321,1.321,1.322,1.322,0,0,1-1.321,1.321,1.322,1.322,0,0,1-1.321-1.321A1.322,1.322,0,0,1,402.388-324.267Z" transform="translate(-370.019 -173.2)" fill="#e7ecfb" fill-rule="evenodd"/>
    <path id="Trazado_24385" data-name="Trazado 24385" d="M11.176-473.079h1.982a2.642,2.642,0,0,1-2.642-2.642v-25.1a2.642,2.642,0,0,1,2.642-2.642H11.176a2.642,2.642,0,0,0-2.642,2.642v25.1A2.642,2.642,0,0,0,11.176-473.079Z" transform="translate(-7.873 -7.872)" fill="#fff"/>
    <path id="Trazado_24386" data-name="Trazado 24386" d="M68.267-56.43a.661.661,0,0,0,.661.661h1.982a.661.661,0,0,1-.661-.661v-1.982a1.321,1.321,0,0,1,1.321-1.321H69.588a1.321,1.321,0,0,0-1.321,1.321Z" transform="translate(-62.982 -417.255)" fill="#fff"/>
    <path id="Trazado_24387" data-name="Trazado 24387" d="M119.467-106.97h1.982v-3.964h-1.982Z" transform="translate(-110.219 -370.018)" fill="#fff"/>
    <path id="Trazado_24388" data-name="Trazado 24388" d="M0-208.049H1.321v-5.285H0Z" transform="translate(0 -275.545)" fill="#fff"/>
    <path id="Trazado_24389" data-name="Trazado 24389" d="M.661-187.733a.661.661,0,0,1,.661.661.661.661,0,0,1-.661.661A.661.661,0,0,1,0-187.072.661.661,0,0,1,.661-187.733Z" transform="translate(0 -299.164)" fill="#418cff" fill-rule="evenodd"/>
    <path id="Trazado_24390" data-name="Trazado 24390" d="M3.3-480.291H8.588v2.642H6.606a1.982,1.982,0,0,0-1.982,1.982v1.982a1.321,1.321,0,0,0,1.321,1.321H33.691a1.321,1.321,0,0,0,1.321-1.321v-1.982a1.982,1.982,0,0,0-1.982-1.982H31.048v-2.642h5.285a3.307,3.307,0,0,0,3.3-3.3v-25.1a3.307,3.307,0,0,0-3.3-3.3H3.3A3.307,3.307,0,0,0,0-508.7v19.818a.661.661,0,0,0,.661.661.661.661,0,0,0,.661-.661V-508.7A1.982,1.982,0,0,1,3.3-510.679h33.03a1.982,1.982,0,0,1,1.982,1.982v25.1a1.982,1.982,0,0,1-1.982,1.982H3.3a1.982,1.982,0,0,1-1.982-1.982.661.661,0,0,0-.661-.661.661.661,0,0,0-.661.661A3.307,3.307,0,0,0,3.3-480.291Zm30.388,4.624v1.982H5.945v-1.982a.661.661,0,0,1,.661-.661H33.03A.661.661,0,0,1,33.691-475.667Zm-3.964-4.624v2.642H9.909v-2.642Z" fill="#418cff"/>
    <path id="Trazado_24391" data-name="Trazado 24391" d="M67.163-451.443a1.321,1.321,0,0,0,1.321-1.321v-23.782a1.321,1.321,0,0,0-1.321-1.321H35.455a1.321,1.321,0,0,0-1.321,1.321v23.782a1.321,1.321,0,0,0,1.321,1.321Zm-31.709-25.1H67.163v23.782H35.455Z" transform="translate(-31.491 -31.491)" fill="#418cff"/>
    <path id="Trazado_24392" data-name="Trazado 24392" d="M95.351-427.267a1.982,1.982,0,0,0-1.86,1.321H90.565l-2.506-8.769a.661.661,0,0,0-.657-.478.661.661,0,0,0-.623.522l-3.44,16.053-3.211-10.167a.661.661,0,0,0-.616-.462.638.638,0,0,0-.635.435l-1.994,5.483L76.16-425.5a.661.661,0,0,0-.627-.45H68.927a.661.661,0,0,0-.661.661.661.661,0,0,0,.661.661h6.13l1.171,3.512a.661.661,0,0,0,.618.452.687.687,0,0,0,.63-.435l1.977-5.439,3.378,10.7a.661.661,0,0,0,.63.462h.031a.661.661,0,0,0,.615-.522l3.409-15.91,1.916,6.705a.66.66,0,0,0,.635.478h3.424a1.979,1.979,0,0,0,2.312,1.263,1.979,1.979,0,0,0,1.517-2.155A1.979,1.979,0,0,0,95.351-427.267Zm0,2.642a.661.661,0,0,1-.661-.661.661.661,0,0,1,.661-.661.661.661,0,0,1,.661.661A.661.661,0,0,1,95.351-424.625Z" transform="translate(-62.982 -70.86)" fill="#418cff"/>
    <path id="Trazado_24393" data-name="Trazado 24393" d="M68.929-441.655a.661.661,0,0,0,.467-.194l.661-.661a.661.661,0,0,0-.008-.926.661.661,0,0,0-.926-.008l-.661.661a.661.661,0,0,0-.143.72A.661.661,0,0,0,68.929-441.655Z" transform="translate(-62.983 -63.078)" fill="#418cff"/>
    <path id="Trazado_24394" data-name="Trazado 24394" d="M68.929-437.691a.661.661,0,0,0,.467-.194l4.624-4.624a.661.661,0,0,0-.008-.926.661.661,0,0,0-.926-.008l-4.624,4.624a.661.661,0,0,0-.143.72A.661.661,0,0,0,68.929-437.691Z" transform="translate(-62.983 -63.078)" fill="#418cff"/>
  </g>
</svg>
