<svg xmlns="http://www.w3.org/2000/svg" width="42" height="42.025" viewBox="0 0 42 42.025">
  <g id="Grupo_2616" data-name="Grupo 2616" transform="translate(0 512)">
    <path id="Trazado_23558" data-name="Trazado 23558" d="M221.467-277.591a12.566,12.566,0,0,1-5.645,10.506H201.9a12.608,12.608,0,0,1-4.7-15.306,12.607,12.607,0,0,1,14.106-7.573A12.608,12.608,0,0,1,221.467-277.591Z" transform="translate(-180.143 -203.591)" fill="#e7ecfb"/>
    <path id="Trazado_23559" data-name="Trazado 23559" d="M337.491-290.133a8.311,8.311,0,0,0-1.107.049,12.607,12.607,0,0,1,11.192,9.409,12.607,12.607,0,0,1-5.224,13.656h2.1a12.607,12.607,0,0,0,5.1-14.142A12.607,12.607,0,0,0,337.491-290.133Z" transform="translate(-308.774 -203.656)" fill="#cad9fb"/>
    <path id="Trazado_23560" data-name="Trazado 23560" d="M267.934-230.4v5.6a2.1,2.1,0,0,0-2,1.45l-5.33-1.73A7.7,7.7,0,0,1,267.934-230.4Z" transform="translate(-239.217 -258.486)" fill="#e7ecfb"/>
    <path id="Trazado_23561" data-name="Trazado 23561" d="M357.193-225.077l-5.33,1.73a2.1,2.1,0,0,0-2-1.45v-5.6A7.7,7.7,0,0,1,357.193-225.077Z" transform="translate(-321.15 -258.486)" fill="#cad9fb"/>
    <path id="Trazado_23562" data-name="Trazado 23562" d="M349.867-230.4v.294a7.7,7.7,0,0,1,5.225,5.029l-3.5,1.142a2.1,2.1,0,0,1,.3.588l5.33-1.73A7.7,7.7,0,0,0,349.867-230.4Z" transform="translate(-321.15 -258.485)" fill="#a3c2f6"/>
    <path id="Trazado_23563" data-name="Trazado 23563" d="M371.357-163.166a7.7,7.7,0,0,1-3.173,6.234l-3.3-4.532a2.1,2.1,0,0,0,.869-1.7,1.984,1.984,0,0,0-.105-.651l5.33-1.73A7.632,7.632,0,0,1,371.357-163.166Z" transform="translate(-334.935 -318.016)" fill="#e7ecfb"/>
    <path id="Trazado_23564" data-name="Trazado 23564" d="M398.472-165.547l-1.926.623a7.7,7.7,0,0,1-1.709,6.836l.841,1.156a7.7,7.7,0,0,0,3.173-6.234A7.632,7.632,0,0,0,398.472-165.547Z" transform="translate(-362.429 -318.016)" fill="#cad9fb"/>
    <path id="Trazado_23565" data-name="Trazado 23565" d="M303.719-111.265a7.7,7.7,0,0,1-9.063,0l3.3-4.532a2.1,2.1,0,0,0,2.465,0Z" transform="translate(-270.471 -363.683)" fill="#e7ecfb"/>
    <path id="Trazado_23566" data-name="Trazado 23566" d="M339.115-115.8a2.1,2.1,0,0,1-1.233.4,1.984,1.984,0,0,1-.651-.105l3.082,4.2a7.7,7.7,0,0,1-3.5,1.4,7.418,7.418,0,0,0,1.072.105,7.7,7.7,0,0,0,4.532-1.471Z" transform="translate(-309.166 -363.683)" fill="#cad9fb"/>
    <path id="Trazado_23567" data-name="Trazado 23567" d="M262.472-161.464l-3.3,4.532A7.7,7.7,0,0,1,256-163.166a7.633,7.633,0,0,1,.378-2.381l5.33,1.73a1.983,1.983,0,0,0-.105.651A2.1,2.1,0,0,0,262.472-161.464Z" transform="translate(-234.987 -318.016)" fill="#cad9fb"/>
    <path id="Trazado_23568" data-name="Trazado 23568" d="M328.469-159.979a2.1,2.1,0,0,1-.869,1.7,2.1,2.1,0,0,1-2.465,0,2.1,2.1,0,0,1-.868-1.7,1.983,1.983,0,0,1,.105-.651,2.1,2.1,0,0,1,2-1.445,2.1,2.1,0,0,1,2,1.445A1.983,1.983,0,0,1,328.469-159.979Z" transform="translate(-297.651 -321.202)" fill="#a3c2f6"/>
    <path id="Trazado_23569" data-name="Trazado 23569" d="M33.748-490.994a12.46,12.46,0,0,1-1.31,5.6,12.608,12.608,0,0,0-7.186,6.3,12.607,12.607,0,0,1-14.212-4.373,12.607,12.607,0,0,1-.163-14.868,12.607,12.607,0,0,1,14.113-4.682A12.607,12.607,0,0,1,33.748-490.994Z" transform="translate(-7.833 -7.698)" fill="#a3c2f6"/>
    <path id="Trazado_23570" data-name="Trazado 23570" d="M150.384-503.467a10.443,10.443,0,0,0-1.051.056A12.607,12.607,0,0,1,160.89-490.86a12.46,12.46,0,0,1-1.31,5.6,12.608,12.608,0,0,0-7.186,6.3,12.527,12.527,0,0,1-3,.637c.329,0,.658.049.995.049a12.657,12.657,0,0,0,4.111-.7,12.607,12.607,0,0,1,7.186-6.3,12.459,12.459,0,0,0,1.31-5.589A12.607,12.607,0,0,0,150.384-503.467Z" transform="translate(-137.076 -7.833)" fill="#7eabfa"/>
    <path id="Trazado_23571" data-name="Trazado 23571" d="M80.2-443.733v5.6a2.1,2.1,0,0,0-2,1.45l-5.33-1.73A7.7,7.7,0,0,1,80.2-443.733Z" transform="translate(-66.893 -62.664)" fill="#e7ecfb"/>
    <path id="Trazado_23572" data-name="Trazado 23572" d="M74.738-374.8l-3.3,4.532a7.7,7.7,0,0,1-3.173-6.234,7.634,7.634,0,0,1,.378-2.381l5.33,1.73a1.985,1.985,0,0,0-.105.651A2.1,2.1,0,0,0,74.738-374.8Z" transform="translate(-62.663 -122.194)" fill="#cad9fb"/>
    <path id="Trazado_23573" data-name="Trazado 23573" d="M115.986-324.6a7.7,7.7,0,0,1-9.063,0l3.3-4.532a2.1,2.1,0,0,0,2.465,0Z" transform="translate(-98.147 -167.859)" fill="#e7ecfb"/>
    <path id="Trazado_23574" data-name="Trazado 23574" d="M183.624-376.5a7.7,7.7,0,0,1-3.173,6.234l-3.3-4.532a2.1,2.1,0,0,0,.868-1.7,1.982,1.982,0,0,0-.105-.651l5.33-1.73A7.634,7.634,0,0,1,183.624-376.5Z" transform="translate(-162.611 -122.194)" fill="#e7ecfb"/>
    <path id="Trazado_23575" data-name="Trazado 23575" d="M169.459-438.41l-5.33,1.73a2.1,2.1,0,0,0-2-1.45v-5.6A7.7,7.7,0,0,1,169.459-438.41Z" transform="translate(-148.825 -62.664)" fill="#cad9fb"/>
    <path id="Trazado_23576" data-name="Trazado 23576" d="M140.735-373.313a2.1,2.1,0,0,1-.868,1.7,2.1,2.1,0,0,1-2.465,0,2.1,2.1,0,0,1-.869-1.7,1.984,1.984,0,0,1,.105-.651,2.1,2.1,0,0,1,2-1.445,2.1,2.1,0,0,1,2,1.445A1.983,1.983,0,0,1,140.735-373.313Z" transform="translate(-125.326 -125.38)" fill="#a3c2f6"/>
    <path id="Trazado_23577" data-name="Trazado 23577" d="M6.615-490.729A12.607,12.607,0,0,1,18.172-503.28a12.452,12.452,0,0,0-2.1,0,12.607,12.607,0,0,0-10.663,7.108A12.607,12.607,0,0,0,6.476-483.4a12.607,12.607,0,0,0,11.7,5.238A12.607,12.607,0,0,1,6.615-490.729Z" transform="translate(-3.813 -7.963)" fill="#fff"/>
    <path id="Trazado_23578" data-name="Trazado 23578" d="M1.3-419.5l1.268.6a11.956,11.956,0,0,0-1.17,5.113H0A13.434,13.434,0,0,1,1.3-419.5Z" transform="translate(0 -84.909)" fill="#fff"/>
    <path id="Trazado_23579" data-name="Trazado 23579" d="M40.232-474.521a13.259,13.259,0,0,0,0-13.231.368.368,0,0,1,0-.07l-.063-.063a13.308,13.308,0,0,0-4.749-4.749.241.241,0,0,0-.063-.056h-.063a13.126,13.126,0,0,0-9.484-1.4,13.273,13.273,0,0,0-.953-11.186.384.384,0,0,1,0-.07l-.063-.063a13.307,13.307,0,0,0-4.749-4.749.235.235,0,0,0-.063-.056H19.92A13.237,13.237,0,0,0,13.308-512a13.454,13.454,0,0,0-6.577,1.758H6.654a.237.237,0,0,0-.063.056c-.126.077-.259.14-.378.224a12.69,12.69,0,0,0-2.844,2.444,13.585,13.585,0,0,0-1.555,2.1v.042a.049.049,0,0,1,0,.035c-.168.294-.329.6-.469.9a.7.7,0,0,0-.022.537.7.7,0,0,0,.365.394.735.735,0,0,0,.925-.329l.105-.217.574.336a.7.7,0,0,0,.7,0,.7.7,0,0,0,.35-.609.7.7,0,0,0-.353-.608l-.581-.336a12.116,12.116,0,0,1,1-1.317,11.425,11.425,0,0,1,2.353-2.031l.329.567a.7.7,0,0,0,.96.259.7.7,0,0,0,.259-.96l-.336-.574a12.209,12.209,0,0,1,4.63-1.275v.7a.7.7,0,0,0,.7.7.7.7,0,0,0,.7-.7v-.7a11.829,11.829,0,0,1,4.63,1.24l-.336.574a.7.7,0,0,0,.259.96.7.7,0,0,0,.96-.259l.336-.581a12.018,12.018,0,0,1,3.39,3.39l-.581.336a.7.7,0,0,0-.259.96.7.7,0,0,0,.96.259l.574-.336a11.83,11.83,0,0,1,1.275,4.665h-.7a.7.7,0,0,0-.7.7.7.7,0,0,0,.7.7h.658a11.557,11.557,0,0,1-1.1,4.357,14,14,0,0,0-1.947.9h-.063a.236.236,0,0,0-.063.056,13.308,13.308,0,0,0-4.749,4.749l-.063.063a.384.384,0,0,1,0,.07c-.077.133-.154.266-.224.406a11.723,11.723,0,0,1-2.956.6v-.7a.7.7,0,0,0-.7-.7.7.7,0,0,0-.7.7v.7a11.831,11.831,0,0,1-4.63-1.24l.336-.574a.7.7,0,0,0-.259-.96.7.7,0,0,0-.96.259l-.336.581a12.02,12.02,0,0,1-3.39-3.39l.581-.336a.7.7,0,0,0,.259-.96.7.7,0,0,0-.96-.259l-.574.336a11.83,11.83,0,0,1-1.24-4.665H2.1a.7.7,0,0,0,.7-.7.7.7,0,0,0-.7-.7H.7a.7.7,0,0,0-.7.7,13.189,13.189,0,0,0,1.758,6.584.378.378,0,0,1,0,.07.7.7,0,0,0,.091.112,13.308,13.308,0,0,0,4.721,4.7.24.24,0,0,0,.063.056.531.531,0,0,0,.091.042,13.2,13.2,0,0,0,6.584,1.744,13.616,13.616,0,0,0,2.914-.329,13.125,13.125,0,0,0-.813,4.532,13.308,13.308,0,0,0,1.779,6.647,13.142,13.142,0,0,0,2.542,3.159H17.51a.7.7,0,0,0-.7.7.7.7,0,0,0,.7.7H39.924a.7.7,0,0,0,.7-.7.7.7,0,0,0-.7-.7H37.7A13.141,13.141,0,0,0,40.232-474.521Zm-18.253,3.145a11.908,11.908,0,0,1-3.208-3.257l.588-.336a.7.7,0,0,0,.259-.96.7.7,0,0,0-.96-.259l-.588.343a11.907,11.907,0,0,1-1.261-4.637h.7a.7.7,0,0,0,.7-.7.7.7,0,0,0-.7-.7h-.665a11.829,11.829,0,0,1,1.24-4.63l.574.336a.7.7,0,0,0,.96-.259.7.7,0,0,0-.259-.96l-.581-.336a12.02,12.02,0,0,1,3.39-3.39l.336.581a.7.7,0,0,0,.96.259.7.7,0,0,0,.259-.96l-.336-.574a11.828,11.828,0,0,1,4.63-1.24v.665a.7.7,0,0,0,.7.7.7.7,0,0,0,.7-.7v-.665a11.828,11.828,0,0,1,4.63,1.24l-.336.574a.7.7,0,0,0,.259.96.7.7,0,0,0,.96-.259l.336-.581a12.02,12.02,0,0,1,3.39,3.39l-.581.336a.7.7,0,0,0-.259.96.7.7,0,0,0,.96.259l.574-.336a11.83,11.83,0,0,1,1.275,4.63h-.7a.7.7,0,0,0-.7.7.7.7,0,0,0,.7.7h.7a11.907,11.907,0,0,1-1.24,4.637l-.588-.343a.7.7,0,0,0-.7,0,.7.7,0,0,0-.35.609.7.7,0,0,0,.353.608l.588.336a11.907,11.907,0,0,1-3.229,3.257Z" transform="translate(0)" fill="#418cff"/>
    <path id="Trazado_23580" data-name="Trazado 23580" d="M255.872-238.933a8.4,8.4,0,0,0-8.4,8.4,8.4,8.4,0,0,0,8.4,8.4,8.4,8.4,0,0,0,8.4-8.4A8.4,8.4,0,0,0,255.872-238.933Zm6.409,5.6-4.055,1.317a2.8,2.8,0,0,0-1.653-1.219V-237.5A7,7,0,0,1,262.281-233.33Zm-7.81,2.8a1.4,1.4,0,0,1,1.4-1.4,1.4,1.4,0,0,1,1.4,1.4,1.4,1.4,0,0,1-1.4,1.4A1.4,1.4,0,0,1,254.471-230.528Zm.7-7v4.266a2.8,2.8,0,0,0-1.653,1.2l-4.055-1.268a7,7,0,0,1,5.708-4.167Zm-6.3,7a6.89,6.89,0,0,1,.161-1.485l4.041,1.317v.168a2.8,2.8,0,0,0,.651,1.772l-2.507,3.446A7,7,0,0,1,248.868-230.528Zm3.5,6.044,2.5-3.446a2.675,2.675,0,0,0,2.045,0l2.458,3.446a6.948,6.948,0,0,1-7.046,0Zm8.181-.826-2.507-3.446a2.8,2.8,0,0,0,.63-1.772v-.168l4.055-1.317a6.9,6.9,0,0,1,.147,1.485,7,7,0,0,1-2.346,5.218Z" transform="translate(-227.155 -250.654)" fill="#418cff"/>
    <path id="Trazado_23581" data-name="Trazado 23581" d="M4.711-391.132a.7.7,0,0,1-.7-.7.7.7,0,0,1,.7-.7.7.7,0,0,1,.7.7A.7.7,0,0,1,4.711-391.132Z" transform="translate(-3.681 -109.661)" fill="#418cff"/>
    <path id="Trazado_23582" data-name="Trazado 23582" d="M68.138-435.457a8.4,8.4,0,0,0,8.4-8.4,8.4,8.4,0,0,0-8.4-8.4,8.4,8.4,0,0,0-8.4,8.4,8.4,8.4,0,0,0,2.462,5.943A8.4,8.4,0,0,0,68.138-435.457Zm-3.5-2.36,2.5-3.446a2.675,2.675,0,0,0,2.045,0l2.458,3.446a6.948,6.948,0,0,1-7.046,0Zm3.5-7.445a1.4,1.4,0,0,1,1.4,1.4,1.4,1.4,0,0,1-1.4,1.4,1.4,1.4,0,0,1-1.4-1.4A1.4,1.4,0,0,1,68.138-445.263Zm4.658,6.619-2.507-3.446a2.8,2.8,0,0,0,.651-1.772v-.168L75-445.347a6.893,6.893,0,0,1,.147,1.485A7,7,0,0,1,72.8-438.644Zm1.751-8.02-4.055,1.317a2.8,2.8,0,0,0-1.653-1.219v-4.266A7,7,0,0,1,74.547-446.664Zm-7.109-4.167v4.266a2.8,2.8,0,0,0-1.653,1.2l-4.055-1.3A7,7,0,0,1,67.438-450.831ZM61.3-445.347l4.041,1.317v.168a2.8,2.8,0,0,0,.651,1.772l-2.507,3.446a7,7,0,0,1-2.346-5.218A6.892,6.892,0,0,1,61.3-445.347Z" transform="translate(-54.83 -54.83)" fill="#418cff"/>
    <path id="Trazado_23583" data-name="Trazado 23583" d="M360.5-443.733h-1.4a.7.7,0,0,0-.7.7.7.7,0,0,0,.7.7h1.4a4.9,4.9,0,0,1,4.9,4.9v1.114l-.9-.911a.7.7,0,0,0-.679-.182.7.7,0,0,0-.5.5.7.7,0,0,0,.182.679l2.1,2.1a.7.7,0,0,0,.5.207.7.7,0,0,0,.5-.207l2.1-2.1a.7.7,0,0,0,0-.995.7.7,0,0,0-.995,0l-.9.911v-1.114A6.3,6.3,0,0,0,360.5-443.733Z" transform="translate(-328.983 -62.664)" fill="#418cff"/>
    <path id="Trazado_23584" data-name="Trazado 23584" d="M35.374-179.374h-1.4a4.9,4.9,0,0,1-4.9-4.9v-1.114l.9.911a.7.7,0,0,0,.5.207.7.7,0,0,0,.5-.207.7.7,0,0,0,.207-.5.7.7,0,0,0-.207-.5l-2.1-2.1a.7.7,0,0,0-.5-.207.7.7,0,0,0-.5.207l-2.1,2.1a.7.7,0,0,0,0,.995.7.7,0,0,0,.995,0l.9-.911v1.114a6.3,6.3,0,0,0,6.3,6.3h1.4a.7.7,0,0,0,.7-.7A.7.7,0,0,0,35.374-179.374Z" transform="translate(-23.467 -297.605)" fill="#418cff"/>
  </g>
</svg>
