<svg xmlns="http://www.w3.org/2000/svg" width="35.388" height="28.575" viewBox="0 0 35.388 28.575">
  <g id="Grupo_2717" data-name="Grupo 2717" transform="translate(0 408.072)">
    <path id="Trazado_24753" data-name="Trazado 24753" d="M14.441-401.03s.918,2.29-.808,5.694-3.827,6.832-3.565,11.743,5.213,8.4,5.213,8.4l23.424-.08s4.962-3.621,5.569-8.154-3.661-11.87-3.661-11.87a8.406,8.406,0,0,1-1.27-3.008,26.561,26.561,0,0,1,.3-2.721Z" transform="translate(-9.342 -6.549)" fill="#e7ecfb" fill-rule="evenodd"/>
    <path id="Trazado_24754" data-name="Trazado 24754" d="M399.575-400.136a10.213,10.213,0,0,0,1.126,6.455c1.661,3.077,3.377,4,3.681,9.306a9.331,9.331,0,0,1-1.7,5.514,38.078,38.078,0,0,1-2.9,3.943l.645.829a18.877,18.877,0,0,0,3.779-4.2,10.388,10.388,0,0,0,1.865-6.143c-.317-5.545-2.068-6.528-3.8-9.745a9.777,9.777,0,0,1-1.011-5.955Z" transform="translate(-371.48 -7.38)" fill="#a3c2f6" fill-rule="evenodd"/>
    <path id="Trazado_24755" data-name="Trazado 24755" d="M19.577-400.136a10.213,10.213,0,0,1-1.126,6.455c-1.661,3.077-3.377,4-3.68,9.306a9.331,9.331,0,0,0,1.7,5.514,28.3,28.3,0,0,0,3.05,3.943l-.645.829a18.879,18.879,0,0,1-3.779-4.2,10.389,10.389,0,0,1-1.865-6.143c.317-5.545,2.068-6.528,3.8-9.745a9.777,9.777,0,0,0,1.011-5.955Z" transform="translate(-12.292 -7.38)" fill="#fff" fill-rule="evenodd"/>
    <path id="Trazado_24756" data-name="Trazado 24756" d="M239.937-149.089a1.259,1.259,0,0,1,1.258,1.258,1.259,1.259,0,0,1-1.258,1.258,1.259,1.259,0,0,1-1.258-1.258A1.259,1.259,0,0,1,239.937-149.089Z" transform="translate(-221.966 -240.848)" fill="#a3c2f6" fill-rule="evenodd"/>
    <path id="Trazado_24757" data-name="Trazado 24757" d="M233.23-142a1.259,1.259,0,0,1,1.258,1.258,1.259,1.259,0,0,1-1.258,1.258,1.259,1.259,0,0,1-1.258-1.258A1.259,1.259,0,0,1,233.23-142Z" transform="translate(-215.729 -247.441)" fill="#fff" fill-rule="evenodd"/>
    <path id="Trazado_24758" data-name="Trazado 24758" d="M235.3-145.378a1.259,1.259,0,0,1,1.258,1.258,1.259,1.259,0,0,1-1.258,1.258,1.259,1.259,0,0,1-1.258-1.258A1.259,1.259,0,0,1,235.3-145.378Z" transform="translate(-217.657 -244.299)" fill="#418cff" fill-rule="evenodd"/>
    <path id="Trazado_24759" data-name="Trazado 24759" d="M238.414-350.332c-1.129,0-1.842-10.376-1.842-10.376s-.041-2.56,1.842-2.56,2.049,2.56,2.049,2.56S239.543-350.332,238.414-350.332Z" transform="translate(-220.006 -41.666)" fill="#a3c2f6" fill-rule="evenodd"/>
    <path id="Trazado_24760" data-name="Trazado 24760" d="M222.715-340.684c-1.129,0-1.842-10.376-1.842-10.376s-.041-2.56,1.842-2.56,2.049,2.56,2.049,2.56S223.844-340.684,222.715-340.684Z" transform="translate(-205.407 -50.639)" fill="#fff" fill-rule="evenodd"/>
    <path id="Trazado_24761" data-name="Trazado 24761" d="M227.727-343.356c-1.129,0-1.842-10.376-1.842-10.376s-.041-2.56,1.842-2.56,2.049,2.56,2.049,2.56S228.856-343.356,227.727-343.356Z" transform="translate(-210.068 -48.154)" fill="#418cff" fill-rule="evenodd"/>
    <path id="Trazado_24762" data-name="Trazado 24762" d="M6.271-381.142h-.3a.7.7,0,0,1-.4-.124S0-385.148,0-390.936a16.13,16.13,0,0,1,2.163-8.508,33.855,33.855,0,0,0,1.9-3.448,6.016,6.016,0,0,0,.453-4.2.7.7,0,0,1,.367-.92.7.7,0,0,1,.92.367s.907,1.99-.445,5.286a35.211,35.211,0,0,1-1.973,3.6A14.84,14.84,0,0,0,1.4-390.936c0,4.546,3.929,7.74,4.8,8.394H29.184c.874-.654,4.8-3.848,4.8-8.394A14.839,14.839,0,0,0,32-398.761a35.225,35.225,0,0,1-1.973-3.6c-1.352-3.3-.445-5.286-.445-5.286a.7.7,0,0,1,.92-.367.7.7,0,0,1,.367.92,6.016,6.016,0,0,0,.453,4.2,33.846,33.846,0,0,0,1.9,3.448,16.13,16.13,0,0,1,2.163,8.508c0,5.789-5.578,9.67-5.578,9.67a.7.7,0,0,1-.4.124h-.227v.945a.7.7,0,0,1-.7.7.7.7,0,0,1-.7-.7v-.945h-.751v.945a.7.7,0,0,1-.7.7.7.7,0,0,1-.7-.7v-.945h-.751v.945a.7.7,0,0,1-.7.7.7.7,0,0,1-.7-.7v-.945h-.751v.945a.7.7,0,0,1-.7.7.7.7,0,0,1-.7-.7v-.945H20.58v.945a.7.7,0,0,1-.7.7.7.7,0,0,1-.7-.7v-.945h-.751v.945a.7.7,0,0,1-.7.7.7.7,0,0,1-.7-.7v-.945h-.751v.945a.7.7,0,0,1-.7.7.7.7,0,0,1-.7-.7v-.945h-.751v.945a.7.7,0,0,1-.7.7.7.7,0,0,1-.7-.7v-.945h-.751v.945a.7.7,0,0,1-.7.7.7.7,0,0,1-.7-.7v-.945H9.823v.945a.7.7,0,0,1-.7.7.7.7,0,0,1-.7-.7v-.945H7.671v.945a.7.7,0,0,1-.7.7.7.7,0,0,1-.7-.7Z" transform="translate(0 0)" fill="#418cff" fill-rule="evenodd"/>
  </g>
</svg>
