<svg xmlns="http://www.w3.org/2000/svg" width="21.333" height="24" viewBox="0 0 21.333 24">
  <g id="Grupo_230" data-name="Grupo 230" transform="translate(0 58.5)">
    <path id="Trazado_31" data-name="Trazado 31" d="M14.353-37.987A3.692,3.692,0,0,1,10.667-34.5,3.692,3.692,0,0,1,6.98-37.987H1.232A1.23,1.23,0,0,1,0-39.217v-1.232A2.463,2.463,0,0,1,2.462-42.91s0-4.923,0-4.923a8.207,8.207,0,0,1,5.333-7.688v-.108a2.872,2.872,0,0,1,2.872-2.87,2.871,2.871,0,0,1,2.872,2.87v.108a8.208,8.208,0,0,1,5.333,7.688v4.923a2.465,2.465,0,0,1,2.462,2.462v1.232a1.232,1.232,0,0,1-1.232,1.23Zm-1.646,0H8.626a2.051,2.051,0,0,0,2.041,1.846A2.051,2.051,0,0,0,12.708-37.987Zm6.984-1.641v-.821a.823.823,0,0,0-.821-.821,1.639,1.639,0,0,1-1.64-1.642v-4.923a6.566,6.566,0,0,0-4.74-6.307l-.593-.171V-55.63a1.23,1.23,0,0,0-1.231-1.229A1.231,1.231,0,0,0,9.436-55.63v1.318l-.593.171A6.565,6.565,0,0,0,4.1-47.834v4.923a1.642,1.642,0,0,1-1.64,1.642.822.822,0,0,0-.821.821v.821Z" fill="#418cfa"/>
  </g>
</svg>
