<svg xmlns="http://www.w3.org/2000/svg" width="44" height="43.976" viewBox="0 0 44 43.976">
  <g id="Grupo_2663" data-name="Grupo 2663" transform="translate(0 511.778)">
    <path id="Trazado_24531" data-name="Trazado 24531" d="M29.8-503.245a21.274,21.274,0,0,1,21.264,21.264A21.274,21.274,0,0,1,29.8-460.717,21.274,21.274,0,0,1,8.533-481.981,21.274,21.274,0,0,1,29.8-503.245Z" transform="translate(-7.8 -7.8)" fill="#a3c2f6" fill-rule="evenodd"/>
    <path id="Trazado_24532" data-name="Trazado 24532" d="M244.3-503.245q-.554,0-1.1.028a21.264,21.264,0,0,1,20.176,21.236A21.264,21.264,0,0,1,243.2-460.745q.547.028,1.1.028a21.264,21.264,0,0,0,21.264-21.264A21.264,21.264,0,0,0,244.3-503.245Z" transform="translate(-222.302 -7.8)" fill="#7eabfa"/>
    <path id="Trazado_24533" data-name="Trazado 24533" d="M61-469.112a18.34,18.34,0,0,1,18.331,18.331A18.34,18.34,0,0,1,61-432.45a18.34,18.34,0,0,1-18.331-18.331A18.34,18.34,0,0,1,61-469.112Z" transform="translate(-39 -39)" fill="#e7ecfb" fill-rule="evenodd"/>
    <path id="Trazado_24534" data-name="Trazado 24534" d="M244.3-469.112c-.367,0-.733.014-1.1.036a18.331,18.331,0,0,1,17.172,18.294A18.331,18.331,0,0,1,243.2-432.487c.367.022.733.036,1.1.036a18.331,18.331,0,0,0,18.167-18.33A18.331,18.331,0,0,0,244.3-469.112Z" transform="translate(-222.302 -39)" fill="#cad9fb"/>
    <path id="Trazado_24535" data-name="Trazado 24535" d="M158.759-353.136a.828.828,0,0,1-.48.659.828.828,0,0,1-.812-.073l-3.5-2.209a.676.676,0,0,1-.34-.587.676.676,0,0,1,.34-.587l3.5-2.209a.828.828,0,0,1,.812-.073.828.828,0,0,1,.48.659Z" transform="translate(-140.428 -140.301)" fill="#e7ecfb"/>
    <path id="Trazado_24536" data-name="Trazado 24536" d="M298.667-221.022a.828.828,0,0,1,.48-.659.828.828,0,0,1,.812.073l3.5,2.209a.676.676,0,0,1,.34.587.676.676,0,0,1-.34.587l-3.5,2.209a.828.828,0,0,1-.812.073.828.828,0,0,1-.48-.659Z" transform="translate(-273.003 -265.102)" fill="#e7ecfb"/>
    <path id="Trazado_24537" data-name="Trazado 24537" d="M10.733-481.981A21.264,21.264,0,0,1,30.739-503.2c-.314-.014-.624-.04-.942-.04A21.264,21.264,0,0,0,8.533-481.981,21.264,21.264,0,0,0,29.8-460.717c.356,0,.708-.014,1.059-.031A21.264,21.264,0,0,1,10.733-481.981Z" transform="translate(-7.8 -7.8)" fill="#fff"/>
    <path id="Trazado_24538" data-name="Trazado 24538" d="M2.258-250.188l-1.411.4-.377-1.467c-.095-.5-.158-1-.238-1.5L.117-253.5l-.044-.758L0-255.778H1.466l.073,1.414.037.708.108.7c.073.466.133.935.22,1.4Z" transform="translate(0 -234.003)" fill="#fff"/>
    <path id="Trazado_24539" data-name="Trazado 24539" d="M3.459-228.805a.733.733,0,0,1-.737-.73.733.733,0,0,1,.73-.737h.007a.733.733,0,0,1,.733.733A.733.733,0,0,1,3.459-228.805Z" transform="translate(-2.488 -257.317)" fill="#418cff"/>
    <path id="Trazado_24540" data-name="Trazado 24540" d="M22-511.778a22.022,22.022,0,0,0-22,22,.733.733,0,0,0,.733.733.733.733,0,0,0,.733-.733,20.59,20.59,0,0,1,15.839-20.093,20.59,20.59,0,0,1,23.174,10.841A20.59,20.59,0,0,1,35.207-474a20.59,20.59,0,0,1-25.578.574A20.767,20.767,0,0,1,5.051-478.2a21.264,21.264,0,0,1-2.794-5.993.733.733,0,0,0-.905-.506.733.733,0,0,0-.506.905,22.763,22.763,0,0,0,3,6.423,22.286,22.286,0,0,0,4.9,5.11,21.988,21.988,0,0,0,25.964.418,21.988,21.988,0,0,0,8.256-24.619A21.988,21.988,0,0,0,22-511.778Z" fill="#418cff"/>
    <path id="Trazado_24541" data-name="Trazado 24541" d="M251.692-90.294a14.66,14.66,0,0,1-3.492.419.733.733,0,0,0-.733.733.733.733,0,0,0,.733.733,16.1,16.1,0,0,0,3.841-.463.733.733,0,0,0,.554-.5.733.733,0,0,0-.178-.728A.733.733,0,0,0,251.692-90.294Z" transform="translate(-226.203 -385.241)" fill="#418cff"/>
    <path id="Trazado_24542" data-name="Trazado 24542" d="M333.572-120.468a.733.733,0,0,0,.351-.089,16.266,16.266,0,0,0,2.3-1.522.733.733,0,0,0,.089-1,.733.733,0,0,0-1-.145,14.786,14.786,0,0,1-2.1,1.384.733.733,0,0,0-.356.823A.733.733,0,0,0,333.572-120.468Z" transform="translate(-304.242 -355.042)" fill="#418cff"/>
    <path id="Trazado_24543" data-name="Trazado 24543" d="M394.07-254.12a15.992,15.992,0,0,0,3.073-9.459.733.733,0,0,0-.733-.733.733.733,0,0,0-.733.733,14.537,14.537,0,0,1-2.793,8.6.733.733,0,0,0,.183,1A.733.733,0,0,0,394.07-254.12Z" transform="translate(-359.014 -226.202)" fill="#418cff"/>
    <path id="Trazado_24544" data-name="Trazado 24544" d="M36.691-466.585a.733.733,0,0,0-.966.378,18.871,18.871,0,0,0-1.593,7.626A19.064,19.064,0,0,0,53.2-439.517a19.064,19.064,0,0,0,19.064-19.064A19.064,19.064,0,0,0,53.2-477.645a18.869,18.869,0,0,0-7.626,1.593.733.733,0,0,0-.479.592.733.733,0,0,0,.305.7.733.733,0,0,0,.76.05,17.423,17.423,0,0,1,7.039-1.466,17.6,17.6,0,0,1,17.6,17.6,17.6,17.6,0,0,1-17.6,17.6,17.6,17.6,0,0,1-17.6-17.6,17.422,17.422,0,0,1,1.466-7.039A.733.733,0,0,0,36.691-466.585Z" transform="translate(-31.2 -31.2)" fill="#418cff"/>
    <path id="Trazado_24545" data-name="Trazado 24545" d="M84.921-416.549a18.077,18.077,0,0,1,1.435-1.526.734.734,0,0,0,.029-1.037.734.734,0,0,0-1.037-.029,19.412,19.412,0,0,0-1.552,1.652.733.733,0,0,0-.13.725.733.733,0,0,0,.565.472A.733.733,0,0,0,84.921-416.549Z" transform="translate(-76.436 -84.494)" fill="#418cff"/>
    <path id="Trazado_24546" data-name="Trazado 24546" d="M150.9-366.518a1.629,1.629,0,0,0-1.655.047l-3.5,2.209a1.408,1.408,0,0,0-.684,1.208,1.408,1.408,0,0,0,.684,1.208l3.5,2.209a1.612,1.612,0,0,0,.865.25,1.634,1.634,0,0,0,.789-.2,1.427,1.427,0,0,0,.766-1.255.746.746,0,0,0-.726-.755.71.71,0,0,0-.514.2.709.709,0,0,0-.213.51.165.165,0,0,1-.182.01l-3.446-2.177,3.446-2.176a.183.183,0,0,1,.1-.023c.037,0,.066.007.067-.007a.733.733,0,0,0,.733.733.733.733,0,0,0,.733-.733A1.427,1.427,0,0,0,150.9-366.518Z" transform="translate(-132.6 -132.593)" fill="#418cff"/>
    <path id="Trazado_24547" data-name="Trazado 24547" d="M232.132-332.578H222.6a.733.733,0,0,0-.733.733.733.733,0,0,0,.733.733h9.532a.733.733,0,0,1,.733.733v5.866a.733.733,0,0,0,.733.733.733.733,0,0,0,.733-.733v-5.866A2.2,2.2,0,0,0,232.132-332.578Z" transform="translate(-202.803 -163.802)" fill="#418cff"/>
    <path id="Trazado_24548" data-name="Trazado 24548" d="M292.552-223.108l3.5-2.209a1.408,1.408,0,0,0,.684-1.208,1.408,1.408,0,0,0-.684-1.208l-3.5-2.209a1.625,1.625,0,0,0-1.654-.047,1.427,1.427,0,0,0-.766,1.255.746.746,0,0,0,.726.755.71.71,0,0,0,.514-.2.71.71,0,0,0,.213-.51.166.166,0,0,1,.182-.01l3.446,2.178-3.446,2.176a.183.183,0,0,1-.1.026c-.037,0-.067,0-.067.007a.733.733,0,0,0-.733-.733.733.733,0,0,0-.733.733,1.427,1.427,0,0,0,.763,1.255A1.629,1.629,0,0,0,292.552-223.108Z" transform="translate(-265.202 -257.39)" fill="#418cff"/>
    <path id="Trazado_24549" data-name="Trazado 24549" d="M145.067-274.779a2.2,2.2,0,0,0,2.2,2.2H156.8a.733.733,0,0,0,.733-.733.733.733,0,0,0-.733-.733h-9.532a.733.733,0,0,1-.733-.733v-5.866a.733.733,0,0,0-.733-.733.733.733,0,0,0-.733.733Z" transform="translate(-132.602 -210.602)" fill="#418cff"/>
  </g>
</svg>
