<svg xmlns="http://www.w3.org/2000/svg" width="41.885" height="41.888" viewBox="0 0 41.885 41.888">
  <g id="Grupo_2654" data-name="Grupo 2654" transform="translate(0 512.043)">
    <path id="Trazado_24435" data-name="Trazado 24435" d="M25.287-503.509a16.762,16.762,0,0,1,16.754,16.754A16.762,16.762,0,0,1,25.287-470,16.762,16.762,0,0,1,8.533-486.755,16.762,16.762,0,0,1,25.287-503.509Z" transform="translate(-7.835 -7.836)" fill="#e7ecfb" fill-rule="evenodd"/>
    <path id="Trazado_24436" data-name="Trazado 24436" d="M201.58-503.509c-.349,0-.7.015-1.047.036a16.754,16.754,0,0,1,15.673,16.719,16.754,16.754,0,0,1-15.673,16.719c.349.022.7.036,1.047.036a16.755,16.755,0,0,0,16.755-16.755A16.755,16.755,0,0,0,201.58-503.509Z" transform="translate(-184.128 -7.836)" fill="#cad9fb"/>
    <path id="Trazado_24437" data-name="Trazado 24437" d="M56.628-469.376A13.968,13.968,0,0,1,70.59-455.415a13.968,13.968,0,0,1-13.962,13.961,13.968,13.968,0,0,1-13.961-13.961A13.968,13.968,0,0,1,56.628-469.376Z" transform="translate(-39.176 -39.177)" fill="#a3c2f6" fill-rule="evenodd"/>
    <path id="Trazado_24438" data-name="Trazado 24438" d="M201.58-469.376c-.353,0-.7.027-1.047.053a13.947,13.947,0,0,1,12.913,13.908,13.947,13.947,0,0,1-12.913,13.908c.349.026.694.053,1.047.053a13.961,13.961,0,0,0,13.962-13.961A13.961,13.961,0,0,0,201.58-469.376Z" transform="translate(-184.128 -39.177)" fill="#7eabfa"/>
    <path id="Trazado_24439" data-name="Trazado 24439" d="M342.881-169.161a3.87,3.87,0,0,1-2.888,1.135,3.87,3.87,0,0,1-2.794-1.352l-7.386-8.607a16.576,16.576,0,0,0,4.244-4.244l8.607,7.386a3.87,3.87,0,0,1,1.352,2.794A3.87,3.87,0,0,1,342.881-169.161Z" transform="translate(-302.832 -302.833)" fill="#e7ecfb"/>
    <path id="Trazado_24440" data-name="Trazado 24440" d="M381.034-174.843l-8.607-7.386c-.259.376-.538.736-.826,1.088l7.339,6.3a3.877,3.877,0,0,1,1.26,3.778,3.877,3.877,0,0,1-2.735,2.9,3.876,3.876,0,0,0,4.463-1.9A3.876,3.876,0,0,0,381.034-174.843Z" transform="translate(-341.202 -302.833)" fill="#cad9fb"/>
    <path id="Trazado_24441" data-name="Trazado 24441" d="M336.549-180.086l-4.593,4.593-2.143-2.492a16.576,16.576,0,0,0,4.244-4.244Z" transform="translate(-302.832 -302.833)" fill="#e7ecfb"/>
    <path id="Trazado_24442" data-name="Trazado 24442" d="M99.637-424.818a.532.532,0,0,0-.357-.455l-1.37-.489a9.507,9.507,0,0,0-.419-1.562l.945-1.1a.53.53,0,0,0,.081-.572q-.161-.333-.349-.658c-.126-.217-.257-.428-.4-.628a.531.531,0,0,0-.536-.216l-1.429.265a9.651,9.651,0,0,0-1.146-1.145l.265-1.43a.533.533,0,0,0-.216-.536q-.3-.209-.628-.4t-.658-.349a.533.533,0,0,0-.572.081l-1.108.946a9.438,9.438,0,0,0-1.562-.419l-.484-1.37a.53.53,0,0,0-.456-.356c-.249-.024-.5-.032-.748-.032s-.5.008-.744.027a.53.53,0,0,0-.455.356l-.489,1.37a9.443,9.443,0,0,0-1.562.419l-1.1-.944a.532.532,0,0,0-.572-.081q-.333.16-.658.349c-.216.125-.427.256-.628.4a.531.531,0,0,0-.216.536l.265,1.43a9.651,9.651,0,0,0-1.146,1.145l-1.429-.265a.532.532,0,0,0-.537.216q-.209.3-.4.628t-.349.658a.531.531,0,0,0,.08.572l.946,1.107a9.436,9.436,0,0,0-.419,1.562l-1.37.489a.532.532,0,0,0-.357.455c-.019.246-.027.494-.027.744s.008.5.027.744a.532.532,0,0,0,.357.455l1.369.489a9.516,9.516,0,0,0,.419,1.563l-.946,1.106a.531.531,0,0,0-.08.572q.159.333.349.658t.4.628a.532.532,0,0,0,.537.216l1.428-.265a9.65,9.65,0,0,0,1.146,1.146l-.265,1.429a.531.531,0,0,0,.216.536c.2.14.414.27.628.4s.436.242.658.349a.532.532,0,0,0,.572-.081l1.106-.945a9.523,9.523,0,0,0,1.564.419l.484,1.369a.531.531,0,0,0,.455.356c.246.019.494.027.744.027s.5-.008.744-.027a.531.531,0,0,0,.456-.356l.484-1.369a9.522,9.522,0,0,0,1.564-.419l1.111.944a.533.533,0,0,0,.572.081q.333-.16.658-.349t.628-.4a.533.533,0,0,0,.216-.536l-.265-1.429a9.708,9.708,0,0,0,1.146-1.146l1.428.265a.53.53,0,0,0,.536-.216c.14-.2.27-.414.4-.628s.241-.436.349-.658a.53.53,0,0,0-.081-.572l-.945-1.106a9.431,9.431,0,0,0,.419-1.563l1.37-.489a.533.533,0,0,0,.357-.455c.018-.246.027-.494.027-.744S99.656-424.572,99.637-424.818Z" transform="translate(-71.003 -70.517)" fill="#e7ecfb"/>
    <path id="Trazado_24443" data-name="Trazado 24443" d="M201.173-434.86l.484,1.37a9.443,9.443,0,0,1,1.562.419l.523-.447-.475-1.345a.531.531,0,0,0-.456-.356c-.245-.017-.494-.025-.744-.025s-.5.008-.744.027a.509.509,0,0,0-.3.135A.548.548,0,0,1,201.173-434.86Z" transform="translate(-184.575 -70.517)" fill="#cad9fb"/>
    <path id="Trazado_24444" data-name="Trazado 24444" d="M267.719-412.458a.532.532,0,0,0-.357-.455l-1.37-.489a9.506,9.506,0,0,0-.419-1.562l.945-1.1a.53.53,0,0,0,.081-.572q-.161-.333-.349-.658c-.126-.217-.257-.428-.4-.628a.532.532,0,0,0-.536-.216l-1.43.265a9.581,9.581,0,0,0-1.145-1.145l.265-1.43a.533.533,0,0,0-.216-.536q-.3-.209-.628-.4t-.658-.349a.533.533,0,0,0-.572.081l-.547.467c.1.065.209.127.313.2a.533.533,0,0,1,.216.536l-.265,1.43a9.581,9.581,0,0,1,1.145,1.145l1.43-.265a.532.532,0,0,1,.536.216c.14.2.27.414.4.628s.242.436.349.658a.53.53,0,0,1-.081.572l-.945,1.107a9.508,9.508,0,0,1,.419,1.562l1.37.489a.532.532,0,0,1,.357.455c.018.246.027.494.027.744s-.008.5-.027.744a.533.533,0,0,1-.357.455l-1.37.489a9.445,9.445,0,0,1-.419,1.563l.942,1.1a.53.53,0,0,1,.081.572q-.161.333-.349.658c-.126.217-.257.427-.4.628a.533.533,0,0,1-.536.216l-1.428-.265a9.707,9.707,0,0,1-1.146,1.146l.265,1.428a.532.532,0,0,1-.216.537c-.1.07-.209.131-.313.2l.547.467a.533.533,0,0,0,.572.081q.333-.16.658-.349t.628-.4a.533.533,0,0,0,.216-.537l-.265-1.428a9.7,9.7,0,0,0,1.146-1.146l1.428.265a.533.533,0,0,0,.536-.216c.14-.2.27-.414.4-.628s.242-.436.349-.658a.53.53,0,0,0-.081-.572l-.945-1.106a9.45,9.45,0,0,0,.419-1.563l1.37-.489a.533.533,0,0,0,.357-.455c.018-.246.027-.494.027-.744S267.737-412.212,267.719-412.458Z" transform="translate(-239.085 -82.878)" fill="#cad9fb"/>
    <path id="Trazado_24445" data-name="Trazado 24445" d="M203.221-188.749a9.522,9.522,0,0,1-1.564.419l-.484,1.369a.548.548,0,0,1-.153.221.513.513,0,0,0,.3.135c.246.019.494.027.744.027s.5-.008.744-.027a.532.532,0,0,0,.456-.356l.476-1.344Z" transform="translate(-184.575 -296.847)" fill="#cad9fb"/>
    <path id="Trazado_24446" data-name="Trazado 24446" d="M142.816-375.509a6.286,6.286,0,0,1,6.283,6.283,6.286,6.286,0,0,1-6.283,6.283,6.286,6.286,0,0,1-6.283-6.283A6.286,6.286,0,0,1,142.816-375.509Z" transform="translate(-125.364 -125.365)" fill="#e7ecfb" fill-rule="evenodd"/>
    <path id="Trazado_24447" data-name="Trazado 24447" d="M201.58-375.51a6.3,6.3,0,0,0-1.047.094,6.275,6.275,0,0,1,5.236,6.188,6.275,6.275,0,0,1-5.236,6.188,6.283,6.283,0,0,0,6.133-2.451,6.283,6.283,0,0,0,.553-6.582A6.283,6.283,0,0,0,201.58-375.51Z" transform="translate(-184.128 -125.364)" fill="#cad9fb"/>
    <path id="Trazado_24448" data-name="Trazado 24448" d="M181.992-332.843a2.794,2.794,0,0,1,2.792,2.792,2.794,2.794,0,0,1-2.792,2.792,2.794,2.794,0,0,1-2.792-2.792A2.794,2.794,0,0,1,181.992-332.843Z" transform="translate(-164.54 -164.541)" fill="#e7ecfb" fill-rule="evenodd"/>
    <path id="Trazado_24449" data-name="Trazado 24449" d="M26.3-470.041a16.745,16.745,0,0,1-15.8-16.667,16.745,16.745,0,0,1,15.7-16.765c-.34-.02-.689-.036-1.038-.036A16.754,16.754,0,0,0,10.448-494.8a16.754,16.754,0,0,0,.583,17.079A16.754,16.754,0,0,0,26.3-470.041Z" transform="translate(-7.702 -7.836)" fill="#fff"/>
    <path id="Trazado_24450" data-name="Trazado 24450" d="M.973-368.478l1.319.457a16.833,16.833,0,0,0-.9,5.25H0A18.23,18.23,0,0,1,.973-368.478Z" transform="translate(0 -131.821)" fill="#fff"/>
    <path id="Trazado_24451" data-name="Trazado 24451" d="M72.023-424.806,73.061-425q.31.339.65.65l-.193,1.038a1.23,1.23,0,0,0,.51,1.241c.218.149.443.289.675.423s.468.26.7.373a1.227,1.227,0,0,0,1.33-.181l.8-.687c.293.093.589.173.887.239l.349,1a1.229,1.229,0,0,0,1.06.819c.263.02.529.029.8.029s.534-.009.8-.029a1.227,1.227,0,0,0,1.061-.819l.349-1c.3-.066.593-.146.887-.239l.811.687a1.23,1.23,0,0,0,1.326.179c.237-.114.472-.239.706-.373s.457-.275.674-.424a1.227,1.227,0,0,0,.509-1.239l-.192-1.039c.226-.209.442-.424.649-.649l1.043.2a1.237,1.237,0,0,0,1.239-.51q.222-.327.424-.676c.133-.232.258-.467.371-.7a1.226,1.226,0,0,0-.178-1.326l-.688-.8c.094-.294.173-.59.239-.886l1-.349a1.23,1.23,0,0,0,.818-1.061q.029-.4.029-.8t-.029-.8a1.229,1.229,0,0,0-.82-1.06l-1-.349c-.066-.3-.146-.593-.239-.886l.688-.8a1.226,1.226,0,0,0,.179-1.326c-.114-.237-.239-.472-.373-.706s-.274-.456-.423-.675a1.233,1.233,0,0,0-1.238-.525l-1.039.193q-.31-.339-.648-.649l.192-1.039a1.228,1.228,0,0,0-.509-1.24c-.217-.149-.443-.289-.675-.424s-.468-.259-.705-.373a1.229,1.229,0,0,0-1.326.179l-.806.688c-.293-.093-.589-.173-.884-.239l-.353-1a1.227,1.227,0,0,0-1.064-.817,10.315,10.315,0,0,0-1.594,0,1.229,1.229,0,0,0-1.058.82l-.349,1c-.3.066-.593.146-.886.239l-.81-.688a1.231,1.231,0,0,0-1.326-.179q-.357.172-.705.373c-.232.135-.458.275-.676.424a1.229,1.229,0,0,0-.509,1.24l.193,1.039q-.339.31-.649.649l-1.043-.2a1.225,1.225,0,0,0-1.238.509c-.149.218-.289.443-.423.675s-.259.467-.375.706a1.23,1.23,0,0,0,.18,1.326l.688.8c-.094.294-.173.59-.239.886l-1,.349a1.231,1.231,0,0,0-.817,1.067c-.02.263-.029.528-.029.8s.008.533.029.8a1.231,1.231,0,0,0,.819,1.058l1,.349c.07.3.146.593.239.886l-.688.8a1.23,1.23,0,0,0-.179,1.326q.172.356.373.7c.134.232.274.457.423.675A1.236,1.236,0,0,0,72.023-424.806Zm-.729-2.391.878-1.03a.7.7,0,0,0,.125-.692,8.716,8.716,0,0,1-.39-1.447.7.7,0,0,0-.454-.535l-1.271-.45c-.012-.191-.017-.383-.017-.577s0-.387.017-.577l1.271-.45a.7.7,0,0,0,.454-.535,8.825,8.825,0,0,1,.39-1.449.7.7,0,0,0-.125-.69l-.878-1.027c.085-.171.177-.341.273-.507s.2-.332.3-.489l1.326.246a.71.71,0,0,0,.661-.235,8.988,8.988,0,0,1,1.062-1.063.7.7,0,0,0,.236-.66l-.246-1.326c.159-.1.322-.206.492-.3s.335-.188.507-.273l1.028.878a.7.7,0,0,0,.692.126,8.726,8.726,0,0,1,1.446-.391.7.7,0,0,0,.535-.454l.45-1.271a9.931,9.931,0,0,1,1.153,0l.45,1.272a.7.7,0,0,0,.535.454,8.733,8.733,0,0,1,1.446.391.7.7,0,0,0,.692-.126l1.028-.878q.255.127.508.273c.168.1.332.2.489.3l-.246,1.326a.7.7,0,0,0,.236.66,9.048,9.048,0,0,1,1.062,1.063.7.7,0,0,0,.66.235l1.326-.246c.106.159.209.323.3.489s.188.336.274.509l-.878,1.028a.7.7,0,0,0-.126.692,8.769,8.769,0,0,1,.391,1.447.7.7,0,0,0,.454.535l1.27.45c.013.191.018.383.018.577s-.006.386-.018.577l-1.27.45a.7.7,0,0,0-.454.535,8.821,8.821,0,0,1-.392,1.448.7.7,0,0,0,.126.69l.877,1.027c-.085.172-.177.341-.272.508s-.2.333-.3.489l-1.326-.246a.7.7,0,0,0-.66.235,9,9,0,0,1-1.064,1.064.7.7,0,0,0-.235.66l.246,1.326q-.239.158-.489.3c-.169.1-.338.188-.508.274l-1.027-.877a.7.7,0,0,0-.691-.126,8.781,8.781,0,0,1-1.449.391.7.7,0,0,0-.535.454l-.45,1.271a9.667,9.667,0,0,1-1.153,0l-.45-1.271a.7.7,0,0,0-.535-.454,8.8,8.8,0,0,1-1.448-.391.7.7,0,0,0-.691.126l-1.027.877q-.257-.126-.507-.274c-.169-.1-.332-.2-.489-.3l.246-1.326a.7.7,0,0,0-.236-.66,9.057,9.057,0,0,1-1.063-1.064.7.7,0,0,0-.661-.235l-1.326.246q-.158-.239-.3-.489c-.095-.167-.184-.337-.272-.507Z" transform="translate(-63.144 -62.665)" fill="#418cff"/>
    <path id="Trazado_24452" data-name="Trazado 24452" d="M3.859-339.852a.7.7,0,0,1-.7-.695.7.7,0,0,1,.695-.7h.007a.7.7,0,0,1,.7.7A.7.7,0,0,1,3.859-339.852Z" transform="translate(-2.899 -156.823)" fill="#418cff"/>
    <path id="Trazado_24453" data-name="Trazado 24453" d="M0-494.591A17.438,17.438,0,0,0,9.067-479.28a17.438,17.438,0,0,0,17.784-.618l6.984,8.14a4.571,4.571,0,0,0,3.29,1.6c.059,0,.119,0,.178,0a4.575,4.575,0,0,0,4.3-2.984,4.574,4.574,0,0,0-1.313-5.064l-8.142-6.989a17.438,17.438,0,0,0,.618-17.784,17.438,17.438,0,0,0-15.311-9.067,19.1,19.1,0,0,0-5.312.829,17.941,17.941,0,0,0-4.8,2.417A16.863,16.863,0,0,0,3.5-505.041,16.593,16.593,0,0,0,.975-500.3a.666.666,0,0,0,.019.542.666.666,0,0,0,.416.348.736.736,0,0,0,.883-.432A15.2,15.2,0,0,1,4.614-504.2a15.45,15.45,0,0,1,3.534-3.457,16.564,16.564,0,0,1,4.417-2.223,17.751,17.751,0,0,1,4.886-.763,16.056,16.056,0,0,1,16.056,16.056,16.056,16.056,0,0,1-16.056,16.056A16.056,16.056,0,0,1,1.4-494.591a.7.7,0,0,0-.7-.7A.7.7,0,0,0,0-494.591Zm39.378,17.445a3.178,3.178,0,0,1,1.02,3.157,3.178,3.178,0,0,1-2.347,2.345,3.178,3.178,0,0,1-3.157-1.022l-4.823-5.622,3.683-3.683Zm-8.035-6.895,1.351,1.159-3.532,3.532L28-480.7A17.6,17.6,0,0,0,31.344-484.041Z" transform="translate(0)" fill="#418cff"/>
    <path id="Trazado_24454" data-name="Trazado 24454" d="M48.793-448.59a14.66,14.66,0,0,0,14.66-14.66,14.659,14.659,0,0,0-14.66-14.66,14.66,14.66,0,0,0-14.66,14.66A14.676,14.676,0,0,0,48.793-448.59Zm0-27.923a13.263,13.263,0,0,1,13.263,13.263,13.263,13.263,0,0,1-13.263,13.263A13.263,13.263,0,0,1,35.53-463.249,13.278,13.278,0,0,1,48.793-476.513Z" transform="translate(-31.341 -31.342)" fill="#418cff"/>
    <path id="Trazado_24455" data-name="Trazado 24455" d="M134.981-370.081a6.981,6.981,0,0,0,6.981-6.981,6.981,6.981,0,0,0-6.981-6.981A6.981,6.981,0,0,0,128-377.062,6.989,6.989,0,0,0,134.981-370.081Zm0-12.565a5.585,5.585,0,0,1,5.585,5.585,5.585,5.585,0,0,1-5.585,5.585,5.585,5.585,0,0,1-5.585-5.585A5.591,5.591,0,0,1,134.981-382.647Z" transform="translate(-117.529 -117.529)" fill="#418cff"/>
    <path id="Trazado_24456" data-name="Trazado 24456" d="M174.157-334.4a3.49,3.49,0,0,0,3.49-3.49,3.49,3.49,0,0,0-3.49-3.49,3.49,3.49,0,0,0-3.49,3.49A3.494,3.494,0,0,0,174.157-334.4Zm0-5.585a2.094,2.094,0,0,1,2.094,2.094,2.094,2.094,0,0,1-2.094,2.094,2.094,2.094,0,0,1-2.094-2.094A2.094,2.094,0,0,1,174.157-339.98Z" transform="translate(-156.705 -156.706)" fill="#418cff"/>
    <path id="Trazado_24457" data-name="Trazado 24457" d="M452.965-59.776a.7.7,0,0,1,.7.7.7.7,0,0,1-.7.7.7.7,0,0,1-.7-.7A.7.7,0,0,1,452.965-59.776Z" transform="translate(-415.269 -415.269)" fill="#418cff" fill-rule="evenodd"/>
  </g>
</svg>
